<?xml version="1.0" encoding="UTF-8"?>
<svg width="18px" height="22px" viewBox="0 0 18 22" version="1.1" xmlns="http://www.w3.org/2000/svg" xmlns:xlink="http://www.w3.org/1999/xlink">
    <!-- Generator: Sketch 60 (88103) - https://sketch.com -->
    <title>all-invoice</title>
    <desc>Created with Sketch.</desc>
    <g id="Page-1" stroke="none" stroke-width="1" fill="none" fill-rule="evenodd">
        <g id="all-invoice" transform="translate(-3.000000, -1.000000)">
            <rect id="bound" x="0" y="0" width="24" height="24"></rect>
            <path d="M16.14,1.52 C16.2260553,1.53861004 16.3055066,1.58006291 16.37,1.64 L16.37,1.64 L20.37,5.64 C20.4299371,5.70449337 20.47139,5.78394469 20.49,5.87 L20.49,5.87 L20.49,5.93 C20.4950498,5.95305574 20.4983922,5.97645254 20.5,6 L20.5,6 L20.5,22 C20.5011857,22.2018544 20.3808796,22.3846226 20.1950053,22.4633459 C20.009131,22.5420691 19.7941519,22.501304 19.65,22.36 L19.65,22.36 L18,20.71 L16.36,22.36 C16.2661167,22.4546563 16.1383188,22.5078992 16.005,22.5078992 C15.8716812,22.5078992 15.7438833,22.4546563 15.65,22.36 L15.65,22.36 L14,20.71 L12.36,22.36 C12.2661167,22.4546563 12.1383188,22.5078992 12.005,22.5078992 C11.8716812,22.5078992 11.7438833,22.4546563 11.65,22.36 L11.65,22.36 L10,20.71 L8.36,22.36 C8.2661167,22.4546563 8.13831877,22.5078992 8.005,22.5078992 C7.87168123,22.5078992 7.7438833,22.4546563 7.65,22.36 L7.65,22.36 L6,20.71 L4.35,22.35 C4.20714985,22.4900599 3.99456439,22.5314878 3.80957577,22.455316 C3.62458715,22.3791442 3.50281003,22.2000376 3.5,22 L3.5,22 L3.5,2.02 C3.5,1.74385763 3.72385763,1.52 4,1.52 L4,1.52 Z M15.5,2.5 L4.5,2.5 L4.5,20.79 L5.64,19.65 C5.7338833,19.5553437 5.86168123,19.5021008 5.995,19.5021008 C6.12831877,19.5021008 6.2561167,19.5553437 6.35,19.65 L6.35,19.65 L8,21.29 L9.64,19.64 C9.7338833,19.5453437 9.86168123,19.4921008 9.995,19.4921008 C10.1283188,19.4921008 10.2561167,19.5453437 10.35,19.64 L10.35,19.64 L12,21.29 L13.64,19.64 C13.7338833,19.5453437 13.8616812,19.4921008 13.995,19.4921008 C14.1283188,19.4921008 14.2561167,19.5453437 14.35,19.64 L14.35,19.64 L16,21.29 L17.64,19.65 C17.7338833,19.5553437 17.8616812,19.5021008 17.995,19.5021008 C18.1283188,19.5021008 18.2561167,19.5553437 18.35,19.65 L18.35,19.65 L19.5,20.79 L19.5,6.5 L16,6.5 C15.7238576,6.5 15.5,6.27614237 15.5,6 L15.5,6 L15.5,2.5 Z M16,12.5 L16,13 L17.5,13 C17.7761424,13 18,13.2238576 18,13.5 C18,13.7761424 17.7761424,14 17.5,14 L17.5,14 L14.5,14 C14.2238576,14 14,14.2238576 14,14.5 C14,14.7761424 14.2238576,15 14.5,15 L14.5,15 L16.5,15 C17.3284271,15 18,15.6715729 18,16.5 C18,17.3284271 17.3284271,18 16.5,18 L16.5,18 L16,18 L16,18.5 L15,18.5 L15,18 L13.5,18 C13.2238576,18 13,17.7761424 13,17.5 C13,17.2238576 13.2238576,17 13.5,17 L13.5,17 L16.5,17 C16.7761424,17 17,16.7761424 17,16.5 C17,16.2238576 16.7761424,16 16.5,16 L16.5,16 L14.5,16 C13.6715729,16 13,15.3284271 13,14.5 C13,13.6715729 13.6715729,13 14.5,13 L14.5,13 L15,13 L15,12.5 L16,12.5 Z M14,5 L14,6 L6,6 L6,5 L14,5 Z M16.5,3.21 L16.5,5.5 L18.79,5.5 L16.5,3.21 Z" id="Combined-Shape" fill="#ACBADF" fill-rule="nonzero"></path>
        </g>
    </g>
</svg>