<?xml version="1.0" encoding="UTF-8"?>
<svg width="22px" height="22px" viewBox="0 0 22 22" version="1.1" xmlns="http://www.w3.org/2000/svg" xmlns:xlink="http://www.w3.org/1999/xlink">
    <!-- Generator: Sketch 60 (88103) - https://sketch.com -->
    <title>bank-domestik</title>
    <desc>Created with Sketch.</desc>
    <g id="Revision" stroke="none" stroke-width="1" fill="none" fill-rule="evenodd">
        <g id="bank-domestik" transform="translate(-1.000000, -1.000000)">
            <g id="Bound">
                <rect id="Rectangle" x="0" y="0" width="24" height="24"></rect>
            </g>
            <path d="M4.5,9 L4.5,18.5 L6.5,18.5 L6.5,9 L7.5,9 L7.5,18.5 L9.5,18.5 L9.5,15 C9.5,13.6192881 10.6192881,12.5 12,12.5 C13.3807119,12.5 14.5,13.6192881 14.5,15 L14.5,15 L14.5,18.5 L16.5,18.5 L16.5,9 L17.5,9 L17.5,18.5 L19.5,18.5 L19.5,9 L20.5,9 L20.5,18.5 L21,18.5 C21.2761424,18.5 21.5,18.7238576 21.5,19 L21.5,19 L21.5,19.5 L22,19.5 C22.2761424,19.5 22.5,19.7238576 22.5,20 L22.5,20 L22.5,22 C22.5,22.2761424 22.2761424,22.5 22,22.5 L22,22.5 L2,22.5 C1.72385763,22.5 1.5,22.2761424 1.5,22 L1.5,22 L1.5,20 C1.5,19.7238576 1.72385763,19.5 2,19.5 L2,19.5 L2.5,19.5 L2.5,19 C2.5,18.7238576 2.72385763,18.5 3,18.5 L3,18.5 L3.5,18.5 L3.5,9 L4.5,9 Z M20.5,19.5 L3.5,19.5 L3.5,20 C3.5,20.2761424 3.27614237,20.5 3,20.5 L3,20.5 L2.5,20.5 L2.5,21.5 L21.5,21.5 L21.5,20.5 L21,20.5 C20.7238576,20.5 20.5,20.2761424 20.5,20 L20.5,20 L20.5,19.5 Z M12,13.5 C11.1715729,13.5 10.5,14.1715729 10.5,15 L10.5,15 L10.5,18.5 L13.5,18.5 L13.5,15 C13.5,14.1715729 12.8284271,13.5 12,13.5 Z M14,10 L14,11 L10,11 L10,10 L14,10 Z M11.77,1.55 C11.9115238,1.4786857 12.0784762,1.4786857 12.22,1.55 L12.22,1.55 L20.12,5.5 L22,5.5 C22.2761424,5.5 22.5,5.72385763 22.5,6 L22.5,6 L22.5,8 C22.5,8.27614237 22.2761424,8.5 22,8.5 L22,8.5 L2,8.5 C1.72385763,8.5 1.5,8.27614237 1.5,8 L1.5,8 L1.5,6 C1.5,5.72385763 1.72385763,5.5 2,5.5 L2,5.5 L3.88,5.5 Z M21.5,6.5 L2.5,6.5 L2.5,7.5 L21.5,7.5 L21.5,6.5 Z M12,2.56 L6.12,5.5 L17.88,5.5 L12,2.56 Z" id="Combined-Shape" fill="#ACBADF" fill-rule="nonzero"></path>
        </g>
    </g>
</svg>