<?xml version="1.0" encoding="UTF-8"?>
<svg width="22px" height="22px" viewBox="0 0 22 22" version="1.1" xmlns="http://www.w3.org/2000/svg" xmlns:xlink="http://www.w3.org/1999/xlink">
    <!-- Generator: Sketch 60 (88103) - https://sketch.com -->
    <title>bank-pama</title>
    <desc>Created with Sketch.</desc>
    <g id="Revision" stroke="none" stroke-width="1" fill="none" fill-rule="evenodd">
        <g id="bank-pama" transform="translate(-1.000000, -1.000000)">
            <rect id="Bound" x="0" y="0" width="24" height="24"></rect>
            <path d="M4.5,9 L4.5,18.5 L6.5,18.5 L6.5,9 L7.5,9 L7.5,18.5 L9.5,18.5 L9.5,15.44 C9.5,14.0592881 10.6192881,12.94 12,12.94 C13.3807119,12.94 14.5,14.0592881 14.5,15.44 L14.5,15.44 L14.5,18.5 L16.5,18.5 L16.5,9 L17.5,9 L17.5,18.5 L19.5,18.5 L19.5,9 L20.5,9 L20.5,18.5 L21,18.5 C21.2761424,18.5 21.5,18.7238576 21.5,19 L21.5,19 L21.5,19.5 L22,19.5 C22.2761424,19.5 22.5,19.7238576 22.5,20 L22.5,20 L22.5,22 C22.5,22.2761424 22.2761424,22.5 22,22.5 L22,22.5 L2,22.5 C1.72385763,22.5 1.5,22.2761424 1.5,22 L1.5,22 L1.5,20 C1.5,19.7238576 1.72385763,19.5 2,19.5 L2,19.5 L2.5,19.5 L2.5,19 C2.5,18.7238576 2.72385763,18.5 3,18.5 L3,18.5 L3.5,18.5 L3.5,9 L4.5,9 Z M20.5,19.5 L3.5,19.5 L3.5,20 C3.5,20.2761424 3.27614237,20.5 3,20.5 L3,20.5 L2.5,20.5 L2.5,21.5 L21.5,21.5 L21.5,20.5 L21,20.5 C20.7238576,20.5 20.5,20.2761424 20.5,20 L20.5,20 L20.5,19.5 Z M12,13.94 C11.1715729,13.94 10.5,14.6115729 10.5,15.44 L10.5,15.44 L10.5,18.5 L13.5,18.5 L13.5,15.44 C13.5,14.6115729 12.8284271,13.94 12,13.94 Z M14,10 L14,11 L10,11 L10,10 L14,10 Z M9,4.5 L9,5.5 L2.5,5.5 L2.5,7.5 L21.5,7.5 L21.5,5.5 L15,5.5 L15,4.5 L22,4.5 C22.2761424,4.5 22.5,4.72385763 22.5,5 L22.5,8 C22.5,8.27614237 22.2761424,8.5 22,8.5 L2,8.5 C1.72385763,8.5 1.5,8.27614237 1.5,8 L1.5,5 C1.5,4.72385763 1.72385763,4.5 2,4.5 L9,4.5 Z M14,1.5 C14.2761424,1.5 14.5,1.72385763 14.5,2 L14.5,6 C14.5,6.27614237 14.2761424,6.5 14,6.5 L10,6.5 C9.72385763,6.5 9.5,6.27614237 9.5,6 L9.5,2 C9.5,1.72385763 9.72385763,1.5 10,1.5 L14,1.5 Z M13.5,2.5 L10.5,2.5 L10.5,5.5 L13.5,5.5 L13.5,2.5 Z" id="Combined-Shape" fill="#ACBADF" fill-rule="nonzero"></path>
        </g>
    </g>
</svg>