<?xml version="1.0" encoding="UTF-8"?>
<svg width="22px" height="22px" viewBox="0 0 22 22" version="1.1" xmlns="http://www.w3.org/2000/svg" xmlns:xlink="http://www.w3.org/1999/xlink">
    <!-- Generator: Sketch 60 (88103) - https://sketch.com -->
    <title>bukti-potong</title>
    <desc>Created with Sketch.</desc>
    <g id="Revision" stroke="none" stroke-width="1" fill="none" fill-rule="evenodd">
        <g id="bukti-potong" transform="translate(-1.000000, -1.000000)">
            <g id="Bound">
                <rect id="Rectangle" x="0" y="0" width="24" height="24"></rect>
            </g>
            <path d="M17,1.5 C17.2761424,1.5 17.5,1.72385763 17.5,2 L17.5,2 L17.5,8 L16.5,8 L16.5,2.5 L2.5,2.5 L2.5,11.5 L3,11.5 L3,12.5 L2.5,12.5 L2.5,16.5 L7,16.5 C7.27614237,16.5 7.5,16.7238576 7.5,17 L7.5,17 L7.5,21.5 L16.5,21.5 L16.5,16 L17.5,16 L17.5,22 C17.5,22.2761424 17.2761424,22.5 17,22.5 L17,22.5 L7,22.5 C6.85925759,22.5090134 6.72125381,22.4581699 6.62,22.36 L6.62,22.36 L1.62,17.36 C1.56006291,17.2955066 1.51861004,17.2160553 1.5,17.13 L1.5,17.13 L1.5,17.07 C1.49829634,17.0466978 1.49829634,17.0233022 1.5,17 L1.5,17 L1.5,2 C1.5,1.72385763 1.72385763,1.5 2,1.5 L2,1.5 Z M6.5,17.5 L3.21,17.5 L6.5,20.79 L6.5,17.5 Z M16,8.5 C16.2761424,8.5 16.5,8.72385763 16.5,9 L16.5,9 L16.5,10.79 L17,11.29 L17.51,10.78 C17.6239894,9.48969139 18.7046661,8.50015606 20,8.5 L20,8.5 L21,8.5 C21.8284271,8.5 22.5,9.17157288 22.5,10 C22.5,10.8284271 21.8284271,11.5 21,11.5 L21,11.5 L18.21,11.5 L17.71,12 L18.21,12.5 L21,12.5 C21.8284271,12.5 22.5,13.1715729 22.5,14 C22.5,14.8284271 21.8284271,15.5 21,15.5 L21,15.5 L20,15.5 C18.7046661,15.4998439 17.6239894,14.5103086 17.51,13.22 L17.51,13.22 L17,12.71 L16.5,13.21 L16.5,15 C16.5,15.2761424 16.2761424,15.5 16,15.5 L16,15.5 L11,15.5 C9.61928813,15.5 8.5,14.3807119 8.5,13 C8.5,12.7238576 8.72385763,12.5 9,12.5 L9,12.5 L15.79,12.5 L16.29,12 L15.79,11.5 L9,11.5 C8.72385763,11.5 8.5,11.2761424 8.5,11 C8.5,9.61928813 9.61928813,8.5 11,8.5 L11,8.5 Z M15.5,13.5 L9.59,13.5 C9.80137415,14.0978643 10.3658725,14.4982178 11,14.5 L11,14.5 L15.5,14.5 L15.5,13.5 Z M21,13.5 L18.59,13.5 C18.8013742,14.0978643 19.3658725,14.4982178 20,14.5 L20,14.5 L21,14.5 C21.2761424,14.5 21.5,14.2761424 21.5,14 C21.5,13.7238576 21.2761424,13.5 21,13.5 L21,13.5 Z M9,11.5 L9,12.5 L8,12.5 L8,11.5 L9,11.5 Z M5,11.5 L5,12.5 L4,12.5 L4,11.5 L5,11.5 Z M7,11.5 L7,12.5 L6,12.5 L6,11.5 L7,11.5 Z M21,9.5 L20,9.5 C19.3658725,9.50178218 18.8013742,9.90213565 18.59,10.5 L18.59,10.5 L21,10.5 C21.2761424,10.5 21.5,10.2761424 21.5,10 C21.5,9.72385763 21.2761424,9.5 21,9.5 L21,9.5 Z M15.5,9.5 L11,9.5 C10.3658725,9.50178218 9.80137415,9.90213565 9.59,10.5 L9.59,10.5 L15.5,10.5 L15.5,9.5 Z M13,6 L13,7 L6,7 L6,6 L13,6 Z M14,4 L14,5 L5,5 L5,4 L14,4 Z" id="Combined-Shape" fill="#ACBADF" fill-rule="nonzero"></path>
        </g>
    </g>
</svg>