<?xml version="1.0" encoding="UTF-8"?>
<svg xmlns="http://www.w3.org/2000/svg" xmlns:xlink="http://www.w3.org/1999/xlink" width="22pt" height="22pt" viewBox="0 0 22 22" version="1.1">
<g id="surface1">
<path style=" stroke:none;fill-rule:nonzero;fill:rgb(67.45098%,72.941176%,87.45098%);fill-opacity:1;" d="M 4.613281 4.613281 C 4.222656 4.613281 3.902344 4.292969 3.902344 3.902344 C 3.902344 3.511719 4.222656 3.195312 4.613281 3.195312 C 5.003906 3.195312 5.324219 3.511719 5.324219 3.902344 L 6.03125 3.902344 C 6.03125 3.121094 5.394531 2.484375 4.613281 2.484375 C 3.832031 2.484375 3.195312 3.121094 3.195312 3.902344 C 3.195312 4.6875 3.832031 5.324219 4.613281 5.324219 C 5.003906 5.324219 5.324219 5.640625 5.324219 6.03125 C 5.324219 6.421875 5.003906 6.742188 4.613281 6.742188 C 4.222656 6.742188 3.902344 6.421875 3.902344 6.03125 L 3.195312 6.03125 C 3.195312 6.816406 3.832031 7.453125 4.613281 7.453125 C 5.394531 7.453125 6.03125 6.816406 6.03125 6.03125 C 6.03125 5.25 5.394531 4.613281 4.613281 4.613281 Z M 4.613281 4.613281 "/>
<path style=" stroke:none;fill-rule:nonzero;fill:rgb(67.45098%,72.941176%,87.45098%);fill-opacity:1;" d="M 4.257812 1.773438 L 4.96875 1.773438 L 4.96875 2.839844 L 4.257812 2.839844 Z M 4.257812 1.773438 "/>
<path style=" stroke:none;fill-rule:nonzero;fill:rgb(67.45098%,72.941176%,87.45098%);fill-opacity:1;" d="M 4.257812 7.097656 L 4.96875 7.097656 L 4.96875 8.160156 L 4.257812 8.160156 Z M 4.257812 7.097656 "/>
<path style=" stroke:none;fill-rule:nonzero;fill:rgb(67.45098%,72.941176%,87.45098%);fill-opacity:1;" d="M 0 19.871094 L 0 22 L 6.386719 22 L 6.386719 19.871094 Z M 5.675781 21.289062 L 0.710938 21.289062 L 0.710938 20.582031 L 5.675781 20.582031 Z M 5.675781 21.289062 "/>
<path style=" stroke:none;fill-rule:nonzero;fill:rgb(67.45098%,72.941176%,87.45098%);fill-opacity:1;" d="M 0 18.453125 L 0 20.582031 L 6.386719 20.582031 L 6.386719 18.453125 Z M 5.675781 19.871094 L 0.710938 19.871094 L 0.710938 19.160156 L 5.675781 19.160156 Z M 5.675781 19.871094 "/>
<path style=" stroke:none;fill-rule:nonzero;fill:rgb(67.45098%,72.941176%,87.45098%);fill-opacity:1;" d="M 0 17.03125 L 0 19.160156 L 6.386719 19.160156 L 6.386719 17.03125 Z M 5.675781 18.453125 L 0.710938 18.453125 L 0.710938 17.742188 L 5.675781 17.742188 Z M 5.675781 18.453125 "/>
<path style=" stroke:none;fill-rule:nonzero;fill:rgb(67.45098%,72.941176%,87.45098%);fill-opacity:1;" d="M 9.226562 19.871094 L 9.226562 20.582031 L 12.773438 20.582031 L 12.773438 21.289062 L 7.804688 21.289062 L 7.804688 20.582031 L 8.515625 20.582031 L 8.515625 19.871094 L 7.097656 19.871094 L 7.097656 22 L 13.484375 22 L 13.484375 19.871094 Z M 9.226562 19.871094 "/>
<path style=" stroke:none;fill-rule:nonzero;fill:rgb(67.45098%,72.941176%,87.45098%);fill-opacity:1;" d="M 7.097656 18.453125 L 7.097656 20.226562 L 7.804688 20.226562 L 7.804688 19.160156 L 12.773438 19.160156 L 12.773438 20.226562 L 13.484375 20.226562 L 13.484375 18.453125 Z M 7.097656 18.453125 "/>
<path style=" stroke:none;fill-rule:nonzero;fill:rgb(67.45098%,72.941176%,87.45098%);fill-opacity:1;" d="M 7.097656 17.03125 L 7.097656 19.160156 L 13.484375 19.160156 L 13.484375 17.03125 Z M 12.773438 18.453125 L 7.804688 18.453125 L 7.804688 17.742188 L 12.773438 17.742188 Z M 12.773438 18.453125 "/>
<path style=" stroke:none;fill-rule:nonzero;fill:rgb(67.45098%,72.941176%,87.45098%);fill-opacity:1;" d="M 7.097656 15.613281 L 7.097656 17.742188 L 13.484375 17.742188 L 13.484375 15.613281 Z M 12.773438 17.03125 L 7.804688 17.03125 L 7.804688 16.324219 L 12.773438 16.324219 Z M 12.773438 17.03125 "/>
<path style=" stroke:none;fill-rule:nonzero;fill:rgb(67.45098%,72.941176%,87.45098%);fill-opacity:1;" d="M 7.097656 14.195312 L 7.097656 16.324219 L 13.484375 16.324219 L 13.484375 14.195312 Z M 12.773438 15.613281 L 7.804688 15.613281 L 7.804688 14.902344 L 12.773438 14.902344 Z M 12.773438 15.613281 "/>
<path style=" stroke:none;fill-rule:nonzero;fill:rgb(67.45098%,72.941176%,87.45098%);fill-opacity:1;" d="M 14.195312 19.871094 L 14.195312 22 L 20.582031 22 L 20.582031 19.871094 Z M 19.871094 21.289062 L 14.902344 21.289062 L 14.902344 20.582031 L 19.871094 20.582031 Z M 19.871094 21.289062 "/>
<path style=" stroke:none;fill-rule:nonzero;fill:rgb(67.45098%,72.941176%,87.45098%);fill-opacity:1;" d="M 14.195312 18.453125 L 14.195312 20.582031 L 20.582031 20.582031 L 20.582031 18.453125 Z M 19.871094 19.871094 L 14.902344 19.871094 L 14.902344 19.160156 L 19.871094 19.160156 Z M 19.871094 19.871094 "/>
<path style=" stroke:none;fill-rule:nonzero;fill:rgb(67.45098%,72.941176%,87.45098%);fill-opacity:1;" d="M 14.195312 17.03125 L 14.195312 19.160156 L 20.582031 19.160156 L 20.582031 17.03125 Z M 19.871094 18.453125 L 14.902344 18.453125 L 14.902344 17.742188 L 19.871094 17.742188 Z M 19.871094 18.453125 "/>
<path style=" stroke:none;fill-rule:nonzero;fill:rgb(67.45098%,72.941176%,87.45098%);fill-opacity:1;" d="M 14.195312 15.613281 L 14.195312 17.742188 L 20.582031 17.742188 L 20.582031 15.613281 Z M 19.871094 17.03125 L 14.902344 17.03125 L 14.902344 16.324219 L 19.871094 16.324219 Z M 19.871094 17.03125 "/>
<path style=" stroke:none;fill-rule:nonzero;fill:rgb(67.45098%,72.941176%,87.45098%);fill-opacity:1;" d="M 19.160156 14.195312 L 19.160156 14.902344 L 19.871094 14.902344 L 19.871094 15.613281 L 14.902344 15.613281 L 14.902344 14.902344 L 18.453125 14.902344 L 18.453125 14.195312 L 14.195312 14.195312 L 14.195312 16.324219 L 20.582031 16.324219 L 20.582031 14.195312 Z M 19.160156 14.195312 "/>
<path style=" stroke:none;fill-rule:nonzero;fill:rgb(67.45098%,72.941176%,87.45098%);fill-opacity:1;" d="M 14.195312 12.773438 L 14.195312 14.546875 L 14.902344 14.546875 L 14.902344 13.484375 L 19.871094 13.484375 L 19.871094 14.546875 L 20.582031 14.546875 L 20.582031 12.773438 Z M 14.195312 12.773438 "/>
<path style=" stroke:none;fill-rule:nonzero;fill:rgb(67.45098%,72.941176%,87.45098%);fill-opacity:1;" d="M 14.195312 11.355469 L 14.195312 13.484375 L 20.582031 13.484375 L 20.582031 11.355469 Z M 19.871094 12.773438 L 14.902344 12.773438 L 14.902344 12.066406 L 19.871094 12.066406 Z M 19.871094 12.773438 "/>
<path style=" stroke:none;fill-rule:nonzero;fill:rgb(67.45098%,72.941176%,87.45098%);fill-opacity:1;" d="M 16.675781 0 C 16.089844 0 15.613281 0.476562 15.613281 1.066406 C 15.613281 1.652344 16.089844 2.128906 16.675781 2.128906 L 18.304688 2.128906 L 13.078125 7.355469 L 10.265625 5.597656 L 0.136719 13.558594 L 0.574219 14.117188 L 10.3125 6.464844 L 13.179688 8.257812 L 20.019531 1.417969 L 16.675781 1.417969 C 16.480469 1.417969 16.324219 1.261719 16.324219 1.066406 C 16.324219 0.867188 16.480469 0.710938 16.675781 0.710938 L 21.289062 0.710938 L 21.289062 5.324219 C 21.289062 5.519531 21.132812 5.675781 20.933594 5.675781 C 20.738281 5.675781 20.582031 5.519531 20.582031 5.324219 L 20.582031 2.335938 L 13.421875 9.496094 L 10.253906 7.734375 L 1.199219 14.980469 L 1.640625 15.535156 L 10.324219 8.585938 L 13.546875 10.375 L 19.871094 4.050781 L 19.871094 5.324219 C 19.871094 5.910156 20.347656 6.386719 20.933594 6.386719 C 21.523438 6.386719 22 5.910156 22 5.324219 L 22 0 Z M 16.675781 0 "/>
<path style=" stroke:none;fill-rule:nonzero;fill:rgb(67.45098%,72.941176%,87.45098%);fill-opacity:1;" d="M 1.417969 4.613281 L 2.128906 4.613281 L 2.128906 5.324219 L 1.417969 5.324219 Z M 1.417969 4.613281 "/>
<path style=" stroke:none;fill-rule:nonzero;fill:rgb(67.45098%,72.941176%,87.45098%);fill-opacity:1;" d="M 7.097656 4.613281 L 7.804688 4.613281 L 7.804688 5.324219 L 7.097656 5.324219 Z M 7.097656 4.613281 "/>
<path style=" stroke:none;fill-rule:nonzero;fill:rgb(67.45098%,72.941176%,87.45098%);fill-opacity:1;" d="M 4.613281 0.355469 C 2.070312 0.355469 0 2.425781 0 4.96875 C 0 7.511719 2.070312 9.582031 4.613281 9.582031 C 7.15625 9.582031 9.226562 7.511719 9.226562 4.96875 C 9.226562 2.425781 7.15625 0.355469 4.613281 0.355469 Z M 4.613281 8.871094 C 2.460938 8.871094 0.710938 7.121094 0.710938 4.96875 C 0.710938 2.816406 2.460938 1.066406 4.613281 1.066406 C 6.765625 1.066406 8.515625 2.816406 8.515625 4.96875 C 8.515625 7.121094 6.765625 8.871094 4.613281 8.871094 Z M 4.613281 8.871094 "/>
</g>
</svg>
