<?xml version="1.0" encoding="UTF-8"?>
<svg width="22px" height="22px" viewBox="0 0 22 22" version="1.1" xmlns="http://www.w3.org/2000/svg" xmlns:xlink="http://www.w3.org/1999/xlink">
    <!-- Generator: Sketch 60 (88103) - https://sketch.com -->
    <title>district</title>
    <desc>Created with Sketch.</desc>
    <g id="Revision" stroke="none" stroke-width="1" fill="none" fill-rule="evenodd">
        <g id="district" transform="translate(-1.000000, -1.000000)">
            <g id="Bound">
                <rect id="Rectangle" x="0" y="0" width="24" height="24"></rect>
            </g>
            <path d="M8,9.49999995 C9.18817155,9.4997575 10.2123657,10.3358344 10.45,11.4999999 L10.45,11.4999999 L15,11.4999999 L15,12.4999999 L10.5,12.4999999 L10.5,19.9999999 C10.5014554,20.5411607 10.3258607,21.0679447 10,21.4999999 L10,21.4999999 L21.5,21.4999999 L21.5,12.4999999 L17,12.4999999 L17,11.4999999 L22,11.4999999 C22.2761424,11.4999999 22.5,11.7238576 22.5,11.9999999 L22.5,11.9999999 L22.5,21.9999999 C22.5,22.2761424 22.2761424,22.4999999 22,22.4999999 L22,22.4999999 L6,22.4999999 C5.72385763,22.4999999 5.5,22.2761424 5.5,21.9999999 L5.5,21.9999999 L5.5,18.9999999 L6.5,18.9999999 L6.5,21.4999999 L8,21.4999999 C8.82842712,21.4999999 9.5,20.8284271 9.5,19.9999999 C9.5,19.1715729 8.82842712,18.4999999 8,18.4999999 L8,18.4999999 L2,18.4999999 C1.72385763,18.4999999 1.5,18.2761424 1.5,17.9999999 L1.5,17.9999999 L1.5,9.99999995 C1.5,9.72385763 1.72385763,9.49999995 2,9.49999995 L2,9.49999995 Z M20,19 L20,20 L14,20 L14,19 L20,19 Z M13,19 L13,20 L12,20 L12,19 L13,19 Z M8,10.5 L2.5,10.5 L2.5,17.5 L8,17.5 C8.54104285,17.4992756 9.06760039,17.6747947 9.5,18 L9.5,18 L9.5,12 C9.5,11.1715729 8.82842712,10.5 8,10.5 L8,10.5 Z M20,17 L20,18 L14,18 L14,17 L20,17 Z M13,17 L13,18 L12,18 L12,17 L13,17 Z M15.9843771,1.48585483 L16.1766002,1.49035926 C18.0440374,1.58468987 19.5075314,3.13019695 19.5000289,5 C19.4972983,6.73610261 18.2189084,8.20625101 16.5,8.45 L16.5,8.45 L16.5,14.5 L18,14.5 L18,15.5 L14,15.5 L14,14.5 L15.5,14.5 L15.5,8.45 C13.6493621,8.18286794 12.3355254,6.5082815 12.5164518,4.64723723 C12.6973782,2.78619295 14.3091629,1.39602865 16.1766002,1.49035926 Z M16,2.5 C14.6192881,2.5 13.5,3.61928813 13.5,5 C13.5,6.38071187 14.6192881,7.5 16,7.5 C17.3807119,7.5 18.5,6.38071187 18.5,5 C18.5,3.61928813 17.3807119,2.5 16,2.5 Z" id="Combined-Shape" fill="#ACBADF" fill-rule="nonzero"></path>
        </g>
    </g>
</svg>