<?xml version="1.0" encoding="UTF-8"?>
<svg width="22px" height="22px" viewBox="0 0 22 22" version="1.1" xmlns="http://www.w3.org/2000/svg" xmlns:xlink="http://www.w3.org/1999/xlink">
    <!-- Generator: Sketch 60 (88103) - https://sketch.com -->
    <title>group</title>
    <desc>Created with Sketch.</desc>
    <g id="Page-1" stroke="none" stroke-width="1" fill="none" fill-rule="evenodd">
        <g id="group" transform="translate(-1.000000, -1.000000)">
            <rect id="bound" x="0" y="0" width="24" height="24"></rect>
            <path d="M4,7.5 L4,8.5 L2.5,8.5 L2.5,21.5 L7.69,21.5 L9.55,17.78 C9.63412671,17.6083045 9.80880245,17.4996174 10,17.5 L10,17.5 L15,17.5 C15.1699357,17.5012764 15.3275892,17.5887798 15.4185644,17.7323184 C15.5095395,17.8758569 15.5213798,18.0557771 15.45,18.21 L15.45,18.21 L13.81,21.49 L17.67,21.49 L21.23,13.49 L7.33,13.49 L4.46,20.19 C4.3456648,20.4330591 4.05971648,20.5423521 3.81241157,20.4375163 C3.56510666,20.3326805 3.44482096,20.0511796 3.54,19.8 L3.54,19.8 L6.54,12.8 C6.61977656,12.6172056 6.80055677,12.4993055 7,12.5 L7,12.5 L22,12.5 C22.169996,12.5002832 22.3282022,12.5869199 22.42,12.73 C22.5110385,12.870138 22.5260475,13.046493 22.46,13.2 L22.46,13.2 L18.46,22.2 C18.3802234,22.3827944 18.1994432,22.5006945 18,22.5 L18,22.5 L2,22.5 C1.72385763,22.5 1.5,22.2761424 1.5,22 L1.5,22 L1.5,8 C1.5,7.72385763 1.72385763,7.5 2,7.5 L2,7.5 L4,7.5 Z M14.19,18.5 L10.31,18.5 L8.81,21.5 L12.69,21.5 L14.19,18.5 Z M14,1.5 C14.1318846,1.50187852 14.2576848,1.55579287 14.35,1.65 L14.35,1.65 L17.35,4.65 C17.4442071,4.74231523 17.4981215,4.86811537 17.5,5 L17.5,5 L17.5,12 L16.5,12 L16.5,5.21 L13.79,2.5 L5.5,2.5 L5.5,13.7 L4.5,16 L4.5,2 C4.5,1.72385763 4.72385763,1.5 5,1.5 L5,1.5 Z M9.61563285,5.07368138 C10.3893759,4.33160533 11.6106241,4.33160533 12.3843672,5.07368138 C13.1581102,5.81575743 13.2091142,7.03594013 12.5,7.84 C13.7206965,8.41902684 14.4991206,9.64893698 14.5,11 C14.5,11.2761424 14.2761424,11.5 14,11.5 L14,11.5 L8,11.5 C7.72385763,11.5 7.5,11.2761424 7.5,11 C7.50087935,9.64893698 8.27930349,8.41902684 9.5,7.84 C8.79088585,7.03594013 8.84188981,5.81575743 9.61563285,5.07368138 Z M11,8.5 C9.81320579,8.50361409 8.79113707,9.3379559 8.55,10.5 L8.55,10.5 L13.45,10.5 C13.2088629,9.3379559 12.1867942,8.50361409 11,8.5 Z M11,5.5 C10.4477153,5.5 10,5.94771525 10,6.5 C10,7.05228475 10.4477153,7.5 11,7.5 C11.5522847,7.5 12,7.05228475 12,6.5 C12,5.94771525 11.5522847,5.5 11,5.5 Z" id="Combined-Shape" fill="#ACBADF" fill-rule="nonzero"></path>
        </g>
    </g>
</svg>