<?xml version="1.0" encoding="UTF-8"?>
<svg width="22px" height="22px" viewBox="0 0 22 22" version="1.1" xmlns="http://www.w3.org/2000/svg" xmlns:xlink="http://www.w3.org/1999/xlink">
    <!-- Generator: Sketch 60 (88103) - https://sketch.com -->
    <title>hold-payment</title>
    <desc>Created with Sketch.</desc>
    <g id="Revision" stroke="none" stroke-width="1" fill="none" fill-rule="evenodd">
        <g id="hold-payment" transform="translate(-1.000000, -1.000000)">
            <g id="Bound">
                <rect id="Rectangle" x="0" y="0" width="24" height="24"></rect>
            </g>
            <path d="M12.01,5.5 C12.8384271,5.5 13.51,6.17157288 13.51,7 L13.51,7.59 C13.9671873,7.43197615 14.4725224,7.50412915 14.8672164,7.78378675 C15.2619105,8.06344435 15.497516,8.51627942 15.5,9 L15.5,9.59 C15.9584024,9.42792814 16.4669256,9.49809528 16.8643086,9.77825025 C17.2616915,10.0584052 17.4986349,10.5137921 17.5,11 L17.5,19 C17.4981215,19.1318846 17.4442071,19.2576848 17.35,19.35 L16.5,20.2 L16.5,22 C16.5,22.2761424 16.2761424,22.5 16,22.5 L10,22.5 C9.72385763,22.5 9.5,22.2761424 9.5,22 L9.5,20.21 L4.65,15.35 C4.49774321,15.1964657 4.4614313,14.9624555 4.56,14.77 C4.80138364,14.1798678 5.32403773,13.7512162 5.95,13.63 C6.85774853,13.6120694 7.7316132,13.9746688 8.36,14.63 L8.51,14.78 L8.51,9 C8.51136511,8.51379208 8.74830849,8.05840522 9.14569143,7.77825025 C9.54307436,7.49809528 10.0515976,7.42792814 10.51,7.59 L10.51,7 C10.51,6.17157288 11.1815729,5.5 12.01,5.5 Z M12,6.5 C11.7238576,6.5 11.5,6.72385763 11.5,7 L11.5,13 C11.5,13.2761424 11.2761424,13.5 11,13.5 C10.7238576,13.5 10.5,13.2761424 10.5,13 L10.5,9 C10.5,8.72385763 10.2761424,8.5 10,8.5 C9.72385763,8.5 9.5,8.72385763 9.5,9 L9.5,16 C9.49718997,16.2000376 9.37541285,16.3791442 9.19042423,16.455316 C9.00543561,16.5314878 8.79285015,16.4900599 8.65,16.35 L7.65,15.35 C7.43,15.13 6.65,14.53 6.1,14.62 C5.9089788,14.6517247 5.73920245,14.7600926 5.63,14.92 L10.35,19.64 C10.4442071,19.7323152 10.4981215,19.8581154 10.5,19.99 L10.5,21.5 L15.5,21.5 L15.5,20 C15.5018785,19.8681154 15.5557929,19.7423152 15.65,19.65 L16.5,18.8 L16.5,11 C16.5,10.7238576 16.2761424,10.5 16,10.5 C15.7238576,10.5 15.5,10.7238576 15.5,11 L15.5,13 C15.5,13.2761424 15.2761424,13.5 15,13.5 C14.7238576,13.5 14.5,13.2761424 14.5,13 L14.5,9 C14.5,8.72385763 14.2761424,8.5 14,8.5 C13.7238576,8.5 13.5,8.72385763 13.5,9 L13.5,13 C13.5,13.2761424 13.2761424,13.5 13,13.5 C12.7238576,13.5 12.5,13.2761424 12.5,13 L12.5,7 C12.5,6.72385763 12.2761424,6.5 12,6.5 Z M22,1.5 C22.2761424,1.5 22.5,1.72385763 22.5,2 L22.5,12 C22.5,12.2761424 22.2761424,12.5 22,12.5 L18,12.5 L18,11.5 L21.5,11.5 L21.5,2.5 L2.5,2.5 L2.5,11.5 L8,11.5 L8,12.5 L2,12.5 C1.72385763,12.5 1.5,12.2761424 1.5,12 L1.5,2 C1.5,1.72385763 1.72385763,1.5 2,1.5 L22,1.5 Z M6,10 L6,11 L3,11 L3,10 L6,10 Z M15.24,6.17 C15.3062742,6.44614237 15.1361424,6.72372581 14.86,6.78999998 C14.5838576,6.85627415 14.3062742,6.68614236 14.24,6.41 C13.9561822,5.22159395 12.8549503,4.41243811 11.6360302,4.49667242 C10.4171102,4.58090673 9.43764935,5.53385028 9.32,6.75 C9.29638922,6.99185127 9.10231172,7.18170969 8.86,7.2 L8.81,7.2 C8.67712288,7.187383 8.55480624,7.12216154 8.47028496,7.01885776 C8.38576369,6.91555398 8.34605486,6.7827443 8.36,6.65 C8.53385852,4.9570144 9.90033304,3.63448234 11.5980954,3.5160338 C13.2958577,3.39758526 14.8327395,4.51755759 15.24,6.17 Z M21,3 L21,4 L18,4 L18,3 L21,3 Z" id="Combined-Shape" fill="#ACBADF" fill-rule="nonzero"></path>
        </g>
    </g>
</svg>