<?xml version="1.0" encoding="UTF-8"?>
<svg width="22px" height="22px" viewBox="0 0 22 22" version="1.1" xmlns="http://www.w3.org/2000/svg" xmlns:xlink="http://www.w3.org/1999/xlink">
    <!-- Generator: Sketch 60 (88103) - https://sketch.com -->
    <title>invite-supplier</title>
    <desc>Created with Sketch.</desc>
    <g id="Revision" stroke="none" stroke-width="1" fill="none" fill-rule="evenodd">
        <g id="invite-supplier" transform="translate(-1.000000, -1.000000)">
            <g id="Bound">
                <rect id="Rectangle" x="0" y="0" width="24" height="24"></rect>
            </g>
            <path d="M19.03,1.5 C19.3061424,1.5 19.53,1.72385763 19.53,2 L19.53,2 L19.53,11.56 L21,10.91 L20,10.27 L20,9.07 L22.28,10.58 C22.4192695,10.6741198 22.5019268,10.8319202 22.500033,11 L22.500033,11 L22.42,22.07 C22.426701,22.1164261 22.426701,22.1635739 22.42,22.21 L22.42,22.21 L22.3796984,22.2894659 C22.3481892,22.3396785 22.3076945,22.3839711 22.26,22.42 L22.26,22.42 L22.178753,22.4629074 C22.1222671,22.4862571 22.0616534,22.498938 22,22.5 L22,22.5 L2,22.5 C1.87136746,22.4965829 1.74924134,22.4427038 1.66,22.35 L1.66,22.35 L1.59408132,22.2900519 C1.55403303,22.2463452 1.52207737,22.1955467 1.5,22.14 L1.5,22.14 L1.49497423,22.07 L1.49497423,22.07 L1.5,22 L1.5,11 C1.49807318,10.8319202 1.58073051,10.6741198 1.72,10.58 L1.72,10.58 L4,9.07 L4,10.27 L3,10.91 L4.5,11.56 L4.5,2 C4.5,1.72385763 4.72385763,1.5 5,1.5 L5,1.5 Z M12,14.64 L3.43,21.5 L20.57,21.5 L12,14.64 Z M21.5,11.81 L14.12,15.09 L21.5,21 L21.5,11.81 Z M2.5,11.77 L2.5,21 L9.88,15.05 L2.5,11.77 Z M8.81,2.5 L5.5,2.5 L5.5,12 L10.78,14.34 L11.7,13.6 C11.8817224,13.4564012 12.1382776,13.4564012 12.32,13.6 L12.32,13.6 L13.24,14.34 L18.5,12 L18.5,2.5 L15.21,2.5 L15.21,8.5 C15.2091716,8.66629236 15.1257216,8.8212909 14.9873563,8.91353445 C14.848991,9.005778 14.6738192,9.02319395 14.52,8.96 L14.52,8.96 L12.01,7.96 L9.5,8.96 C9.34618075,9.02319395 9.17100902,9.005778 9.0326437,8.91353445 C8.89427837,8.8212909 8.81082838,8.66629236 8.81,8.5 L8.81,8.5 L8.81,2.5 Z M14.69,10.62 L14.69,11.7 L9.31,11.7 L9.31,10.62 L14.69,10.62 Z M14.19,2.5 L9.81,2.5 L9.82,7.72 L11.82,6.92 C11.938796,6.87268784 12.071204,6.87268784 12.19,6.92 L12.19,6.92 L14.19,7.72 L14.19,2.5 Z" id="Combined-Shape" fill="#ACBADF" fill-rule="nonzero"></path>
        </g>
    </g>
</svg>