<?xml version="1.0" encoding="UTF-8"?>
<svg width="22px" height="22px" viewBox="0 0 22 22" version="1.1" xmlns="http://www.w3.org/2000/svg" xmlns:xlink="http://www.w3.org/1999/xlink">
    <!-- Generator: Sketch 60 (88103) - https://sketch.com -->
    <title>master-pph</title>
    <desc>Created with Sketch.</desc>
    <g id="Revision" stroke="none" stroke-width="1" fill="none" fill-rule="evenodd">
        <g id="master-pph" transform="translate(-1.000000, -1.000000)">
            <g id="Bound">
                <rect id="Rectangle" x="0" y="0" width="24" height="24"></rect>
            </g>
            <path d="M20,1.5 C21.3807119,1.5 22.5,2.61928813 22.5,4 L22.5,4 L22.5,8 C22.5,8.27614237 22.2761424,8.5 22,8.5 L22,8.5 L19,8.5 L19,7.5 L21.5,7.5 L21.5,4 C21.5,3.17157288 20.8284271,2.5 20,2.5 C19.1715729,2.5 18.5,3.17157288 18.5,4 L18.5,4 L18.5,22 C18.5011857,22.2018544 18.3808796,22.3846226 18.1950053,22.4633459 C18.009131,22.5420691 17.7941519,22.501304 17.65,22.36 L17.65,22.36 L16,20.71 L14.36,22.36 C14.2661167,22.4546563 14.1383188,22.5078992 14.005,22.5078992 C13.8716812,22.5078992 13.7438833,22.4546563 13.65,22.36 L13.65,22.36 L12,20.71 L10.36,22.36 C10.2661167,22.4546563 10.1383188,22.5078992 10.005,22.5078992 C9.87168123,22.5078992 9.7438833,22.4546563 9.65,22.36 L9.65,22.36 L8,20.71 L6.35,22.35 C6.20714985,22.4900599 5.99456439,22.5314878 5.80957577,22.455316 C5.62458715,22.3791442 5.50281003,22.2000376 5.5,22 L5.5,22 L5.5,19 L6.5,19 L6.5,20.79 L7.64,19.65 C7.7338833,19.5553437 7.86168123,19.5021008 7.995,19.5021008 C8.12831877,19.5021008 8.2561167,19.5553437 8.35,19.65 L8.35,19.65 L10,21.29 L11.64,19.64 C11.7338833,19.5453437 11.8616812,19.4921008 11.995,19.4921008 C12.1283188,19.4921008 12.2561167,19.5453437 12.35,19.64 L12.35,19.64 L14,21.29 L15.64,19.64 C15.7338833,19.5453437 15.8616812,19.4921008 15.995,19.4921008 C16.1283188,19.4921008 16.2561167,19.5453437 16.35,19.64 L16.35,19.64 L17.5,20.79 L17.5,4 C17.4985446,3.45883929 17.6741393,2.93205533 18,2.5 L18,2.5 L8,2.5 C7.17157288,2.5 6.5,3.17157288 6.5,4 L6.5,4 L6.5,7 L5.5,7 L5.5,4 C5.5,2.61928813 6.61928813,1.5 8,1.5 L8,1.5 Z M12,7.5 C12.2761424,7.5 12.5,7.72385763 12.5,8 L12.5,9 L11.5,9 L11.5,8.5 L2.5,8.5 L2.5,17.5 L11.5,17.5 L11.5,17 L12.5,17 L12.5,18 C12.5,18.2761424 12.2761424,18.5 12,18.5 L2,18.5 C1.72385763,18.5 1.5,18.2761424 1.5,18 L1.5,8 C1.5,7.72385763 1.72385763,7.5 2,7.5 L12,7.5 Z M12,9.5 C13.9329966,9.5 15.5,11.0670034 15.5,13 C15.5,14.9329966 13.9329966,16.5 12,16.5 C10.0670034,16.5 8.5,14.9329966 8.5,13 C8.5,11.0670034 10.0670034,9.5 12,9.5 Z M12,10.5 C10.6192881,10.5 9.5,11.6192881 9.5,13 C9.5,14.3807119 10.6192881,15.5 12,15.5 C13.3807119,15.5 14.5,14.3807119 14.5,13 C14.5,11.6192881 13.3807119,10.5 12,10.5 Z M13.1467767,11.8432233 C13.2347497,11.9311963 13.2446476,12.0704699 13.17,12.17 L11.17,14.17 C11.1258903,14.2177557 11.0649128,14.246451 11,14.25 C10.8968558,14.2527227 10.8026347,14.1917992 10.7627929,14.0966216 C10.7229511,14.001444 10.7456744,13.8915671 10.82,13.82 L12.82,11.82 C12.9195301,11.7453524 13.0588037,11.7552503 13.1467767,11.8432233 Z M13.5,13 C13.7761424,13 14,13.2238576 14,13.5 C14,13.7761424 13.7761424,14 13.5,14 C13.2238576,14 13,13.7761424 13,13.5 C13,13.2238576 13.2238576,13 13.5,13 Z M10.5,12 C10.7761424,12 11,12.2238576 11,12.5 C11,12.7761424 10.7761424,13 10.5,13 C10.2238576,13 10,12.7761424 10,12.5 C10,12.2238576 10.2238576,12 10.5,12 Z M8.5,9.5 L8.5,10.5 L3.5,10.5 L3.5,9.5 L8.5,9.5 Z M16,4.5 L16,5.5 L8,5.5 L8,4.5 L16,4.5 Z" id="Combined-Shape" fill="#ACBADF" fill-rule="nonzero"></path>
        </g>
    </g>
</svg>