<?xml version="1.0" encoding="UTF-8"?>
<svg width="22px" height="22px" viewBox="0 0 22 22" version="1.1" xmlns="http://www.w3.org/2000/svg" xmlns:xlink="http://www.w3.org/1999/xlink">
    <!-- Generator: Sketch 60 (88103) - https://sketch.com -->
    <title>menu</title>
    <desc>Created with Sketch.</desc>
    <g id="Page-1" stroke="none" stroke-width="1" fill="none" fill-rule="evenodd">
        <g id="menu" transform="translate(-1.000000, -1.000000)">
            <rect id="bound" x="0" y="0" width="24" height="24"></rect>
            <path d="M22,6.5 L2,6.5 C1.72385763,6.5 1.5,6.27614237 1.5,6 L1.5,2 C1.5,1.72385763 1.72385763,1.5 2,1.5 L22,1.5 C22.2761424,1.5 22.5,1.72385763 22.5,2 L22.5,6 C22.5,6.27614237 22.2761424,6.5 22,6.5 Z M2.5,5.5 L21.5,5.5 L21.5,2.5 L2.5,2.5 L2.5,5.5 Z" id="Shape" fill="#ACBADF" fill-rule="nonzero"></path>
            <path d="M22,22.5 L2,22.5 C1.72385763,22.5 1.5,22.2761424 1.5,22 L1.5,18 C1.5,17.7238576 1.72385763,17.5 2,17.5 L22,17.5 C22.2761424,17.5 22.5,17.7238576 22.5,18 L22.5,22 C22.5,22.2761424 22.2761424,22.5 22,22.5 Z M2.5,21.5 L21.5,21.5 L21.5,18.5 L2.5,18.5 L2.5,21.5 Z" id="Shape" fill="#ACBADF" fill-rule="nonzero"></path>
            <path d="M22,14.5 L12,14.5 L12,13.5 L21.5,13.5 L21.5,10.5 L12,10.5 L12,9.5 L22,9.5 C22.2761424,9.5 22.5,9.72385763 22.5,10 L22.5,14 C22.5,14.2761424 22.2761424,14.5 22,14.5 Z" id="Path" fill="#ACBADF" fill-rule="nonzero"></path>
            <path d="M12,12.5 L12,11.5 L10.95,11.5 C10.8607349,10.7936613 10.5845642,10.1239473 10.15,9.56 L10.89,8.82 L10.18,8.11 L9.44,8.85 C8.87605268,8.41543581 8.2063387,8.1392651 7.5,8.05 L7.5,7 L6.5,7 L6.5,8.05 C5.7936613,8.1392651 5.12394732,8.41543581 4.56,8.85 L3.82,8.11 L3.11,8.82 L3.85,9.56 C3.41543581,10.1239473 3.1392651,10.7936613 3.05,11.5 L2,11.5 L2,12.5 L3.05,12.5 C3.1392651,13.2063387 3.41543581,13.8760527 3.85,14.44 L3.11,15.18 L3.82,15.89 L4.56,15.15 C5.12394732,15.5845642 5.7936613,15.8607349 6.5,15.95 L6.5,17 L7.5,17 L7.5,15.95 C8.2063387,15.8607349 8.87605268,15.5845642 9.44,15.15 L10.18,15.89 L10.89,15.18 L10.15,14.44 C10.5845642,13.8760527 10.8607349,13.2063387 10.95,12.5 L12,12.5 Z M7,15 C5.34314575,15 4,13.6568542 4,12 C4,10.3431458 5.34314575,9 7,9 C8.65685425,9 10,10.3431458 10,12 C10,12.7956495 9.68392948,13.5587112 9.12132034,14.1213203 C8.55871121,14.6839295 7.79564947,15 7,15 Z" id="Shape" fill="#ACBADF" fill-rule="nonzero"></path>
        </g>
    </g>
</svg>