<?xml version="1.0" encoding="UTF-8"?>
<svg width="20px" height="22px" viewBox="0 0 20 22" version="1.1" xmlns="http://www.w3.org/2000/svg" xmlns:xlink="http://www.w3.org/1999/xlink">
    <!-- Generator: Sketch 60 (88103) - https://sketch.com -->
    <title>npwp</title>
    <desc>Created with Sketch.</desc>
    <g id="Revision" stroke="none" stroke-width="1" fill="none" fill-rule="evenodd">
        <g id="npwp" transform="translate(-2.000000, -1.000000)">
            <g id="Bound">
                <rect id="Rectangle" x="0" y="0" width="24" height="24"></rect>
            </g>
            <path d="M18,1.5 C18.2761424,1.5 18.5,1.72385763 18.5,2 L18.5,2 L18.5,4 L17.5,4 L17.5,2.5 L3.5,2.5 L3.5,20 C3.5,20.8284271 4.17157288,21.5 5,21.5 C5.82842712,21.5 6.5,20.8284271 6.5,20 L6.5,20 L6.5,18 C6.5,17.7238576 6.72385763,17.5 7,17.5 L7,17.5 L17.5,17.5 L17.5,16 L18.5,16 L18.5,17.5 L21,17.5 C21.2761424,17.5 21.5,17.7238576 21.5,18 L21.5,18 L21.5,20 C21.5,21.3807119 20.3807119,22.5 19,22.5 L19,22.5 L5,22.5 C3.61928813,22.5 2.5,21.3807119 2.5,20 L2.5,20 L2.5,2 C2.5,1.72385763 2.72385763,1.5 3,1.5 L3,1.5 Z M20.5,18.5 L7.5,18.5 L7.5,20 C7.50072445,20.5410428 7.32520527,21.0676004 7,21.5 L7,21.5 L19,21.5 C19.8284271,21.5 20.5,20.8284271 20.5,20 L20.5,20 L20.5,18.5 Z M14.982505,6.21720824 C15.7834693,4.85427171 17.3986272,4.19744083 18.9234754,4.61454693 C20.4483237,5.03165303 21.5042804,6.41913903 21.500013,8 C21.4985855,8.91281174 21.1395988,9.78873922 20.5,10.44 L20.5,10.44 L20.5,16 C20.5205823,16.2197938 20.3945882,16.4270745 20.19,16.51 C20.1272488,16.5221439 20.0627512,16.5221439 20,16.51 C19.8681154,16.5081215 19.7423152,16.4542071 19.65,16.36 L19.65,16.36 L18,14.71 L16.35,16.35 C16.2071498,16.4900599 15.9945644,16.5314878 15.8095758,16.455316 C15.6245871,16.3791442 15.50281,16.2000376 15.5,16 L15.5,16 L15.5,10.44 C14.3936296,9.31080366 14.1815407,7.58014477 14.982505,6.21720824 Z M19.5,11.15 C18.5547787,11.6180971 17.4452213,11.6180971 16.5,11.15 L16.5,11.15 L16.5,14.79 L17.64,13.65 C17.7338833,13.5553437 17.8616812,13.5021008 17.995,13.5021008 C18.1283188,13.5021008 18.2561167,13.5553437 18.35,13.65 L18.35,13.65 L19.5,14.79 Z M13,13 L13,14 L5,14 L5,13 L13,13 Z M13,10 L13,11 L5,11 L5,10 L13,10 Z M18,5.5 C16.6192881,5.5 15.5,6.61928813 15.5,8 C15.5,9.38071187 16.6192881,10.5 18,10.5 C19.3807119,10.5 20.5,9.38071187 20.5,8 C20.5,6.61928813 19.3807119,5.5 18,5.5 Z M13,7 L13,8 L5,8 L5,7 L13,7 Z" id="Combined-Shape" fill="#ACBADF" fill-rule="nonzero"></path>
        </g>
    </g>
</svg>