<?xml version="1.0" encoding="UTF-8"?>
<svg width="22px" height="22px" viewBox="0 0 22 22" version="1.1" xmlns="http://www.w3.org/2000/svg" xmlns:xlink="http://www.w3.org/1999/xlink">
    <!-- Generator: Sketch 60 (88103) - https://sketch.com -->
    <title>one-time-supplier</title>
    <desc>Created with Sketch.</desc>
    <g id="Revision" stroke="none" stroke-width="1" fill="none" fill-rule="evenodd">
        <g id="one-time-supplier" transform="translate(-1.000000, -1.000000)">
            <g id="Bound">
                <rect id="Rectangle" x="0" y="0" width="24" height="24"></rect>
            </g>
            <path d="M5.3210914,11.798427 C7.89822042,10.9776853 10.6887237,12.1599016 11.8919148,14.5822026 C13.095106,17.0045035 12.3511012,19.94236 10.14,21.5 L10.14,21.5 L11,21.5 C11.2761424,21.5 11.5,21.7238576 11.5,22 C11.5,22.2761424 11.2761424,22.5000236 11,22.5000236 L11,22.5000236 L9,22.5000236 C8.72385763,22.5000236 8.5,22.2761424 8.5,22 L8.5,22 L8.5,20 C8.5,19.7238576 8.72385763,19.5 9,19.5 C9.27614237,19.5 9.5,19.7238576 9.5,20 L9.5,20 L9.5,20.73 C11.3592024,19.4788299 12.0209359,17.0542948 11.0551418,15.0320925 C10.0893477,13.0098902 7.78766776,12.0006671 5.64595673,12.6603141 C3.5042457,13.3199611 2.16923798,15.449284 2.50855098,17.6644425 C2.84786399,19.8796009 4.75903506,21.5116815 7,21.5 C7.27614237,21.5 7.5,21.7238576 7.5,22 C7.5,22.2761424 7.27614237,22.5000236 7,22.5000236 C4.29534683,22.5078869 1.98943102,20.5413427 1.57023901,17.8693605 C1.15104699,15.1973782 2.74396238,12.6191687 5.3210914,11.798427 Z M18,1.5 C18.2761424,1.5 18.5,1.72385763 18.5,2 L18.5,2 L18.5,20 C18.5,20.8284271 19.1715729,21.5 20,21.5 C20.8284271,21.5 21.5,20.8284271 21.5,20 L21.5,20 L21.5,15.5 L19,15.5 L19,14.5 L22,14.5 C22.2761424,14.5 22.5,14.7238576 22.5,15 L22.5,15 L22.5,20 C22.5,21.3807119 21.3807119,22.5 20,22.5 L20,22.5 L12,22.5 L12,21.5 L18,21.5 C17.6741393,21.0679447 17.4985446,20.5411607 17.5,20 L17.5,20 L17.5,2.5 L5.5,2.5 L5.5,11 L4.5,11.5 L4.5,2 C4.5,1.72385763 4.72385763,1.5 5,1.5 L5,1.5 Z M7,13.5 C7.27614237,13.5 7.5,13.7238576 7.5,14 L7.5,17 C7.49812148,17.1318846 7.44420713,17.2576848 7.35,17.35 L5.35,19.35 C5.25768477,19.4442071 5.13188463,19.4981215 5,19.5 C4.79996242,19.49719 4.6208558,19.3754129 4.54468402,19.1904242 C4.46851223,19.0054356 4.50994014,18.7928502 4.65,18.65 L6.5,16.79 L6.5,14 C6.5,13.7238576 6.72385763,13.5 7,13.5 Z M16,5 L16,6 L7,6 L7,5 L16,5 Z" id="Combined-Shape" fill="#ACBADF" fill-rule="nonzero"></path>
        </g>
    </g>
</svg>