<?xml version="1.0" encoding="UTF-8"?>
<svg width="21px" height="22px" viewBox="0 0 21 22" version="1.1" xmlns="http://www.w3.org/2000/svg" xmlns:xlink="http://www.w3.org/1999/xlink">
    <!-- Generator: Sketch 60 (88103) - https://sketch.com -->
    <title>paid-payment</title>
    <desc>Created with Sketch.</desc>
    <g id="Page-1" stroke="none" stroke-width="1" fill="none" fill-rule="evenodd">
        <g id="paid-payment" transform="translate(-1.000000, -1.000000)">
            <rect id="bound" x="0" y="0" width="24" height="24"></rect>
            <path d="M17.14,1.52 C17.2260553,1.53861004 17.3055066,1.58006291 17.37,1.64 L17.37,1.64 L21.37,5.64 C21.4299371,5.70449337 21.47139,5.78394469 21.49,5.87 L21.49,5.87 L21.49,5.93 C21.4950498,5.95305574 21.4983922,5.97645254 21.5,6 L21.5,6 L21.5,19 C21.5011857,19.2018544 21.3808796,19.3846226 21.1950053,19.4633459 C21.009131,19.5420691 20.7941519,19.501304 20.65,19.36 L20.65,19.36 L19,17.71 L17.36,19.36 C17.2661167,19.4546563 17.1383188,19.5078992 17.005,19.5078992 C16.8716812,19.5078992 16.7438833,19.4546563 16.65,19.36 L16.65,19.36 L15,17.71 L13.36,19.36 C13.2661167,19.4546563 13.1383188,19.5078992 13.005,19.5078992 C12.8716812,19.5078992 12.7438833,19.4546563 12.65,19.36 L12.65,19.36 L11,17.71 L8.5,20.21 L8.5,22 C8.5,22.2761424 8.27614237,22.5 8,22.5 L8,22.5 L2,22.5 C1.72385763,22.5 1.5,22.2761424 1.5,22 L1.5,22 L1.5,14 C1.50187852,13.8681154 1.55579287,13.7423152 1.65,13.65 L1.65,13.65 L5.11,10.2 L5.11,11.6 L2.5,14.21 L2.5,21.5 L7.5,21.5 L7.5,20 C7.50187852,19.8681154 7.55579287,19.7423152 7.65,19.65 L7.65,19.65 L8.3,19 L7.78,18.48 L8.47,17.76 L9,18.29 L10.64,16.64 C10.7338833,16.5453437 10.8616812,16.4921008 10.995,16.4921008 C11.1283188,16.4921008 11.2561167,16.5453437 11.35,16.64 L11.35,16.64 L13,18.29 L14.64,16.64 C14.7338833,16.5453437 14.8616812,16.4921008 14.995,16.4921008 C15.1283188,16.4921008 15.2561167,16.5453437 15.35,16.64 L15.35,16.64 L17,18.29 L18.64,16.64 C18.7338833,16.5453437 18.8616812,16.4921008 18.995,16.4921008 C19.1283188,16.4921008 19.2561167,16.5453437 19.35,16.64 L19.35,16.64 L20.5,17.79 L20.5,6.5 L17,6.5 C16.7238576,6.5 16.5,6.27614237 16.5,6 L16.5,6 L16.5,2.5 L6.5,2.5 L6.5,13.25 L5.5,14.25 L5.5,2.02 C5.5,1.74385763 5.72385763,1.52 6,1.52 L6,1.52 Z M7.6,12.69 C8.21027465,12.0797254 9.19972535,12.0797254 9.81,12.69 C10.4202746,13.3002746 10.4202746,14.2897254 9.81,14.9 L9.81,14.9 L8.5,16.21 L8.5,17 C8.50344042,17.1339087 8.45300565,17.2635981 8.36,17.36 L8.36,17.36 L6.36,19.36 C6.23317072,19.4868293 6.048313,19.5363618 5.87506097,19.489939 C5.70180894,19.4435163 5.5664837,19.3081911 5.52006096,19.134939 C5.47363822,18.961687 5.5231707,18.7768293 5.65,18.65 L5.65,18.65 L7.5,16.79 L7.5,16 C7.50187852,15.8681154 7.55579287,15.7423152 7.65,15.65 L7.65,15.65 L9.16,14.2 C9.34315831,14.0567382 9.4187265,13.8151932 9.3498742,13.593089 C9.2810219,13.3709848 9.08207655,13.214539 8.85,13.2 C8.67036979,13.1705242 8.48762092,13.2301973 8.36,13.36 L8.36,13.36 L5.36,16.36 C5.16393891,16.5560611 4.84606109,16.5560611 4.65000001,16.36 C4.45393893,16.1639389 4.45393893,15.8460611 4.65,15.65 L4.65,15.65 Z M17.5,10 L17.5,10.5 L19,10.5 C19.2761424,10.5 19.5,10.7238576 19.5,11 C19.5,11.2761424 19.2761424,11.5 19,11.5 L19,11.5 L16,11.5 C15.7238576,11.5 15.5,11.7238576 15.5,12 C15.5,12.2761424 15.7238576,12.5 16,12.5 L16,12.5 L18,12.5 C18.8284271,12.5 19.5,13.1715729 19.5,14 C19.5,14.8284271 18.8284271,15.5 18,15.5 L18,15.5 L17.5,15.5 L17.5,16 L16.5,16 L16.5,15.5 L15,15.5 C14.7238576,15.5 14.5,15.2761424 14.5,15 C14.5,14.7238576 14.7238576,14.5 15,14.5 L15,14.5 L18,14.5 C18.2761424,14.5 18.5,14.2761424 18.5,14 C18.5,13.7238576 18.2761424,13.5 18,13.5 L18,13.5 L16,13.5 C15.1715729,13.5 14.5,12.8284271 14.5,12 C14.5,11.1715729 15.1715729,10.5 16,10.5 L16,10.5 L16.5,10.5 L16.5,10 L17.5,10 Z M17.49,3.21 L17.49,5.5 L19.79,5.5 L17.49,3.21 Z M15,4 L15,5 L8,5 L8,4 L15,4 Z" id="Combined-Shape" fill="#ACBADF" fill-rule="nonzero"></path>
        </g>
    </g>
</svg>