<?xml version="1.0" encoding="UTF-8"?>
<svg width="22px" height="22px" viewBox="0 0 22 22" version="1.1" xmlns="http://www.w3.org/2000/svg" xmlns:xlink="http://www.w3.org/1999/xlink">
    <!-- Generator: Sketch 60 (88103) - https://sketch.com -->
    <title>payment-plan</title>
    <desc>Created with Sketch.</desc>
    <g id="Revision" stroke="none" stroke-width="1" fill="none" fill-rule="evenodd">
        <g id="payment-plan" transform="translate(-1.000000, -1.000000)">
            <g id="Bound">
                <rect id="Rectangle" x="0" y="0" width="24" height="24"></rect>
            </g>
            <path d="M17,11.5 C20.0375661,11.5 22.5,13.9624339 22.5,17 C22.4944963,20.0352835 20.0352835,22.4944963 17,22.5 C13.9624339,22.5 11.5,20.0375661 11.5,17 C11.5,13.9624339 13.9624339,11.5 17,11.5 Z M17,12.5 C14.5147186,12.5 12.5,14.5147186 12.5,17 C12.5,19.4852814 14.5147186,21.5 17,21.5 C19.4852814,21.5 21.5,19.4852814 21.5,17 C21.5,14.5147186 19.4852814,12.5 17,12.5 Z M10,1.5 C10.2761424,1.5 10.5,1.72385763 10.5,2 L10.5,2 L10.5,3.5 L18,3.5 C18.1343592,3.49997313 18.2630754,3.55402204 18.3571364,3.64996428 C18.4511975,3.74590653 18.5026872,3.87566769 18.5001001,4.01 L18.5001001,4.01 L18.492041,4.09987563 C18.4496875,4.33312484 18.2454599,4.51 18,4.51 L18,4.51 L17.5,4.51 L17.5,11 L16.5,11 L16.5,4.5 L3.5,4.5 L3.5,16.5 L11,16.5 L11,17.5 L10.5,17.5 L10.5,20.5 L12,20.5 C12.2761424,20.5 12.5,20.7238576 12.5,21 C12.5,21.2761424 12.2761424,21.5 12,21.5 L12,21.5 L8,21.5 C7.72385763,21.5 7.5,21.2761424 7.5,21 C7.5,20.7238576 7.72385763,20.5 8,20.5 L8,20.5 L9.5,20.5 L9.5,17.5 L3,17.5 C2.72385763,17.5 2.5,17.2761424 2.5,17 L2.5,17 L2.5,4.5 L2,4.5 C1.72385763,4.5 1.5,4.27614237 1.5,4 C1.50532011,3.72609155 1.72609155,3.50532011 2,3.5 L2,3.5 L9.5,3.5 L9.5,2 C9.5,1.72385763 9.72385763,1.5 10,1.5 Z M17.5,14 L17.5,14.5 L18.5,14.5 C18.7761424,14.5 19,14.7238576 19,15 C19,15.2761424 18.7761424,15.5 18.5,15.5 L18.5,15.5 L16.5,15.5 C16.2238576,15.5 16,15.7238576 16,16 C16,16.2761424 16.2238576,16.5 16.5,16.5 L16.5,16.5 L17.5,16.5 C18.3284271,16.5 19,17.1715729 19,18 C19,18.8284271 18.3284271,19.5 17.5,19.5 L17.5,19.5 L17.42,19.5 L17.42,20 L16.42,20 L16.42,19.5 L15.5,19.5 C15.2238576,19.5 15,19.2761424 15,19 C15,18.7238576 15.2238576,18.5 15.5,18.5 L15.5,18.5 L17.5,18.5 C17.7761424,18.5 18,18.2761424 18,18 C18,17.7238576 17.7761424,17.5 17.5,17.5 L17.5,17.5 L16.5,17.5 C15.6715729,17.5 15,16.8284271 15,16 C15,15.1715729 15.6715729,14.5 16.5,14.5 L16.5,14.5 L16.5,14 L17.5,14 Z M6,14 L6,15 L5,15 L5,14 L6,14 Z M8,13 L8,15 L7,15 L7,13 L8,13 Z M10,12 L10,15 L9,15 L9,12 L10,12 Z M6,9 L6,10 L5,10 L5,9 L6,9 Z M15,9 L15,10 L7,10 L7,9 L15,9 Z M6,7 L6,8 L5,8 L5,7 L6,7 Z M15,7 L15,8 L7,8 L7,7 L15,7 Z" id="Combined-Shape" fill="#ACBADF" fill-rule="nonzero"></path>
        </g>
    </g>
</svg>