<?xml version="1.0" encoding="UTF-8"?>
<svg width="22px" height="21px" viewBox="0 0 22 21" version="1.1" xmlns="http://www.w3.org/2000/svg" xmlns:xlink="http://www.w3.org/1999/xlink">
    <!-- Generator: Sketch 60 (88103) - https://sketch.com -->
    <title>payment-period</title>
    <desc>Created with Sketch.</desc>
    <g id="Revision" stroke="none" stroke-width="1" fill="none" fill-rule="evenodd">
        <g id="payment-period" transform="translate(-1.000000, -1.000000)">
            <g id="Bound">
                <rect id="Rectangle" x="0" y="0" width="24" height="24"></rect>
            </g>
            <path d="M22,12.5 C22.2761424,12.5 22.5,12.7238576 22.5,13 L22.5,21 C22.5,21.2761424 22.2761424,21.5 22,21.5 L6,21.5 C5.72385763,21.5 5.5,21.2761424 5.5,21 L5.5,13 C5.5,12.7238576 5.72385763,12.5 6,12.5 L22,12.5 Z M21.5,13.5 L6.5,13.5 L6.5,20.5 L21.5,20.5 L21.5,13.5 Z M9,19 L9,20 L7,20 L7,19 L9,19 Z M14.5,14 L14.5,14.5 L15.38,14.5 C15.6561424,14.5 15.88,14.7238576 15.88,15 C15.88,15.2761424 15.6561424,15.5 15.38,15.5 L15.38,15.5 L13.38,15.5 C13.1038576,15.5 12.88,15.7238576 12.88,16 C12.88,16.2761424 13.1038576,16.5 13.38,16.5 L13.38,16.5 L14.38,16.5 L14.38,16.49 C15.2084271,16.4568629 15.9068629,17.1015729 15.94,17.93 C15.973137,18.7584271 15.3284271,19.4568629 14.5,19.49 L14.5,19.49 L14.5,20 L13.5,20 L13.5,19.5 L12.38,19.5 C12.1038576,19.5 11.88,19.2761424 11.88,19 C11.88,18.7238576 12.1038576,18.5 12.38,18.5 L12.38,18.5 L14.38,18.5 C14.6561424,18.5 14.88,18.2761424 14.88,18 C14.88,17.7238576 14.6561424,17.5 14.38,17.5 L14.38,17.5 L13.38,17.5 C12.5515729,17.5 11.88,16.8284271 11.88,16 C11.88,15.1715729 12.5515729,14.5 13.38,14.5 L13.38,14.5 L13.5,14.5 L13.5,14 L14.5,14 Z M16,1.5 C16.2761424,1.5 16.5,1.72385763 16.5,2 L16.5,2 L16.5,2.5 L20,2.5 C20.2761424,2.5 20.5,2.72385763 20.5,3 L20.5,3 L20.5,12 L19.5,12 L19.5,6.5 L2.5,6.5 L2.5,16.5 L5,16.5 L5,17.5 L2,17.5 C1.72385763,17.5 1.5,17.2761424 1.5,17 L1.5,17 L1.5,3 C1.5,2.72385763 1.72385763,2.5 2,2.5 L2,2.5 L5.5,2.5 L5.5,2 C5.5,1.72385763 5.72385763,1.5 6,1.5 C6.27614237,1.5 6.5,1.72385763 6.5,2 L6.5,2 L6.5,2.5 L15.5,2.5 L15.5,2 C15.5,1.72385763 15.7238576,1.5 16,1.5 Z M21,14 L21,15 L19,15 L19,14 L21,14 Z M5.5,3.5 L2.5,3.5 L2.5,5.5 L19.5,5.5 L19.5,3.5 L16.5,3.5 L16.5,4 C16.5,4.27614237 16.2761424,4.5 16,4.5 C15.7238576,4.5 15.5,4.27614237 15.5,4 L15.5,4 L15.5,3.5 L6.5,3.5 L6.5,4 C6.5,4.27614237 6.27614237,4.5 6,4.5 C5.72385763,4.5 5.5,4.27614237 5.5,4 L5.5,4 L5.5,3.5 Z" id="Combined-Shape" fill="#ACBADF" fill-rule="nonzero"></path>
        </g>
    </g>
</svg>