<?xml version="1.0" encoding="UTF-8"?>
<svg width="22px" height="22px" viewBox="0 0 22 22" version="1.1" xmlns="http://www.w3.org/2000/svg" xmlns:xlink="http://www.w3.org/1999/xlink">
    <!-- Generator: Sketch 60 (88103) - https://sketch.com -->
    <title>pph</title>
    <desc>Created with Sketch.</desc>
    <g id="Revision" stroke="none" stroke-width="1" fill="none" fill-rule="evenodd">
        <g id="pph" transform="translate(-1.000000, -1.000000)">
            <g id="Bound">
                <rect id="Rectangle" x="0" y="0" width="24" height="24"></rect>
            </g>
            <path d="M18,12.5 C18.2761424,12.5 18.5,12.7238576 18.5,13 L18.5,22 C18.5,22.2761424 18.2761424,22.5 18,22.5 C17.8681154,22.4981215 17.7423152,22.4442071 17.65,22.35 L16,20.71 L14.35,22.36 C14.2561167,22.4546563 14.1283188,22.5078992 13.995,22.5078992 C13.8616812,22.5078992 13.7338833,22.4546563 13.64,22.36 L12,20.71 L10.35,22.36 C10.2561167,22.4546563 10.1283188,22.5078992 9.995,22.5078992 C9.86168123,22.5078992 9.7338833,22.4546563 9.64,22.36 L8,20.71 L6.35,22.35 C6.20714985,22.4900599 5.99456439,22.5314878 5.80957577,22.455316 C5.62458715,22.3791442 5.50281003,22.2000376 5.5,22 L5.5,16 L6.5,16 L6.5,20.79 L7.65,19.64 C7.7438833,19.5453437 7.87168123,19.4921008 8.005,19.4921008 C8.13831877,19.4921008 8.2661167,19.5453437 8.36,19.64 L10,21.29 L11.65,19.64 C11.7438833,19.5453437 11.8716812,19.4921008 12.005,19.4921008 C12.1383188,19.4921008 12.2661167,19.5453437 12.36,19.64 L14,21.29 L15.65,19.64 C15.7438833,19.5453437 15.8716812,19.4921008 16.005,19.4921008 C16.1383188,19.4921008 16.2661167,19.5453437 16.36,19.64 L17.51,20.79 L17.51,13.5 L16,13.5 L16,12.5 L18,12.5 Z M4,8.5 C5.29533388,8.50015606 6.37601063,9.48969139 6.49,10.78 L6.49,10.78 L7,11.29 L7.5,10.79 L7.5,9 C7.5,8.72385763 7.72385763,8.5 8,8.5 L8,8.5 L13,8.5 C14.3807119,8.5 15.5,9.61928813 15.5,11 C15.5,11.2761424 15.2761424,11.5 15,11.5 L15,11.5 L8.21,11.5 L7.71,12 L8.21,12.5 L15,12.5 C15.2761424,12.5 15.5,12.7238576 15.5,13 C15.5,14.3807119 14.3807119,15.5 13,15.5 L13,15.5 L8,15.5 C7.72385763,15.5 7.5,15.2761424 7.5,15 L7.5,15 L7.5,13.21 L7,12.71 L6.49,13.22 C6.37601063,14.5103086 5.29533388,15.4998439 4,15.5 L4,15.5 L3,15.5 C2.17157288,15.5 1.5,14.8284271 1.5,14 C1.5,13.1715729 2.17157288,12.5 3,12.5 L3,12.5 L5.79,12.5 L6.29,12 L5.79,11.5 L3,11.5 C2.17157288,11.5 1.5,10.8284271 1.5,10 C1.5,9.17157288 2.17157288,8.5 3,8.5 L3,8.5 Z M5.41,13.5 L3,13.5 C2.72385763,13.5 2.5,13.7238576 2.5,14 C2.5,14.2761424 2.72385763,14.5 3,14.5 L3,14.5 L4,14.5 C4.63412746,14.4982178 5.19862585,14.0978643 5.41,13.5 L5.41,13.5 Z M14.41,13.5 L8.5,13.5 L8.5,14.5 L13,14.5 C13.6341275,14.4982178 14.1986258,14.0978643 14.41,13.5 L14.41,13.5 Z M20,1.5 C21.3807119,1.5 22.5,2.61928813 22.5,4 L22.5,4 L22.5,8 C22.5,8.27614237 22.2761424,8.5 22,8.5 L22,8.5 L19,8.5 L19,7.5 L21.5,7.5 L21.5,4 C21.5,3.17157288 20.8284271,2.5 20,2.5 C19.1715729,2.5 18.5,3.17157288 18.5,4 L18.5,4 L18.5,11 C18.5,11.2761424 18.2761424,11.5 18,11.5 L18,11.5 L16,11.5 L16,10.5 L17.5,10.5 L17.5,4 C17.4985446,3.45883929 17.6741393,2.93205533 18,2.5 L18,2.5 L8,2.5 C7.17157288,2.5 6.5,3.17157288 6.5,4 L6.5,4 L6.5,8 L5.5,8 L5.5,4 C5.5,2.61928813 6.61928813,1.5 8,1.5 L8,1.5 Z M13,9.5 L8.5,9.5 L8.5,10.5 L14.41,10.5 C14.1986258,9.90213565 13.6341275,9.50178218 13,9.5 L13,9.5 Z M4,9.5 L3,9.5 C2.72385763,9.5 2.5,9.72385763 2.5,10 C2.5,10.2761424 2.72385763,10.5 3,10.5 L3,10.5 L5.41,10.5 C5.19862585,9.90213565 4.63412746,9.50178218 4,9.5 L4,9.5 Z M16,5 L16,6 L8,6 L8,5 L16,5 Z" id="Combined-Shape" fill="#ACBADF" fill-rule="nonzero"></path>
        </g>
    </g>
</svg>