<?xml version="1.0" encoding="UTF-8"?>
<svg width="22px" height="21px" viewBox="0 0 22 21" version="1.1" xmlns="http://www.w3.org/2000/svg" xmlns:xlink="http://www.w3.org/1999/xlink">
    <!-- Generator: Sketch 60 (88103) - https://sketch.com -->
    <title>ppn</title>
    <desc>Created with Sketch.</desc>
    <g id="Revision" stroke="none" stroke-width="1" fill="none" fill-rule="evenodd">
        <g id="ppn" transform="translate(-1.000000, -2.000000)">
            <rect id="Bound" x="0" y="0" width="24" height="24"></rect>
            <path d="M22.45,11.79 L22.45,11.79 L19.5,5.88 L19.5,4 C19.5,3.72385763 19.2761424,3.5 19,3.5 L13.41,3.5 C13.2588089,3.07534207 12.9246579,2.74119112 12.5,2.59 L12.5,2 L11.5,2 L11.5,2.59 C11.0753421,2.74119112 10.7411911,3.07534207 10.59,3.5 L5,3.5 C4.72385763,3.5 4.5,3.72385763 4.5,4 L4.5,5.88 L1.55,11.78 L1.55,11.78 C1.53482374,11.8491774 1.53482374,11.9208226 1.55,11.99 L1.55,13.99 C1.55,14.2661424 1.77385763,14.49 2.05,14.49 L8,14.49 C8.27614237,14.49 8.5,14.2661424 8.5,13.99 L8.5,12 C8.51517626,11.9308226 8.51517626,11.8591774 8.5,11.79 L8.5,11.79 L5.5,5.88 L5.5,4.5 L10.59,4.5 C10.7411911,4.92465793 11.0753421,5.25880888 11.5,5.41 L11.5,18.5 L11,18.5 C9.06700338,18.5 7.5,20.0670034 7.5,22 C7.5,22.2761424 7.72385763,22.5 8,22.5 L16,22.5 C16.2761424,22.5 16.5,22.2761424 16.5,22 C16.5,21.0717423 16.1312511,20.1815036 15.4748737,19.5251263 C14.8184964,18.8687489 13.9282577,18.5 13,18.5 L12.5,18.5 L12.5,5.41 C12.9246579,5.25880888 13.2588089,4.92465793 13.41,4.5 L18.5,4.5 L18.5,5.88 L15.55,11.77 L15.55,11.77 C15.5348237,11.8391774 15.5348237,11.9108226 15.55,11.98 L15.55,13.98 C15.55,14.2561424 15.7738576,14.48 16.05,14.48 L22.05,14.48 C22.3261424,14.48 22.55,14.2561424 22.55,13.98 L22.55,12 C22.5340045,11.9229885 22.4997049,11.8509594 22.45,11.79 Z M7.5,13.5 L2.5,13.5 L2.5,12.5 L7.5,12.5 L7.5,13.5 Z M7.19,11.5 L2.81,11.5 L5,7.12 L7.19,11.5 Z M15.45,21.4999999 L8.55,21.4999999 C8.78763429,20.3358344 9.81182845,19.4997575 11,19.4999999 L13,19.4999999 C14.1881715,19.4997575 15.2123657,20.3358344 15.45,21.4999999 Z M12,4.5 C11.7238576,4.5 11.5,4.27614237 11.5,4 C11.5,3.72385763 11.7238576,3.5 12,3.5 C12.2761424,3.5 12.5,3.72385763 12.5,4 C12.5,4.27614237 12.2761424,4.5 12,4.5 Z M19,7.12 L21.19,11.5 L16.81,11.5 L19,7.12 Z M21.5,13.5 L16.5,13.5 L16.5,12.5 L21.5,12.5 L21.5,13.5 Z" id="Shape" fill="#ACBADF" fill-rule="nonzero"></path>
        </g>
    </g>
</svg>