<?xml version="1.0" encoding="UTF-8"?>
<svg width="22px" height="22px" viewBox="0 0 22 22" version="1.1" xmlns="http://www.w3.org/2000/svg" xmlns:xlink="http://www.w3.org/1999/xlink">
    <!-- Generator: Sketch 60 (88103) - https://sketch.com -->
    <title>receipt-voucher</title>
    <desc>Created with Sketch.</desc>
    <g id="Revision" stroke="none" stroke-width="1" fill="none" fill-rule="evenodd">
        <g id="receipt-voucher" transform="translate(-1.000000, -1.000000)">
            <g id="Bound">
                <rect id="Rectangle" x="0" y="0" width="24" height="24"></rect>
            </g>
            <path d="M20,1.5 C21.3807119,1.5 22.5,2.61928813 22.5,4 L22.5,4 L22.5,8 C22.5,8.27614237 22.2761424,8.5 22,8.5 L22,8.5 L19,8.5 L19,7.5 L21.5,7.5 L21.5,4 C21.5,3.17157288 20.8284271,2.5 20,2.5 C19.1715729,2.5 18.5,3.17157288 18.5,4 L18.5,4 L18.5009804,22.0816177 C18.4878558,22.269671 18.3690147,22.4374402 18.19,22.51 C18.1272488,22.5221439 18.0627512,22.5221439 18,22.51 C17.8681154,22.5081215 17.7423152,22.4542071 17.65,22.36 L17.65,22.36 L16,20.71 L14.36,22.36 C14.2661167,22.4546563 14.1383188,22.5078992 14.005,22.5078992 C13.8716812,22.5078992 13.7438833,22.4546563 13.65,22.36 L13.65,22.36 L12,20.71 L10.36,22.36 C10.2661167,22.4546563 10.1383188,22.5078992 10.005,22.5078992 C9.87168123,22.5078992 9.7438833,22.4546563 9.65,22.36 L9.65,22.36 L8,20.71 L6.35,22.35 C6.20714985,22.4900599 5.99456439,22.5314878 5.80957577,22.455316 C5.62458715,22.3791442 5.50281003,22.2000376 5.5,22 L5.5,22 L5.5,17 L6.5,17 L6.5,20.79 L7.64,19.65 C7.7338833,19.5553437 7.86168123,19.5021008 7.995,19.5021008 C8.12831877,19.5021008 8.2561167,19.5553437 8.35,19.65 L8.35,19.65 L10,21.29 L11.64,19.64 C11.7338833,19.5453437 11.8616812,19.4921008 11.995,19.4921008 C12.1283188,19.4921008 12.2561167,19.5453437 12.35,19.64 L12.35,19.64 L14,21.29 L15.64,19.64 C15.7338833,19.5453437 15.8616812,19.4921008 15.995,19.4921008 C16.1283188,19.4921008 16.2561167,19.5453437 16.35,19.64 L16.35,19.64 L17.5,20.79 L17.5,4 C17.4985446,3.45883929 17.6741393,2.93205533 18,2.5 L18,2.5 L8,2.5 C7.17157288,2.5 6.5,3.17157288 6.5,4 L6.5,4 L6.5,7 L5.5,7 L5.5,4 C5.5,2.61928813 6.61928813,1.5 8,1.5 L8,1.5 Z M16,7.5 C16.2761424,7.5 16.5,7.72385763 16.5,8 L16.5,8 L16.5,11 C16.5,11.2761424 16.2761424,11.5 16,11.5 C15.7238576,11.5 15.5,11.7238576 15.5,12 C15.5,12.2761424 15.7238576,12.5 16,12.5 C16.2761424,12.5 16.5,12.7238576 16.5,13 L16.5,13 L16.5,16 C16.5,16.2761424 16.2761424,16.5 16,16.5 L16,16.5 L2,16.5 C1.72385763,16.5 1.5,16.2761424 1.5,16 L1.5,16 L1.5,13 C1.5,12.7238576 1.72385763,12.5 2,12.5 C2.27614237,12.5 2.5,12.2761424 2.5,12 C2.5,11.7238576 2.27614237,11.5 2,11.5 C1.72385763,11.5 1.5,11.2761424 1.5,11 L1.5,11 L1.5,8 C1.5,7.72385763 1.72385763,7.5 2,7.5 L2,7.5 Z M15.5,8.5 L2.5,8.5 L2.5,10.58 C3.10047168,10.7912345 3.50222997,11.3584576 3.50222997,11.995 C3.50222997,12.6315424 3.10047168,13.1987655 2.5,13.41 L2.5,13.41 L2.5,15.5 L15.5,15.5 L15.5,13.42 C14.8995283,13.2087655 14.49777,12.6415424 14.49777,12.005 C14.49777,11.3684576 14.8995283,10.8012345 15.5,10.59 L15.5,10.59 L15.5,8.5 Z M12.5,13.5 L12.5,14.5 L11.5,14.5 L11.5,13.5 L12.5,13.5 Z M12.5,11.5 L12.5,12.5 L11.5,12.5 L11.5,11.5 L12.5,11.5 Z M12.5,9.5 L12.5,10.5 L11.5,10.5 L11.5,9.5 L12.5,9.5 Z M16,4.5 L16,5.5 L8,5.5 L8,4.5 L16,4.5 Z" id="Combined-Shape" fill="#ACBADF" fill-rule="nonzero"></path>
        </g>
    </g>
</svg>