<?xml version="1.0" encoding="UTF-8"?>
<svg width="22px" height="22px" viewBox="0 0 22 22" version="1.1" xmlns="http://www.w3.org/2000/svg" xmlns:xlink="http://www.w3.org/1999/xlink">
    <!-- Generator: Sketch 60 (88103) - https://sketch.com -->
    <title>reject-invoice</title>
    <desc>Created with Sketch.</desc>
    <g id="Page-1" stroke="none" stroke-width="1" fill="none" fill-rule="evenodd">
        <g id="reject-invoice" transform="translate(-1.000000, -1.000000)">
            <rect id="bound" x="0" y="0" width="24" height="24"></rect>
            <path d="M18.14,1.52 C18.2260553,1.53861004 18.3055066,1.58006291 18.37,1.64 L18.37,1.64 L22.37,5.64 C22.4299371,5.70449337 22.47139,5.78394469 22.49,5.87 L22.49,5.87 L22.49,5.93 C22.4950498,5.95305574 22.4983922,5.97645254 22.5,6 L22.5,6 L22.5,22 C22.5011857,22.2018544 22.3808796,22.3846226 22.1950053,22.4633459 C22.009131,22.5420691 21.7941519,22.501304 21.65,22.36 L21.65,22.36 L20,20.71 L18.36,22.36 C18.2661167,22.4546563 18.1383188,22.5078992 18.005,22.5078992 C17.8716812,22.5078992 17.7438833,22.4546563 17.65,22.36 L17.65,22.36 L16,20.71 L14.36,22.36 C14.2661167,22.4546563 14.1383188,22.5078992 14.005,22.5078992 C13.8716812,22.5078992 13.7438833,22.4546563 13.65,22.36 L13.65,22.36 L12,20.71 L10.36,22.36 C10.2661167,22.4546563 10.1383188,22.5078992 10.005,22.5078992 C9.87168123,22.5078992 9.7438833,22.4546563 9.65,22.36 L9.65,22.36 L8,20.71 L6.35,22.35 C6.20714985,22.4900599 5.99456439,22.5314878 5.80957577,22.455316 C5.62458715,22.3791442 5.50281003,22.2000376 5.5,22 L5.5,22 L5.5,17 L6.5,17 L6.5,20.79 L7.64,19.65 C7.7338833,19.5553437 7.86168123,19.5021008 7.995,19.5021008 C8.12831877,19.5021008 8.2561167,19.5553437 8.35,19.65 L8.35,19.65 L10,21.29 L11.64,19.64 C11.7338833,19.5453437 11.8616812,19.4921008 11.995,19.4921008 C12.1283188,19.4921008 12.2561167,19.5453437 12.35,19.64 L12.35,19.64 L14,21.29 L15.64,19.64 C15.7338833,19.5453437 15.8616812,19.4921008 15.995,19.4921008 C16.1283188,19.4921008 16.2561167,19.5453437 16.35,19.64 L16.35,19.64 L18,21.29 L19.64,19.64 C19.7338833,19.5453437 19.8616812,19.4921008 19.995,19.4921008 C20.1283188,19.4921008 20.2561167,19.5453437 20.35,19.64 L20.35,19.64 L21.5,20.79 L21.5,6.5 L18,6.5 C17.7238576,6.5 17.5,6.27614237 17.5,6 L17.5,6 L17.5,2.5 L6.5,2.5 L6.5,7 L5.5,7 L5.5,2.02 C5.5,1.74385763 5.72385763,1.52 6,1.52 L6,1.52 Z M17.5,12 L17.5,12.5 L19,12.5 C19.2761424,12.5 19.5,12.7238576 19.5,13 C19.5,13.2761424 19.2761424,13.5 19,13.5 L19,13.5 L16,13.5 C15.7238576,13.5 15.5,13.7238576 15.5,14 C15.5,14.2761424 15.7238576,14.5 16,14.5 L16,14.5 L18,14.5 C18.8284271,14.5 19.5,15.1715729 19.5,16 C19.5,16.8284271 18.8284271,17.5 18,17.5 L18,17.5 L17.5,17.5 L17.5,18 L16.5,18 L16.5,17.5 L15,17.5 C14.7238576,17.5 14.5,17.2761424 14.5,17 C14.5,16.7238576 14.7238576,16.5 15,16.5 L15,16.5 L18,16.5 C18.2761424,16.5 18.5,16.2761424 18.5,16 C18.5,15.7238576 18.2761424,15.5 18,15.5 L18,15.5 L16,15.5 C15.1715729,15.5 14.5,14.8284271 14.5,14 C14.5,13.1715729 15.1715729,12.5 16,12.5 L16,12.5 L16.5,12.5 L16.5,12 L17.5,12 Z M6,7.5 C8.48528137,7.5 10.5,9.51471863 10.5,12 C10.5,13.1934742 10.0258942,14.3380668 9.18198052,15.1819805 C8.33806681,16.0258942 7.1934742,16.5 6,16.5 C3.51471863,16.5 1.5,14.4852814 1.5,12 C1.5,9.51471863 3.51471863,7.5 6,7.5 Z M6,8.5 C4.06700338,8.5 2.5,10.0670034 2.5,12 C2.5,13.9329966 4.06700338,15.5 6,15.5 C7.93299662,15.5 9.5,13.9329966 9.5,12 C9.5,10.0670034 7.93299662,8.5 6,8.5 Z M7.15,10.14 C7.34606109,9.94393891 7.66393891,9.94393891 7.86,10.14 C8.05606109,10.3360611 8.05606109,10.6539389 7.86,10.85 L7.86,10.85 L6.71,12 L7.86,13.14 C7.98682928,13.2668293 8.03636176,13.451687 7.98993902,13.624939 C7.94351628,13.798191 7.80819104,13.9335163 7.63493902,13.979939 C7.46168699,14.0263618 7.27682928,13.9768293 7.15,13.85 L7.15,13.85 L6,12.71 L4.86,13.86 C4.66393891,14.0560611 4.34606109,14.0560611 4.15,13.86 C3.95393891,13.6639389 3.95393891,13.3460611 4.15,13.15 L4.15,13.15 L5.29,12 L4.14,10.86 C4.01317072,10.7331707 3.96363824,10.548313 4.01006098,10.375061 C4.05648372,10.201809 4.19180896,10.0664837 4.36506098,10.020061 C4.53831301,9.97363824 4.72317072,10.0231707 4.85,10.15 L4.85,10.15 L6,11.29 Z M16,5 L16,6 L8,6 L8,5 L16,5 Z M18.49,3.21 L18.49,5.5 L20.79,5.5 L18.49,3.21 Z" id="Combined-Shape" fill="#ACBADF" fill-rule="nonzero"></path>
        </g>
    </g>
</svg>