<?xml version="1.0" encoding="UTF-8"?>
<svg width="22px" height="22px" viewBox="0 0 22 22" version="1.1" xmlns="http://www.w3.org/2000/svg" xmlns:xlink="http://www.w3.org/1999/xlink">
    <!-- Generator: Sketch 60 (88103) - https://sketch.com -->
    <title>role</title>
    <desc>Created with Sketch.</desc>
    <g id="Page-1" stroke="none" stroke-width="1" fill="none" fill-rule="evenodd">
        <g id="role" transform="translate(-1.000000, -1.000000)">
            <rect id="bound" x="0" y="0" width="24" height="24"></rect>
            <path d="M22,4.5 C22.2761424,4.5 22.5,4.72385763 22.5,5 L22.5,5 L22.5,22 C22.5,22.2761424 22.2761424,22.5 22,22.5 L22,22.5 L9,22.5 C8.72385763,22.5 8.5,22.2761424 8.5,22 L8.5,22 L8.5,20 L9.5,20 L9.5,21.5 L21.5,21.5 L21.5,5.5 L20,5.5 L20,4.5 Z M19,1.5 C19.2761424,1.5 19.5,1.72385763 19.5,2 L19.5,2 L19.5,19 C19.5,19.2761424 19.2761424,19.5 19,19.5 L19,19.5 L6,19.5 C5.72385763,19.5 5.5,19.2761424 5.5,19 L5.5,19 L5.5,14 L6.5,14 L6.5,18.5 L18.5,18.5 L18.5,2.5 L6.5,2.5 L6.5,3 L5.5,3 L5.5,2 C5.5,1.72385763 5.72385763,1.5 6,1.5 L6,1.5 Z M12.5,9.5 C13.409425,9.5007999 14.2289473,10.0489852 14.5768609,10.8892295 C14.9247746,11.7294738 14.7326609,12.6965395 14.09,13.34 C15.5496063,13.9722867 16.4958585,15.4093336 16.5,17 C16.5,17.2761424 16.2761424,17.5 16,17.5 L16,17.5 L9,17.5 C8.72385763,17.5 8.5,17.2761424 8.5,17 C8.50414154,15.4093336 9.45039372,13.9722867 10.91,13.34 C10.2673391,12.6965395 10.0752254,11.7294738 10.4231391,10.8892295 C10.7710527,10.0489852 11.590575,9.5007999 12.5,9.5 Z M12.5,13.9882622 C11.0315908,13.9882622 9.77898959,15.0511695 9.54,16.5 L9.54,16.5 L15.46,16.5 C15.2210104,15.0511695 13.9684092,13.9882622 12.5,13.9882622 Z M6.5,4 L6.5,5.05 C7.08761732,5.1276102 7.64544495,5.35487332 8.12,5.71 L8.12,5.71 L8.83,5 L9.51,5.7 L8.8,6.41 L8.94104993,6.61486105 C9.20780857,7.03377912 9.3817969,7.50610426 9.45,8 L9.45,8 L10.5,8 L10.5,9 L9.45,9 C9.36881267,9.57272046 9.14533332,10.1159472 8.8,10.58 L8.8,10.58 L9.51,11.29 L8.8,12 L8.09,11.29 L7.91157849,11.4155902 C7.48686532,11.6949433 7.00499807,11.8777875 6.5,11.95 L6.5,11.95 L6.5,13 L5.5,13 L5.5,11.96 C4.92635436,11.8758533 4.38305092,11.6489038 3.92,11.3 L3.92,11.3 L3.21,12.01 L2.5,11.3 L3.21,10.59 L3.08440975,10.4115785 C2.80505674,9.98686532 2.62221254,9.50499807 2.55,9 L2.55,9 L1.5,9 L1.5,8 L2.55,8 C2.62228043,7.43002585 2.83535786,6.88702208 3.17,6.42 L3.17,6.42 L2.46,5.71 L3.17,5 L3.92,5.7 L4.12358232,5.55952004 C4.53986236,5.29371936 5.00909675,5.11958914 5.5,5.05 L5.5,5.05 L5.5,4 L6.5,4 Z M12.5,10.5 C11.8096441,10.5 11.25,11.0596441 11.25,11.75 C11.25,12.4403559 11.8096441,13 12.5,13 C13.1903559,13 13.75,12.4403559 13.75,11.75 C13.75,11.0596441 13.1903559,10.5 12.5,10.5 Z M6,6 C4.61928813,6 3.5,7.11928813 3.5,8.5 C3.5,9.16304122 3.7633921,9.79892601 4.23223305,10.267767 C4.70107399,10.7366079 5.33695878,11 6,11 C7.38071187,11 8.5,9.88071187 8.5,8.5 C8.5,7.11928813 7.38071187,6 6,6 Z" id="Combined-Shape" fill="#ACBADF" fill-rule="nonzero"></path>
        </g>
    </g>
</svg>