<?xml version="1.0" encoding="UTF-8"?>
<svg width="22px" height="22px" viewBox="0 0 22 22" version="1.1" xmlns="http://www.w3.org/2000/svg" xmlns:xlink="http://www.w3.org/1999/xlink">
    <!-- Generator: Sketch 60 (88103) - https://sketch.com -->
    <title>supplier</title>
    <desc>Created with Sketch.</desc>
    <g id="Revision" stroke="none" stroke-width="1" fill="none" fill-rule="evenodd">
        <g id="supplier" transform="translate(-1.000000, -1.000000)">
            <g id="Bound">
                <rect id="Rectangle" x="0" y="0" width="24" height="24"></rect>
            </g>
            <path d="M18,1.5 C18.2761424,1.5 18.5,1.72385763 18.5,2 L18.5,2 L18.5,20 C18.5,20.8284271 19.1715729,21.5 20,21.5 C20.8284271,21.5 21.5,20.8284271 21.5,20 L21.5,20 L21.5,15.5 L19,15.5 L19,14.5 L22,14.5 C22.2761424,14.5 22.5,14.7238576 22.5,15 L22.5,15 L22.5,20 C22.5,21.3807119 21.3807119,22.5 20,22.5 L20,22.5 L16,22.5 L16,21.5 L18,21.5 C17.6741393,21.0679447 17.4985446,20.5411607 17.5,20 L17.5,20 L17.5,2.5 L5.5,2.5 L5.5,8 L4.5,8 L4.5,2 C4.5,1.72385763 4.72385763,1.5 5,1.5 L5,1.5 Z M15,8.5 C15.2761424,8.5 15.5,8.72385763 15.5,9 L15.5,9 L15.5,22 C15.5,22.2761424 15.2761424,22.5 15,22.5 L15,22.5 L2,22.5 C1.72385763,22.5 1.5,22.2761424 1.5,22 L1.5,22 L1.5,9 C1.5,8.72385763 1.72385763,8.5 2,8.5 L2,8.5 Z M5.5,9.5 L2.5,9.5 L2.5,21.5 L14.5,21.5 L14.5,9.5 L11.5,9.5 L11.5,15 C11.4991716,15.1662924 11.4157216,15.3212909 11.2773563,15.4135345 C11.138991,15.505778 10.9638192,15.5231939 10.81,15.46 L10.81,15.46 L8.5,14.53 L6.19,15.46 C6.03460003,15.5213179 5.85902154,15.5026393 5.72,15.41 C5.58366981,15.3178595 5.50140147,15.1645413 5.5,15 L5.5,15 L5.5,9.5 Z M11,17 L11,18 L6,18 L6,17 L11,17 Z M10.5,9.5 L6.51,9.5 L6.51,14.26 L8.32,13.53 C8.43879595,13.4826878 8.57120405,13.4826878 8.69,13.53 L8.69,13.53 L10.5,14.26 L10.5,9.5 Z M16,5 L16,6 L7,6 L7,5 L16,5 Z" id="Combined-Shape" fill="#ACBADF" fill-rule="nonzero"></path>
        </g>
    </g>
</svg>