<?xml version="1.0" encoding="UTF-8"?>
<svg width="22px" height="23px" viewBox="0 0 22 23" version="1.1" xmlns="http://www.w3.org/2000/svg" xmlns:xlink="http://www.w3.org/1999/xlink">
    <!-- Generator: Sketch 60 (88103) - https://sketch.com -->
    <title>tax-period</title>
    <desc>Created with Sketch.</desc>
    <g id="Revision" stroke="none" stroke-width="1" fill="none" fill-rule="evenodd">
        <g id="tax-period" transform="translate(-1.000000, 0.000000)">
            <g id="Bound">
                <rect id="Rectangle" x="0" y="0" width="24" height="24"></rect>
            </g>
            <path d="M15,11.5 L15,12.5 L11.5,12.5 L11.5,21.5 L18.5,21.5 L18.5,16 L19.5,16 L19.5,22 C19.5,22.2761424 19.2761424,22.5 19,22.5 L11,22.5 C10.7238576,22.5 10.5,22.2761424 10.5,22 L10.5,12 C10.5,11.7238576 10.7238576,11.5 11,11.5 L15,11.5 Z M17.5,19.5 L17.5,20.5 L12.5,20.5 L12.5,19.5 L17.5,19.5 Z M16,0.5 C16.2761424,0.5 16.5,0.723857625 16.5,1 L16.5,1 L16.5,1.5 L20,1.5 C20.2761424,1.5 20.5,1.72385763 20.5,2 L20.5,2 L20.5,8 L19.5,8 L19.5,5.5 L2.5,5.5 L2.5,15.5 L10,15.5 L10,16.5 L2,16.5 C1.72385763,16.5 1.5,16.2761424 1.5,16 L1.5,16 L1.5,2 C1.5,1.72385763 1.72385763,1.5 2,1.5 L2,1.5 L5.5,1.5 L5.5,1 C5.5,0.723857625 5.72385763,0.5 6,0.5 C6.27614237,0.5 6.5,0.723857625 6.5,1 L6.5,1 L6.5,1.5 L15.5,1.5 L15.5,1 C15.5,0.723857625 15.7238576,0.5 16,0.5 Z M19,8.5 C20.9329966,8.5 22.5,10.0670034 22.5,12 C22.5,13.9329966 20.9329966,15.5 19,15.5 C17.0670034,15.5 15.5,13.9329966 15.5,12 C15.5,10.0670034 17.0670034,8.5 19,8.5 Z M19,9.5 C17.9888444,9.5 17.0772537,10.1091054 16.6903012,11.0432914 C16.3033487,11.9774774 16.5172381,13.052772 17.232233,13.767767 C17.947228,14.4827619 19.0225226,14.6966513 19.9567086,14.3096988 C20.8908946,13.9227463 21.5,13.0111556 21.5,12 C21.5,10.6192881 20.3807119,9.5 19,9.5 Z M20.0732148,10.7257293 C20.1687941,10.7465514 20.2434486,10.8212059 20.2642707,10.9167852 C20.2850928,11.0123644 20.2482568,11.1113074 20.17,11.17 L18.17,13.17 C18.1258903,13.2177557 18.0649128,13.246451 18,13.25 C17.8968558,13.2527227 17.8026347,13.1917992 17.7627929,13.0966216 C17.7229511,13.001444 17.7456744,12.8915671 17.82,12.82 L19.82,10.82 C19.8786926,10.7417432 19.9776356,10.7049072 20.0732148,10.7257293 Z M20.5,12 C20.7761424,12 21,12.2238576 21,12.5 C21,12.7761424 20.7761424,13 20.5,13 C20.2238576,13 20,12.7761424 20,12.5 C20,12.2238576 20.2238576,12 20.5,12 Z M17.5,11 C17.7761424,11 18,11.2238576 18,11.5 C18,11.7761424 17.7761424,12 17.5,12 C17.2238576,12 17,11.7761424 17,11.5 C17,11.2238576 17.2238576,11 17.5,11 Z M5.5,2.5 L2.5,2.5 L2.5,4.5 L19.5,4.5 L19.5,2.5 L16.5,2.5 L16.5,3 C16.5,3.27614237 16.2761424,3.5 16,3.5 C15.7238576,3.5 15.5,3.27614237 15.5,3 L15.5,3 L15.5,2.5 L6.5,2.5 L6.5,3 C6.5,3.27614237 6.27614237,3.5 6,3.5 C5.72385763,3.5 5.5,3.27614237 5.5,3 L5.5,3 L5.5,2.5 Z" id="Combined-Shape" fill="#ACBADF" fill-rule="nonzero"></path>
        </g>
    </g>
</svg>