<?xml version="1.0" encoding="UTF-8"?>
<svg width="22px" height="22px" viewBox="0 0 22 22" version="1.1" xmlns="http://www.w3.org/2000/svg" xmlns:xlink="http://www.w3.org/1999/xlink">
    <!-- Generator: Sketch 60 (88103) - https://sketch.com -->
    <title>tax-approval</title>
    <desc>Created with Sketch.</desc>
    <g id="Revision" stroke="none" stroke-width="1" fill="none" fill-rule="evenodd">
        <g id="tax-approval" transform="translate(-1.000000, -1.000000)">
            <g id="Bound">
                <rect id="Rectangle" x="0" y="0" width="24" height="24"></rect>
            </g>
            <path d="M17,1.5 C17.2761424,1.5 17.5,1.72385763 17.5,2 L17.5,2 L17.5,4 L16.5,4 L16.5,2.5 L2.5,2.5 L2.5,20 C2.5,20.8284271 3.17157288,21.5 4,21.5 C4.82842712,21.5 5.5,20.8284271 5.5,20 L5.5,20 L5.5,18 C5.5,17.7238576 5.72385763,17.5 6,17.5 L6,17.5 L16.5,17.5 L16.5,16 L17.5,16 L17.5,17.5 L20,17.5 C20.2761424,17.5 20.5,17.7238576 20.5,18 L20.5,18 L20.5,20 C20.5,20.6630412 20.2366079,21.298926 19.767767,21.767767 C19.298926,22.2366079 18.6630412,22.5 18,22.5 L18,22.5 L4,22.5 C2.61928813,22.5 1.5,21.3807119 1.5,20 L1.5,20 L1.5,2 C1.5,1.72385763 1.72385763,1.5 2,1.5 L2,1.5 Z M19.5,18.5 L6.5,18.5 L6.5,20 C6.50072445,20.5410428 6.32520527,21.0676004 6,21.5 L6,21.5 L18,21.5 C18.8284271,21.5 19.5,20.8284271 19.5,20 L19.5,20 L19.5,18.5 Z M17,4.5 C20.0375661,4.5 22.5,6.96243388 22.5,10 C22.4944963,13.0352835 20.0352835,15.4944963 17,15.5 C13.9624339,15.5 11.5,13.0375661 11.5,10 C11.5,6.96243388 13.9624339,4.5 17,4.5 Z M17,5.5 C14.5147186,5.5 12.5,7.51471863 12.5,10 C12.5,12.4852814 14.5147186,14.5 17,14.5 C19.4852814,14.5 21.5,12.4852814 21.5,10 C21.5,7.51471863 19.4852814,5.5 17,5.5 Z M10,13 L10,14 L4,14 L4,13 L10,13 Z M19.0598076,7.90358984 C19.2371579,7.92495704 19.389637,8.0393164 19.4598076,8.20358984 C19.5299782,8.36786328 19.5071797,8.55709376 19.4,8.7 L17,11.8999923 C16.9120677,12.0178206 16.7767388,12.0909714 16.63,12.1 L16.6,12.1 C16.4681154,12.0981215 16.3423152,12.0442071 16.25,11.95 L14.65,10.35 C14.4539389,10.1539389 14.4539389,9.83606109 14.65,9.64000001 C14.8460611,9.44393893 15.1639389,9.44393893 15.36,9.64 L16.55,10.83 L18.6,8.1 C18.7071797,7.95709376 18.8824574,7.88222263 19.0598076,7.90358984 Z M10,10 L10,11 L4,11 L4,10 L10,10 Z" id="Combined-Shape" fill="#ACBADF" fill-rule="nonzero"></path>
        </g>
    </g>
</svg>