<?xml version="1.0" encoding="UTF-8"?>
<svg width="22px" height="21px" viewBox="0 0 22 21" version="1.1" xmlns="http://www.w3.org/2000/svg" xmlns:xlink="http://www.w3.org/1999/xlink">
    <!-- Generator: Sketch 60 (88103) - https://sketch.com -->
    <title>twm-problem</title>
    <desc>Created with Sketch.</desc>
    <g id="Revision" stroke="none" stroke-width="1" fill="none" fill-rule="evenodd">
        <g id="twm-problem" transform="translate(-1.000000, -1.000000)">
            <g id="Bound">
                <rect id="Rectangle" x="0" y="0" width="24" height="24"></rect>
            </g>
            <path d="M18,13 L18,14.05 C18.5876173,14.1276102 19.145445,14.3548733 19.62,14.71 L19.62,14.71 L20.33,14 L21.01,14.7 L20.3,15.41 L20.4410499,15.6148611 C20.7078086,16.0337791 20.8817969,16.5061043 20.95,17 L20.95,17 L22,17 L22,18 L20.95,18 C20.8688127,18.5727205 20.6453333,19.1159472 20.3,19.58 L20.3,19.58 L21.01,20.29 L20.3,21 L19.59,20.29 L19.4115785,20.4155902 C18.9868653,20.6949433 18.5049981,20.8777875 18,20.95 L18,20.95 L18,22 L17,22 L17,20.96 C16.4263544,20.8758533 15.8830509,20.6489038 15.42,20.3 L15.42,20.3 L14.71,21.01 L14,20.3 L14.71,19.59 L14.5844098,19.4115785 C14.3050567,18.9868653 14.1222125,18.5049981 14.05,18 L14.05,18 L13,18 L13,17 L14.05,17 C14.1222804,16.4300259 14.3353579,15.8870221 14.67,15.42 L14.67,15.42 L13.96,14.71 L14.67,14 L15.42,14.7 L15.6235823,14.55952 C16.0398624,14.2937194 16.5090968,14.1195891 17,14.05 L17,14.05 L17,13 L18,13 Z M16,1.5 C16.2761424,1.5 16.5,1.72385763 16.5,2 L16.5,5 L15.5,6 L15.5,2.5 L2.5,2.5 L2.5,16.5 L7,16.5 C7.19119755,16.4996174 7.36587329,16.6083045 7.45,16.78 L9,19.88 L10.55,16.77 C10.6369198,16.6021888 10.8110279,16.4977239 11,16.5 L12,16.5 L12,17.5 L11.31,17.5 L9.45,21.22 C9.36587329,21.3916955 9.19119755,21.5003826 9,21.5 C8.80880245,21.5003826 8.63412671,21.3916955 8.55,21.22 L6.69,17.5 L2,17.5 C1.72385763,17.5 1.5,17.2761424 1.5,17 L1.5,2 C1.5,1.72385763 1.72385763,1.5 2,1.5 L16,1.5 Z M17.5,15 C16.1192881,15 15,16.1192881 15,17.5 C15,18.8807119 16.1192881,20 17.5,20 C18.8807119,20 20,18.8807119 20,17.5 C20,16.1192881 18.8807119,15 17.5,15 Z M13,13 L13,14 L4,14 L4,13 L13,13 Z M16.5,10 L16.5,13.5 L15.5,13.5 L15.5,11 L16.5,10 Z M20.495,1.59210084 C20.6283188,1.59210084 20.7561167,1.64534367 20.85,1.74 L22.26,3.15 C22.3546563,3.2438833 22.4078992,3.37168123 22.4078992,3.505 C22.4078992,3.63831877 22.3546563,3.7661167 22.26,3.86 L14.48,11.64 C14.4237255,11.6952073 14.3551944,11.7363259 14.28,11.76 L12.16,12.47 L12,12.5 C11.8395825,12.4988116 11.6894768,12.4207231 11.5964209,12.2900488 C11.5033649,12.1593745 11.4786606,11.9919851 11.53,11.84 L12.24,9.72 C12.2636741,9.64480556 12.3047927,9.57627449 12.36,9.52 L20.14,1.74 C20.2338833,1.64534367 20.3616812,1.59210084 20.495,1.59210084 Z M20.48,2.81 L13.14,10.15 L12.79,11.21 L13.85,10.86 L21.19,3.52 L20.48,2.81 Z M10,9.5 L10,10.5 L4,10.5 L4,9.5 L10,9.5 Z" id="Combined-Shape" fill="#ACBADF" fill-rule="nonzero"></path>
        </g>
    </g>
</svg>