<?xml version="1.0" encoding="UTF-8"?>
<svg width="22px" height="22px" viewBox="0 0 22 22" version="1.1" xmlns="http://www.w3.org/2000/svg" xmlns:xlink="http://www.w3.org/1999/xlink">
    <!-- Generator: Sketch 60 (88103) - https://sketch.com -->
    <title>twm-akses</title>
    <desc>Created with Sketch.</desc>
    <g id="Revision" stroke="none" stroke-width="1" fill="none" fill-rule="evenodd">
        <g id="twm-akses" transform="translate(-1.000000, -1.000000)">
            <g id="Bound">
                <rect id="Rectangle" x="0" y="0" width="24" height="24"></rect>
            </g>
            <path d="M17,8.50771868 C18.5292479,8.50771868 19.881442,9.50055078 20.339385,10.9596215 C20.797328,12.4186922 20.2549801,14.0061441 19,14.88 C21.1094197,15.7034326 22.498569,17.7355595 22.5,20 L22.5,20 L22.5,22 C22.5,22.2761424 22.2761424,22.5 22,22.5 L22,22.5 L12,22.5 C11.7238576,22.5 11.5,22.2761424 11.5,22 L11.5,22 L11.5,20 C11.501431,17.7355595 12.8905803,15.7034326 15,14.88 C13.7450199,14.0061441 13.202672,12.4186922 13.660615,10.9596215 C14.118558,9.50055078 15.4707521,8.50771868 17,8.50771868 Z M17,15.5 C14.5147186,15.5 12.5,17.5147186 12.5,20 L12.5,20 L12.5,21.5 L21.5,21.5 L21.5,20 C21.5,17.5147186 19.4852814,15.5 17,15.5 Z M17,1.5 C17.2761424,1.5 17.5,1.72385763 17.5,2 L17.5,8 L16.5,8 L16.5,2.5 L2.5,2.5 L2.5,11.5 L7,11.5 C7.16807981,11.4980732 7.32588017,11.5807305 7.42,11.72 L9,14.1 L10.58,11.72 C10.6741198,11.5807305 10.8319202,11.4980732 11,11.5 L13,11.5 L13,12.5 L11.27,12.5 L9.42,15.28 C9.32588017,15.4192695 9.16807981,15.5019268 9,15.500033 C8.83192019,15.5019268 8.67411983,15.4192695 8.58,15.28 L6.73,12.5 L2,12.5 C1.72385763,12.5 1.5,12.2761424 1.5,12 L1.5,2 C1.5,1.72385763 1.72385763,1.5 2,1.5 L17,1.5 Z M17,9.5 C15.6192881,9.5 14.5,10.6192881 14.5,12 C14.5,13.3807119 15.6192881,14.5 17,14.5 C18.3807119,14.5 19.5,13.3807119 19.5,12 C19.5,10.6192881 18.3807119,9.5 17,9.5 Z M15,7.5 L15,8.5 L4,8.5 L4,7.5 L15,7.5 Z M15,4.5 L15,5.5 L4,5.5 L4,4.5 L15,4.5 Z" id="Combined-Shape" fill="#ACBADF" fill-rule="nonzero"></path>
        </g>
    </g>
</svg>