<?xml version="1.0" encoding="UTF-8"?>
<svg width="22px" height="20px" viewBox="0 0 22 20" version="1.1" xmlns="http://www.w3.org/2000/svg" xmlns:xlink="http://www.w3.org/1999/xlink">
    <!-- Generator: Sketch 60 (88103) - https://sketch.com -->
    <title>twm</title>
    <desc>Created with Sketch.</desc>
    <g id="Revision" stroke="none" stroke-width="1" fill="none" fill-rule="evenodd">
        <g id="twm" transform="translate(-1.000000, -2.000000)">
            <g id="Bound">
                <rect id="Rectangle" x="0" y="0" width="24" height="24"></rect>
            </g>
            <path d="M16,2.5 C16.2761424,2.5 16.5,2.72385763 16.5,3 L16.5,6 L15.5,7 L15.5,3.5 L2.5,3.5 L2.5,17.5 L7,17.5 C7.16807981,17.4980732 7.32588017,17.5807305 7.42,17.72 L9,20.1 L10.58,17.72 C10.6741198,17.5807305 10.8319202,17.4980732 11,17.5 L15.5,17.5 L15.5,12 L16.5,11 L16.5,18 C16.5,18.2761424 16.2761424,18.5 16,18.5 L11.32,18.5 L9.47,21.28 C9.36663142,21.4352578 9.18543777,21.5200718 9,21.5 C8.83192019,21.5019268 8.67411983,21.4192695 8.58,21.28 L6.78,18.5 L2,18.5 C1.72385763,18.5 1.5,18.2761424 1.5,18 L1.5,3 C1.5,2.72385763 1.72385763,2.5 2,2.5 L16,2.5 Z M14.05,14 L14.05,15 L4.05,15 L4.05,14 L14.05,14 Z M20.495,2.59210084 C20.6283188,2.59210084 20.7561167,2.64534367 20.85,2.74 L22.3,4.16 C22.3946563,4.2538833 22.4478992,4.38168123 22.4478992,4.515 C22.4478992,4.64831877 22.3946563,4.7761167 22.3,4.87 L14.52,12.65 C14.4637255,12.7052073 14.3951944,12.7463259 14.32,12.77 L12.2,13.48 L12,13.5 C11.8395825,13.4988116 11.6894768,13.4207231 11.5964209,13.2900488 C11.5033649,13.1593745 11.4786606,12.9919851 11.53,12.84 L12.24,10.72 C12.2636741,10.6448056 12.3047927,10.5762745 12.36,10.52 L20.14,2.74 C20.2338833,2.64534367 20.3616812,2.59210084 20.495,2.59210084 Z M20.48,3.81 L13.14,11.15 L12.79,12.21 L13.85,11.86 L21.19,4.52 L20.48,3.81 Z M10.05,10.5 L10.05,11.5 L4.05,11.5 L4.05,10.5 L10.05,10.5 Z" id="Combined-Shape" fill="#ACBADF" fill-rule="nonzero"></path>
        </g>
    </g>
</svg>