<?xml version="1.0" encoding="UTF-8"?>
<svg width="22px" height="22px" viewBox="0 0 22 22" version="1.1" xmlns="http://www.w3.org/2000/svg" xmlns:xlink="http://www.w3.org/1999/xlink">
    <!-- Generator: Sketch 60 (88103) - https://sketch.com -->
    <title>user</title>
    <desc>Created with Sketch.</desc>
    <g id="Page-1" stroke="none" stroke-width="1" fill="none" fill-rule="evenodd">
        <g id="user" transform="translate(-1.000000, -1.000000)">
            <rect id="bound" x="0" y="0" width="24" height="24"></rect>
            <path d="M12.005,1.49603726 C14.5252276,1.49603726 16.7229985,3.208949 17.3384696,5.65286845 C17.9539407,8.09678789 16.8296161,10.6463286 14.61,11.84 C19.2474784,13.0337394 22.4917069,17.2113519 22.5,22 C22.5,22.2761424 22.2761424,22.5 22,22.5 L22,22.5 L2,22.5 C1.72385763,22.5 1.5,22.2761424 1.5,22 C1.50946977,17.2084653 4.75855236,13.0298983 9.4,11.84 C7.18038393,10.6463286 6.05605934,8.09678789 6.67153044,5.65286845 C7.28700154,3.208949 9.48477244,1.49603726 12.005,1.49603726 Z M14.24,12.78 L13.45,15.15 C13.3818064,15.3519188 13.1931175,15.4884172 12.98,15.49 L12.98,15.49 L10.98,15.49 C10.7668825,15.4884172 10.5781936,15.3519188 10.51,15.15 L10.51,15.15 L9.72,12.78 C5.65691663,13.781567 2.72600074,17.321399 2.5,21.5 L2.5,21.5 L21.46,21.5 C21.2339993,17.321399 18.3030834,13.781567 14.24,12.78 L14.24,12.78 Z M12,12.5 C11.5717915,12.5010874 11.1441475,12.5311561 10.72,12.59 L10.72,12.59 L11.36,14.49 L12.64,14.49 L13.28,12.59 L13.27,12.6 C12.8493844,12.5382582 12.4250953,12.5048496 12,12.5 Z M12,2.5 C9.51471863,2.5 7.5,4.51471863 7.5,7 C7.5,9.48528137 9.51471863,11.5 12,11.5 C14.4852814,11.5 16.5,9.48528137 16.5,7 C16.5,4.51471863 14.4852814,2.5 12,2.5 Z M12.54,3.5 L12.54,4.55 L12.8,4.63 L13,4.69 L13.19,4.84 L13.38,4.94 L14.12,4.2 L14.83,4.91 L14.09,5.65 C14.13,5.71 14.19,5.78 14.19,5.84 C14.2343365,5.91775727 14.2743961,5.99787642 14.31,6.08 C14.37,6.15 14.37,6.21 14.37,6.28 C14.4014808,6.36511158 14.428189,6.45191311 14.45,6.54 L14.45,6.54 L15.5,6.54 L15.5,7.54 L14.45,7.54 C14.428189,7.62808689 14.4014808,7.71488842 14.37,7.8 C14.31,7.87 14.31,7.94 14.31,8 C14.2857472,8.06104399 14.2590591,8.12109212 14.23,8.18 C14.2,8.24 14.13,8.31 14.13,8.37 L14.13,8.37 L14.87,9.11 L14.16,9.82 L13.42,9.08 L13.22,9.19 L13,9.31 L12.73,9.38 L12.5,9.45 L12.5,10.5 L11.49,10.5 L11.49,9.43 L11.26,9.36 L11.04,9.29 L10.82,9.17 L10.62,9.06 L9.88,9.8 L9.17,9.09 L9.91,8.35 C9.87,8.29 9.81,8.22 9.81,8.16 C9.76569826,8.08222414 9.72563965,8.0021069 9.69,7.92 C9.63,7.85 9.63,7.79 9.63,7.72 C9.59849944,7.63489511 9.57179094,7.54809247 9.55,7.46 L9.55,7.46 L8.5,7.46 L8.5,6.46 L9.55,6.46 C9.57179094,6.37190753 9.59849944,6.28510489 9.63,6.2 C9.69,6.13 9.69,6.06 9.69,6 C9.73687734,5.93426271 9.78693696,5.87085385 9.84,5.81 C9.87,5.74 9.94,5.68 9.94,5.62 L9.94,5.62 L9.2,4.88 L9.91,4.17 L10.65,4.91 L10.84,4.81 L11.08,4.69 L11.28,4.63 L11.54,4.55 L11.54,3.5 L12.54,3.5 Z M12.3964828,5.6177052 C12.0853392,5.53054721 11.7524421,5.54797881 11.45,5.67 L11.45,5.67 L11.3160526,5.7314845 C11.1854693,5.79943582 11.06543,5.88649258 10.96,5.99 L10.96,5.99 L10.8620745,6.1001492 C10.7698291,6.21486702 10.6949194,6.342839 10.64,6.48 L10.64,6.48 L10.5888303,6.63367158 C10.5035475,6.94494885 10.5206041,7.2770538 10.64,7.58 L10.64,7.58 L10.7014845,7.71394743 C10.7694358,7.84453074 10.8564926,7.96456998 10.96,8.07 L10.96,8.07 L11.0701492,8.16792554 C11.184867,8.26017088 11.312839,8.33508063 11.45,8.39 L11.45,8.39 L11.6037208,8.44080571 C11.9150407,8.5254819 12.2468931,8.50854667 12.55,8.39 L12.55,8.39 L12.6839474,8.3285155 C12.8145307,8.26056418 12.93457,8.17350742 13.04,8.07 L13.04,8.07 L13.1379255,7.9598508 C13.2301709,7.84513298 13.3050806,7.717161 13.36,7.58 L13.36,7.58 L13.4111697,7.42632842 C13.4964525,7.11505115 13.4793959,6.7829462 13.36,6.48 L13.36,6.48 L13.2985155,6.34605257 C13.2305642,6.21546926 13.1435074,6.09543002 13.04,5.99 L13.04,5.99 L12.9298508,5.89207446 C12.815133,5.79982912 12.687161,5.72491937 12.55,5.67 L12.55,5.67 Z" id="Combined-Shape" fill="#ACBADF" fill-rule="nonzero"></path>
        </g>
    </g>
</svg>