<?xml version="1.0" encoding="UTF-8"?>
<svg width="206px" height="148px" viewBox="0 0 206 148" version="1.1" xmlns="http://www.w3.org/2000/svg" xmlns:xlink="http://www.w3.org/1999/xlink">
    <!-- Generator: sketchtool 57.1 (101010) - https://sketch.com -->
    <title>2AFA963E-56C3-4886-849D-AB14994DA47A</title>
    <desc>Created with sketchtool.</desc>
    <g id="👷-Suplier" stroke="none" stroke-width="1" fill="none" fill-rule="evenodd">
        <g id="For-Suplier---Home---Dashboard-" transform="translate(-1094.000000, -209.000000)">
            <g id="Group-3" transform="translate(536.000000, 209.000000)">
                <g id="Asset-Dashboard" transform="translate(558.000000, -45.000000)">
                    <path d="M171.157807,287 C252.808796,287 319,227.433902 319,153.955397 C319,80.4768916 213.019934,-40.5759551 139.363787,13.4899793 C65.7076412,67.5559136 0,88.7582408 0,140.703942 C0,192.649644 89.5068189,287 171.157807,287 Z" id="Oval" fill="#7488BD"></path>
                    <path d="M198.157807,287 C279.808796,287 346,227.433902 346,153.955397 C346,80.4768916 240.019934,-40.5759551 166.363787,13.4899793 C92.7076412,67.5559136 27,88.7582408 27,140.703942 C27,192.649644 116.506819,287 198.157807,287 Z" id="Oval-Copy" fill="#253B78"></path>
                    <g id="Asset-1" transform="translate(80.000000, 74.000000)" fill-rule="nonzero">
                        <polygon id="Path" fill="#FFE473" points="0 84.3880049 14.8747156 76 24 81.6138991 9.12284693 90"></polygon>
                        <polygon id="Path" fill="#68574C" points="4 83.5905816 15.7753728 77 23 81.4112835 11.2222222 88"></polygon>
                        <polygon id="Path" fill="#3F2720" points="8 56.9815133 20 50 20 61.0149997 8.71331213 68"></polygon>
                        <path d="M156.993777,107.574668 C156.890349,111.534712 155.57147,114.507443 153.450562,116.264171 C150.628727,118.601416 141.872956,124.946158 137.189608,122.413127 C128.980057,117.975709 119.768503,100.590104 120.00444,91.3652253 C120.098417,87.6753507 128.596684,83.916344 131.953156,82.0311799 C134.718673,80.4799218 138.470828,80.624449 142.55973,82.836148 C150.767633,87.2712046 157.228986,98.347862 156.993777,107.574668 Z" id="Path" fill="#49302E"></path>
                        <path d="M148,113.813646 C148,122.938311 141.507309,126.613238 133.49961,122.023049 C125.491912,117.432859 119,106.310868 119,97.1862027 C119,88.0615374 125.491912,84.3861746 133.49961,88.9777666 C141.507309,93.5675208 148,104.687578 148,113.813646 Z" id="Path" fill="#331F1E"></path>
                        <polygon id="Path" fill="#994629" points="87 100 119 107.209039 104.698821 130 97.3964421 125.811883"></polygon>
                        <polygon id="Path" fill="#3F2720" points="114.306375 113.405192 142 98 132.692141 115.593847 105 131"></polygon>
                        <polygon id="Path" fill="#68574C" points="116 121.521409 126 116 126 120.477252 116 126"></polygon>
                        <polygon id="Path" fill="#FFE473" points="99.1292311 52.5789526 86.4252165 14.8173366 70 3.12626658 70.2189512 0 98.9102799 16.4906584 111.828886 35.5486842 158.697525 62.3599283 176 82 148.404881 80.6507336"></polygon>
                        <polygon id="Path" fill="#FCA84C" points="105.34029 41 56 67.1198762 89.4976609 105.070757 119.836137 116 172 83.5178239 140.272368 66.2229183"></polygon>
                        <polygon id="Path" fill="#F79043" points="106.273609 41 57 67.2230579 90.4523901 105.323857 102.906635 110 155 77.3895091 141.158477 66.3225567"></polygon>
                        <polygon id="Path" fill="#B24426" points="50.9055386 73.8586895 21 64 21 88.7680988 53 107"></polygon>
                        <polygon id="Path" fill="#3F2720" points="16 73.2845308 30 65 30 86.7159453 16 95"></polygon>
                        <polygon id="Path" fill="#492A20" points="90 104.007761 49 81 49 92.9941656 90 116"></polygon>
                        <polygon id="Path" fill="#331F1E" points="88 113.71609 25 77 25 88.2858438 88 125"></polygon>
                        <polygon id="Path" fill="#FFC757" points="97.1284805 53.5775428 84.4240976 15.8156285 68 4.12331812 68.217496 1 97.8691295 17.0968785 109.829473 36.5475748 156.695746 63.3583459 174 83 146.405617 81.6478641"></polygon>
                        <path d="M56.9936282,106.573906 C56.8918463,110.535274 55.5741585,113.508686 53.4525391,115.264963 C50.6306118,117.600854 41.8747514,123.947108 37.1898277,121.412634 C28.9816024,116.976533 19.7684989,99.590612 20.0044391,90.364168 C20.0990962,86.6751416 28.5977392,82.91703 31.9532945,81.0327471 C34.7196295,79.4792446 38.4697108,79.6246416 42.5615369,81.8354173 C50.7687928,86.2715181 57.2317009,97.3474134 56.9936282,106.573906 Z" id="Path" fill="#49302E"></path>
                        <path d="M47,111.812283 C46.9992695,120.938306 40.508404,124.613283 32.5017775,120.023092 C24.493057,115.431015 18.0014123,104.310905 18,95.1862362 C18,86.0610838 24.4937388,82.3866868 32.501047,86.9773617 C40.5083553,91.5680365 46.9992695,102.689549 47,111.812283 Z" id="Path" fill="#5B423F"></path>
                        <path d="M41,107.943584 C41,113.367354 37.1952803,115.554398 32.5007096,112.824474 C27.8061878,110.093565 24,103.483345 24,98.0576029 C24,92.6327975 27.8061878,90.44531 32.5014436,93.1757265 C37.1952803,95.9061431 41,102.516363 41,107.943584 Z" id="Path" fill="#BC938B"></path>
                        <path d="M41,107.494636 C41,112.426302 37.6432789,114.412055 33.5011066,111.931855 C29.3598761,109.4497 26,103.440005 26,98.5083388 C26,93.5742783 29.3583221,91.5871079 33.5009653,94.0686764 C37.6432789,96.5517109 40.9992937,102.561406 41,107.494636 Z" id="Path" fill="#A87973"></path>
                        <path d="M40,107.596019 C40.0021095,111.540955 37.3164039,113.131046 34.0015105,111.143769 C30.689927,109.159876 28,104.348934 28,100.404844 C28,96.4579657 30.6863771,94.869418 34.0007909,96.856148 C37.3135736,98.8404886 40,103.650186 40,107.596019 Z" id="Path" fill="#BC938B"></path>
                        <path d="M37,105.522843 C37,107.741975 35.2111397,108.635701 32.9998907,107.518903 C30.6423907,106.178887 29.1565266,103.934976 29,101.478379 C28.9992343,99.2578582 30.7905019,98.364085 32.9998907,99.4813614 C35.3583758,100.821031 36.8445601,103.065658 37,105.522843 L37,105.522843 Z" id="Path" fill="#D3AAA5"></path>
                        <path d="M32.501047,86.9773607 C24.4937388,82.3866881 18,86.0610833 18,95.1862314 C18.0014123,104.310896 24.493057,115.430807 32.5017775,120.023075 C40.5083553,124.613264 46.999513,120.938385 47,111.81227 C46.9992695,102.68954 40.5081605,91.5675498 32.501047,86.9773607 Z M32.501047,119.072799 C24.952436,114.743816 18.8339242,104.264613 18.8339242,95.6627962 C18.8339242,87.063301 24.9531665,83.5990412 32.501047,87.9261862 C40.0475153,92.2528475 46.1653454,102.733937 46.1653454,111.334351 C46.1653454,119.933314 40.0455186,123.400428 32.501047,119.072799 Z" id="Shape" fill="#3F2827"></path>
                        <path d="M42.0526702,81.8401689 C37.8165785,79.6236699 33.9341301,79.4778965 31.0704129,81.0354207 C30.7543017,81.2057311 30.3930317,81.3953621 30,81.5957159 C36.4661311,83.3758609 43.1140012,88.6607009 48.2341005,96.0743248 C53.2992566,103.409121 52.9306106,111.503842 51.2130728,117 C56.3083849,114.163264 56.9054338,110.017079 56.993393,106.642604 C57.2400602,97.3923228 50.5492893,86.2877539 42.0526702,81.8401689 Z" id="Path" fill="#3D2625"></path>
                        <path d="M32,118.550308 C32.0196083,119.096014 32.2053953,119.59434 32.5000218,119.89149 C32.77656,120.14175 33,119.944588 33,119.449573 C32.9803201,118.903212 32.7946363,118.404134 32.5000218,118.10574 C32.2236584,117.859831 32,118.056994 32,118.550308 Z" id="Path" fill="#3D2625"></path>
                        <path d="M32,87.5495018 C32.0196251,88.0958228 32.2053927,88.5947447 32.5000218,88.8924262 C32.77656,89.1422852 33,88.9416223 33,88.4485725 C32.9805902,87.9023316 32.7947743,87.403464 32.5000218,87.1062606 C32.2236584,86.8597357 32,87.056316 32,87.5495018 Z" id="Path" fill="#3D2625"></path>
                        <path d="M19.4990387,95.1077478 C19.222931,94.8580246 19,95.0572725 19,95.5515488 C19.0194781,96.0970973 19.2048361,96.5955116 19.4990387,96.893428 C19.7761514,97.1412464 20,96.9419305 20,96.4503752 C19.9806084,95.9038281 19.7943863,95.4047337 19.4990387,95.1077478 L19.4990387,95.1077478 Z" id="Path" fill="#3D2625"></path>
                        <path d="M45.5016188,111.106568 C45.2240987,110.858641 45,111.058044 45,111.551855 C45.0183911,112.098573 45.2051615,112.597939 45.5016188,112.893025 C45.7759013,113.140952 46,112.943523 46,112.449712 C45.9797487,111.904607 45.7949322,111.406524 45.5016188,111.106568 L45.5016188,111.106568 Z" id="Path" fill="#3D2625"></path>
                        <path d="M23.8530583,85.6860066 C23.6581771,85.1622041 23.3413805,84.8781943 23.1456697,85.0502328 C22.9514434,85.2249243 22.9514434,85.7922637 23.1456697,86.3131411 C23.3412058,86.8392565 23.6580024,87.1236064 23.8535386,86.9481666 C24.0492058,86.7761281 24.0485945,86.2114417 23.8530583,85.6860066 Z" id="Path" fill="#3D2625"></path>
                        <path d="M42.8519222,99.9487522 C43.0493593,99.7754437 43.0493593,99.2097601 42.8519222,98.6871827 C42.6589823,98.1613418 42.3428297,97.8780921 42.1473574,98.0504488 C41.9508809,98.2230774 41.9508809,98.7874692 42.1473574,99.3126302 C42.3415635,99.8371793 42.6577161,100.123353 42.8519222,99.9487522 Z" id="Path" fill="#3D2625"></path>
                        <path d="M23.8546087,110.949293 C24.0484638,110.778503 24.0484638,110.213671 23.8546087,109.687419 C23.6588736,109.161168 23.342296,108.876745 23.1463423,109.051482 C22.9512192,109.224245 22.9512192,109.79105 23.1463423,110.315328 C23.342296,110.841171 23.6588736,111.12158 23.8546087,110.949293 Z" id="Path" fill="#3D2625"></path>
                        <path d="M27.0244068,114.25303 C26.9472505,114.76708 27.0559012,115.304678 27.3096427,115.664363 C27.572989,116.07684 27.8709378,116.115333 27.9766255,115.74543 C28.0520172,115.231139 27.9422017,114.694683 27.6881218,114.33607 C27.4265661,113.922437 27.1270953,113.885779 27.0244068,114.25303 Z" id="Path" fill="#3D2625"></path>
                        <path d="M37.0230519,92.2532009 C36.9483272,92.7689713 37.0580622,93.3064442 37.3117197,93.6670723 C37.5743443,94.0765783 37.8714694,94.1138123 37.9763581,93.7482111 C38.0520074,93.2341978 37.9432982,92.6976562 37.6905542,92.337607 C37.4259607,91.9221789 37.1279406,91.8855575 37.0230519,92.2532009 Z" id="Path" fill="#3D2625"></path>
                        <path d="M20.6891318,90.3341455 C20.4265005,89.9227466 20.1280253,89.8862005 20.0231339,90.2524782 C19.9484048,90.7673045 20.0574968,91.3039323 20.3102429,91.6647776 C20.5748431,92.0775376 20.8722443,92.1139476 20.9755695,91.7471935 C21.0529101,91.2321781 20.9437217,90.6935323 20.6891318,90.3341455 L20.6891318,90.3341455 Z" id="Path" fill="#3D2625"></path>
                        <path d="M44.6881833,115.334718 C44.4250961,114.922436 44.1283567,114.886068 44.0241331,115.253145 C43.9471546,115.767951 44.0572442,116.30599 44.3127728,116.663808 C44.5747859,117.077994 44.8725994,117.114497 44.9768229,116.745381 C45.0518112,116.230697 44.9420267,115.694149 44.6881833,115.334718 L44.6881833,115.334718 Z" id="Path" fill="#3D2625"></path>
                        <path d="M27.958718,86.0576746 C27.8775906,85.5475513 27.6270908,85.1444306 27.3024917,85.001632 C27.0490628,84.9704139 26.931864,85.3908041 27.0405948,85.9407597 C27.1226951,86.4513768 27.3737063,86.8546605 27.6987417,86.9981625 C27.9523452,87.031353 28.0682782,86.6109627 27.958718,86.0576746 Z" id="Path" fill="#3D2625"></path>
                        <path d="M44.6977477,105.998235 C44.9517104,106.030811 45.0684633,105.608422 44.9587916,105.059744 C44.8780787,104.54843 44.6267683,104.14424 44.3009802,104.001766 C44.0491156,103.969259 43.9310951,104.389404 44.0414225,104.940257 C44.1225493,105.450405 44.3729315,105.854014 44.6977477,105.998235 Z" id="Path" fill="#3D2625"></path>
                        <path d="M20.6976759,102.998234 C20.9528402,103.030741 21.0676204,102.610595 20.959263,102.05974 C20.8776618,101.549553 20.6271524,101.146101 20.3023462,101.001758 C20.0480558,100.96925 19.9320085,101.391641 20.0408028,101.940252 C20.1217627,102.450968 20.3725144,102.854837 20.6976759,102.998234 Z" id="Path" fill="#3D2625"></path>
                        <path d="M29.0024274,117.390492 C28.9787406,117.931113 29.1295259,118.455103 29.4057819,118.792175 C29.6804138,119.13093 29.9461866,119.045901 29.9975693,118.607493 C30.021265,118.066958 29.8705936,117.54302 29.5944806,117.205809 C29.3186527,116.870387 29.0547846,116.954056 29.0024274,117.390492 Z" id="Path" fill="#3D2625"></path>
                        <path d="M34.0026644,89.3942685 C33.977761,89.9342919 34.1286173,90.4582005 34.4054834,90.7932179 C34.6793312,91.1294639 34.9460017,91.0470527 34.9975724,90.6084562 C35.0212658,90.0679741 34.8704005,89.5441593 34.5940888,89.2075333 C34.3195764,88.8692457 34.0530832,88.9536304 34.0026644,89.3942685 Z" id="Path" fill="#3D2625"></path>
                        <path d="M19.5941455,92.2051611 C19.3199996,91.8705723 19.0548871,91.9536417 19.0025908,92.392985 C18.9780546,92.9334813 19.1289607,93.457711 19.4058169,93.7937442 C19.6808484,94.1296246 19.9452967,94.0466232 19.997593,93.6078238 C20.0211726,93.06697 19.8703984,92.5427745 19.5941455,92.2051611 L19.5941455,92.2051611 Z" id="Path" fill="#3D2625"></path>
                        <path d="M44.5947066,113.205547 C44.3202386,112.870706 44.0537692,112.953838 44.0021987,113.390247 C43.9797166,113.932398 44.1307026,114.457265 44.4065871,114.796008 C44.6797293,115.128876 44.9442986,115.045812 44.9977692,114.609335 C45.0203901,114.068153 44.8699123,113.544068 44.5947066,113.205547 Z" id="Path" fill="#3D2625"></path>
                        <path d="M24.9137158,85.8699479 C24.7578094,85.3212546 24.4459529,84.9364355 24.2183618,85.008725 C23.9907707,85.0810144 23.9308369,85.5839833 24.0873113,86.1307064 C24.2417325,86.6800791 24.5529338,87.0635394 24.781879,86.9912499 C25.0088585,86.9196399 25.0687923,86.4153122 24.9137158,85.8699479 Z" id="Path" fill="#3D2625"></path>
                        <path d="M43.781655,101.99066 C44.0101414,101.91959 44.0681697,101.416857 43.9134858,100.868898 C43.7575348,100.319646 43.4464629,99.9364079 43.2194185,100.008771 C42.9911506,100.082494 42.9310249,100.586859 43.0863205,101.130602 C43.2422715,101.679853 43.5535618,102.065744 43.781655,101.99066 Z" id="Path" fill="#3D2625"></path>
                        <path d="M21.7808988,106.991542 C22.009046,106.916719 22.0691399,106.414929 21.9130967,105.870898 C21.7580579,105.319929 21.4463208,104.93425 21.21813,105.009346 C20.9905942,105.080427 20.930675,105.581945 21.0878538,106.130602 C21.2415823,106.678646 21.552708,107.062556 21.7808988,106.991542 Z" id="Path" fill="#3D2625"></path>
                        <path d="M25.0687403,112.143587 C24.9366642,112.607567 24.9982366,113.148584 25.2248584,113.515346 C25.4591237,113.986573 25.7711393,114.142764 25.9205981,113.856312 C26.0715564,113.573807 26.0002889,112.960408 25.7659795,112.487139 C25.530347,112.013325 25.2189488,111.857134 25.0687403,112.143587 Z" id="Path" fill="#3D2625"></path>
                        <path d="M40.0694741,94.1421065 C39.9357737,94.6068124 39.9984446,95.1489779 40.2282157,95.5153796 C40.4645267,95.98781 40.7787631,96.1412955 40.9294987,95.8575923 C41.0643271,95.3935709 41.0023758,94.8509131 40.7727141,94.4842512 C40.5355579,94.0145421 40.220432,93.857723 40.0694741,94.1421065 Z" id="Path" fill="#3D2625"></path>
                        <path d="M21.7663811,88.4859968 C21.5307174,88.0128689 21.2182326,87.8573825 21.0700117,88.1437225 C20.9364987,88.6065927 20.9972758,89.1481252 21.2238741,89.5146569 C21.460199,89.9871043 21.7726396,90.1425907 21.9220065,89.8562507 C22.0708885,89.5757627 21.9998852,88.961098 21.7663811,88.4859968 Z" id="Path" fill="#3D2625"></path>
                        <path d="M43.7730598,118.487161 C43.5346673,118.011789 43.2204893,117.857729 43.0703425,118.14389 C42.9357697,118.606286 42.9976797,119.147112 43.2269865,119.512283 C43.465557,119.987042 43.7797795,120.141035 43.9292588,119.859021 C44.0643202,119.395694 44.0025969,118.853592 43.7730598,118.487161 Z" id="Path" fill="#3D2625"></path>
                        <path d="M29.98719,86.2438252 C29.9300317,85.7104905 29.7068046,85.2559482 29.39122,85.0302917 C29.1231362,84.896097 28.9529027,85.2202592 29.0115693,85.7556096 C29.070459,86.2890658 29.2940843,86.7433056 29.609636,86.9704353 C29.8796856,87.1026575 30.0492638,86.7791756 29.98719,86.2438252 Z" id="Path" fill="#3D2625"></path>
                        <path d="M44.6092063,108.969996 C44.8777292,109.104172 45.047171,108.77543 44.9883334,108.241445 C44.929034,107.709476 44.7056981,107.256906 44.390966,107.030933 C44.1217884,106.894921 43.9530013,107.220195 44.0116207,107.756152 C44.0705153,108.289303 44.2939714,108.743198 44.6092063,108.969996 L44.6092063,108.969996 Z" id="Path" fill="#3D2625"></path>
                        <path d="M19.6092977,99.9691768 C19.87852,100.105224 20.0492996,99.7778946 19.9872654,99.2437736 C19.9293281,98.7104732 19.706214,98.2560873 19.3910212,98.0294852 C19.1211877,97.8972474 18.9517178,98.2221279 19.0122677,98.7573372 C19.0697918,99.2906978 19.2934941,99.7447643 19.6092977,99.9691768 L19.6092977,99.9691768 Z" id="Path" fill="#3D2625"></path>
                        <path d="M32.03885,109.275838 C32.054871,109.548839 32.2274108,109.798381 32.50175,109.945323 C32.75515,110.070836 32.96115,109.973215 32.96115,109.724626 C32.9426726,109.452286 32.7724192,109.20321 32.50175,109.052536 C32.24195,108.929627 32.03885,109.029769 32.03885,109.275838 Z" id="Path" fill="#5B423F"></path>
                        <path d="M32.03885,98.2754581 C32.0555944,98.5487292 32.2279555,98.7984236 32.50175,98.9460472 C32.75515,99.0717668 32.96115,98.9698615 32.96115,98.7225455 C32.9439713,98.4507808 32.7731741,98.2023742 32.50175,98.0543968 C32.24195,97.9295186 32.03885,98.0264591 32.03885,98.2754581 Z" id="Path" fill="#5B423F"></path>
                        <path d="M27.50075,99.0541323 C27.24535,98.9294496 27.03635,99.0270128 27.03635,99.2762944 C27.0555361,99.5490852 27.227898,99.7980095 27.50075,99.9469787 C27.75605,100.069982 27.96365,99.9721671 27.96365,99.723977 C27.9457319,99.4514098 27.7736941,99.2024606 27.50075,99.0541323 L27.50075,99.0541323 Z" id="Path" fill="#5B423F"></path>
                        <path d="M38.49975,105.054153 C38.24445,104.92857 38.03735,105.028935 38.03735,105.27741 C38.0570148,105.549541 38.2284392,105.797876 38.49975,105.947267 C38.75665,106.070412 38.96265,105.970215 38.96265,105.726447 C38.9461846,105.452757 38.7738698,105.202494 38.49975,105.054153 L38.49975,105.054153 Z" id="Path" fill="#5B423F"></path>
                        <path d="M29.828919,97.3426733 C29.646819,97.0820349 29.352419,96.9391042 29.171719,97.0249467 C28.991019,97.1107892 28.992519,97.3969029 29.171719,97.6562802 C29.352419,97.9190205 29.646819,98.0619512 29.828919,97.9740909 C30.008019,97.8862305 30.008019,97.6077678 29.828919,97.3426733 Z" id="Path" fill="#5B423F"></path>
                        <path d="M37.8265625,110.339651 C37.6473625,110.08096 37.3519625,109.938074 37.1712625,110.025958 C36.9920625,110.11132 36.9920625,110.394653 37.1712625,110.655867 C37.3519625,110.916577 37.6473625,111.060725 37.8265625,110.975447 C38.0086625,110.887311 38.0086625,110.603137 37.8265625,110.339651 Z" id="Path" fill="#5B423F"></path>
                        <path d="M37.8265625,100.974695 C38.0086625,100.887522 38.0086625,100.605365 37.8265625,100.346286 C37.6473625,100.07811 37.3519625,99.9382951 37.1712625,100.026227 C36.9920625,100.113401 36.9920625,100.393873 37.1712625,100.658764 C37.3517625,100.919275 37.6473625,101.061027 37.8265625,100.974695 Z" id="Path" fill="#5B423F"></path>
                        <path d="M29.82875,105.972881 C30.00755,105.889869 30.00755,105.604078 29.82875,105.34293 C29.64665,105.081698 29.35225,104.937962 29.17155,105.025852 C28.99235,105.111303 28.99235,105.395917 29.17155,105.656644 C29.35255,105.920315 29.64695,106.063211 29.82875,105.972881 Z" id="Path" fill="#5B423F"></path>
                        <path d="M30.0690387,108.127799 C30.0014887,108.384823 30.1003163,108.652722 30.3290387,108.8326 C30.5678387,109.037681 30.8364387,109.05818 30.9306387,108.872759 C30.9986727,108.615989 30.9004978,108.348108 30.6723387,108.167958 C30.4307387,107.959601 30.1646387,107.943807 30.0690387,108.127799 Z" id="Path" fill="#5B423F"></path>
                        <path d="M35.0702661,98.1285411 C35.0003085,98.385583 35.100146,98.6544231 35.3315661,98.8321636 C35.5673661,99.0384776 35.8329661,99.0574171 35.9301661,98.8732412 C35.998866,98.615678 35.9006199,98.3467379 35.6718661,98.1661675 C35.4326661,97.9600218 35.1602661,97.9436076 35.0702661,98.1285411 Z" id="Path" fill="#5B423F"></path>
                        <path d="M28.6718754,98.169531 C28.4331754,97.9610295 28.1640754,97.9425334 28.0673754,98.1269059 C28.0012835,98.3840299 28.0998934,98.6514926 28.3273754,98.8321116 C28.5673754,99.0398564 28.8361754,99.0562507 28.9303754,98.8732234 C29.0009876,98.6166447 28.9022829,98.3479492 28.6718754,98.169531 Z" id="Path" fill="#5B423F"></path>
                        <path d="M38.6695371,108.166987 C38.4303371,107.96121 38.1617371,107.943086 38.0695371,108.126692 C38.0014996,108.385225 38.0993615,108.654894 38.3273371,108.837088 C38.5651371,109.037975 38.8351371,109.056268 38.9308371,108.87418 C38.9985039,108.616072 38.8991028,108.347049 38.6695371,108.166987 Z" id="Path" fill="#5B423F"></path>
                        <path d="M30.9234186,97.5295628 C30.8219186,97.2535505 30.5499186,97.0146257 30.3155186,97.0006652 C30.0811186,96.9867048 29.9737186,97.1940926 30.0755186,97.4696004 C30.1517351,97.7248334 30.3836982,97.9266717 30.6844186,97.999423 C30.9171186,98.0124584 31.0279186,97.8030523 30.9234186,97.5295628 Z" id="Path" fill="#5B423F"></path>
                        <path d="M35.9257252,110.529108 C35.8246252,110.25043 35.5497252,110.013752 35.3157252,110.001379 C35.0813252,109.980842 34.9757252,110.192102 35.0769252,110.471537 C35.151651,110.726288 35.3829738,110.927733 35.6829252,110.999266 C35.9154252,111.01408 36.0228252,110.80282 35.9257252,110.529108 Z" id="Path" fill="#5B423F"></path>
                        <path d="M38.6841569,103.99892 C38.9170569,104.017022 39.0259569,103.805279 38.9241569,103.529467 C38.8480261,103.27515 38.6174051,103.073904 38.3182569,103.000742 C38.0823569,102.986009 37.9734569,103.192363 38.0765569,103.468596 C38.1496878,103.725144 38.3822713,103.928147 38.6841569,103.99892 Z" id="Path" fill="#5B423F"></path>
                        <path d="M28.6807021,102.999263 C28.9180021,103.014083 29.0240021,102.803573 28.9259021,102.526459 C28.8483886,102.272413 28.6162727,102.072247 28.3165021,102.000942 C28.0836021,101.984102 27.9732021,102.195032 28.0765021,102.468863 C28.1506533,102.723975 28.3810828,102.926258 28.6807021,102.999263 Z" id="Path" fill="#5B423F"></path>
                        <path d="M31.0457724,109.195917 C31.0249579,109.467594 31.1645409,109.730422 31.4187724,109.898257 C31.6668724,110.06461 31.9070724,110.021778 31.9534724,109.807704 C31.9779158,109.536848 31.8407998,109.273512 31.5877724,109.105364 C31.3367724,108.934036 31.0950724,108.976868 31.0457724,109.195917 Z" id="Path" fill="#5B423F"></path>
                        <path d="M34.0469536,98.1963535 C34.0245195,98.4665267 34.1618613,98.7286542 34.4141536,98.8971831 C34.6650536,99.0645755 34.9053536,99.0227274 34.9531536,98.8069324 C34.9749839,98.5371232 34.8384123,98.2753966 34.5874536,98.1061027 C34.3350536,97.9339205 34.0918536,97.9764409 34.0469536,98.1963535 Z" id="Path" fill="#5B423F"></path>
                        <path d="M27.5866765,99.1031895 C27.3356765,98.9352368 27.0954765,98.9760493 27.0461765,99.1983347 C27.0250619,99.4681726 27.1634285,99.7294547 27.4161765,99.8970179 C27.6656765,100.065978 27.9088765,100.021639 27.9537765,99.8035523 C27.9750486,99.5337483 27.8379775,99.2722404 27.5866765,99.1031895 L27.5866765,99.1031895 Z" id="Path" fill="#5B423F"></path>
                        <path d="M38.587516,106.100585 C38.333616,105.935304 38.093416,105.978077 38.045516,106.196824 C38.0245046,106.467709 38.1630797,106.729967 38.416116,106.898195 C38.663716,107.065918 38.903916,107.020704 38.954716,106.804482 C38.9743279,106.533715 38.8375974,106.271612 38.587516,106.100585 L38.587516,106.100585 Z" id="Path" fill="#5B423F"></path>
                        <path d="M29.8851909,97.4365557 C29.7371909,97.1606787 29.4505909,96.9682941 29.2415909,97.00434 C29.0267909,97.0412242 28.9730909,97.2908631 29.1175909,97.5675784 C29.2610909,97.8377551 29.5506909,98.0317324 29.7596909,97.9956865 C29.9730909,97.9601435 30.0252909,97.7067324 29.8851909,97.4365557 Z" id="Path" fill="#5B423F"></path>
                        <path d="M35.8830558,110.436072 C35.7385558,110.159401 35.4504558,109.968901 35.2380558,110.00421 C35.0260558,110.041957 34.9738558,110.293239 35.1159558,110.566631 C35.2604558,110.840024 35.5485558,111.03044 35.7609558,110.995971 C35.9743558,110.955702 36.0265558,110.706942 35.8830558,110.436072 Z" id="Path" fill="#5B423F"></path>
                        <path d="M37.7602179,101.995241 C37.9721179,101.959869 38.0258179,101.710668 37.8842179,101.434348 C37.7377179,101.162913 37.4511179,100.96879 37.2392179,101.004161 C37.0272179,101.041975 36.9750179,101.291177 37.1151179,101.565054 C37.2602179,101.841459 37.5497179,102.033055 37.7602179,101.995241 Z" id="Path" fill="#5B423F"></path>
                        <path d="M28.7603715,104.995734 C28.9737715,104.960335 29.0260715,104.706811 28.8824715,104.431879 C28.7393715,104.160319 28.4512715,103.966888 28.2424715,104.004732 C28.0270715,104.039288 27.9733715,104.291295 28.1169715,104.565215 C28.2647715,104.842591 28.5479715,105.031133 28.7603715,104.995734 Z" id="Path" fill="#5B423F"></path>
                        <path d="M29.1052486,105.070371 C28.9824563,105.301688 29.0390778,105.572489 29.2483486,105.754772 C29.4631486,105.993606 29.7512486,106.071593 29.8860486,105.927973 C30.0246486,105.78763 29.9587486,105.481566 29.7454486,105.24601 C29.5261486,105.006839 29.2410486,104.929189 29.1052486,105.070371 Z" id="Path" fill="#5B423F"></path>
                        <path d="M35.1105284,99.0725671 C34.9849407,99.3029366 35.0412469,99.5745481 35.2521284,99.755621 C35.4703284,99.9937021 35.7535284,100.070877 35.8912284,99.9288855 C36.014218,99.6971082 35.9580865,99.4258064 35.7492284,99.242553 C35.5343284,99.0036312 35.2448284,98.9297353 35.1105284,99.0725671 Z" id="Path" fill="#5B423F"></path>
                        <path d="M28.7426233,98.2437702 C28.5277233,98.0058118 28.2440233,97.928677 28.1054233,98.0722755 C27.9837628,98.3042096 28.0401858,98.5748737 28.2484233,98.7582544 C28.4638233,98.9935239 28.7489233,99.0717511 28.8861233,98.9273124 C29.0233233,98.7886714 28.9579233,98.4809724 28.7426233,98.2437702 Z" id="Path" fill="#5B423F"></path>
                        <path d="M38.7473774,109.244943 C38.5340774,109.005329 38.2459774,108.929532 38.1116774,109.071176 C37.9879287,109.30256 38.0427703,109.574088 38.2503774,109.757898 C38.4666774,109.994984 38.7503774,110.069853 38.8909774,109.929136 C39.0118161,109.697593 38.9551207,109.427464 38.7473774,109.244943 L38.7473774,109.244943 Z" id="Path" fill="#5B423F"></path>
                        <path d="M31.9507344,97.6221761 C31.8977446,97.3553016 31.6907967,97.1279882 31.3984344,97.015525 C31.1533344,96.9473431 30.9936344,97.1100539 31.0484344,97.3797514 C31.1041121,97.6453321 31.3104973,97.8712347 31.6011344,97.984719 C31.8517344,98.0521434 32.0073344,97.8901902 31.9507344,97.6221761 Z" id="Path" fill="#5B423F"></path>
                        <path d="M34.9505293,110.622513 C34.8978632,110.355506 34.6908215,110.128116 34.3983293,110.01604 C34.1488293,109.946127 33.9950293,110.111475 34.0483293,110.381272 C34.1026152,110.648108 34.3116879,110.874414 34.6054293,110.984291 C34.8519293,111.052688 35.0072293,110.891467 34.9505293,110.622513 Z" id="Path" fill="#5B423F"></path>
                        <path d="M38.6006421,104.984692 C38.8525421,105.052775 39.0063421,104.887144 38.9526421,104.619096 C38.8977504,104.354158 38.6920815,104.128463 38.4018421,104.014666 C38.1494421,103.949019 37.9912421,104.109696 38.0483421,104.377828 C38.1027654,104.643906 38.3091411,104.87067 38.6006421,104.984692 L38.6006421,104.984692 Z" id="Path" fill="#5B423F"></path>
                        <path d="M28.5995788,101.985152 C28.8519788,102.051725 29.0087788,101.888111 28.9506788,101.620976 C28.8979252,101.354194 28.6908641,101.127009 28.3983788,101.014999 C28.1488788,100.948426 27.9891788,101.109515 28.0502788,101.378249 C28.1028959,101.644543 28.3085185,101.871728 28.5995788,101.985152 L28.5995788,101.985152 Z" id="Path" fill="#5B423F"></path>
                        <path d="M35.4990691,83.1054579 C35.2246666,82.8597671 35,83.0575038 35,83.5517864 C35.0201806,84.0968794 35.2054373,84.5945761 35.4990691,84.892548 C35.7747635,85.1417319 36,84.9428111 36,84.4479364 C35.9799463,83.9015909 35.7938676,83.402906 35.4990691,83.1054579 L35.4990691,83.1054579 Z" id="Path" fill="#3D2625"></path>
                        <path d="M51.4992378,110.107265 C51.2216082,109.858076 51,110.058126 51,110.551293 C51.0183226,111.096902 51.2039933,111.595751 51.4992378,111.892613 C51.777439,112.141802 52,111.942344 52,111.449177 C51.9817138,110.902792 51.7953648,110.403425 51.4992378,110.107265 Z" id="Path" fill="#3D2625"></path>
                        <path d="M25.6553624,83.7507147 C25.8510091,83.6206482 25.9783042,83.4024308 26,83.1599147 C25.6664767,83.3630147 25.3334283,83.5632147 25,83.7722147 C25.2103059,83.8697262 25.4512324,83.8618223 25.6553624,83.7507147 L25.6553624,83.7507147 Z" id="Path" fill="#3D2625"></path>
                        <path d="M47.147297,94.0515967 C46.950901,94.2227401 46.950901,94.7892717 47.147297,95.312529 C47.3409177,95.8393974 47.6575996,96.1224263 47.852703,95.9490334 C48.049099,95.7732724 48.049099,95.2113584 47.852703,94.6852596 C47.6587021,94.1620023 47.3420202,93.8764278 47.147297,94.0515967 Z" id="Path" fill="#3D2625"></path>
                        <path d="M42.0240096,88.2538575 C41.9474236,88.7686407 42.0569276,89.3064235 42.3114992,89.6657417 C42.5746187,90.0768678 42.8714274,90.1144636 42.9757705,89.7467355 C43.0527031,89.2323746 42.9435541,88.6947142 42.6892558,88.335384 C42.4259803,87.922541 42.1285867,87.8855372 42.0240096,88.2538575 Z" id="Path" fill="#3D2625"></path>
                        <path d="M50.0277513,115.161448 C49.9479828,115.460822 50.0426589,115.775769 50.2798284,116 C50.532461,115.840296 50.7727888,115.68283 51,115.532004 C50.9396879,115.415337 50.857741,115.308495 50.7575787,115.215934 C50.4687154,114.949874 50.1428523,114.927298 50.0277513,115.161448 Z" id="Path" fill="#3D2625"></path>
                        <path d="M29.0390934,80.8977925 C29.1202649,81.4298177 29.3719983,81.8501488 29.6981408,81.9982348 C29.949975,82.0313016 30.0682031,81.5958907 29.9596433,81.0210696 C29.8796103,80.5893743 29.7001729,80.2238669 29.458373,80 C29.3134237,80.1268486 29.1612041,80.2555445 29.0031987,80.3914449 C28.993555,80.5624239 29.0057735,80.7347839 29.0390934,80.8977925 Z" id="Path" fill="#3D2625"></path>
                        <path d="M50.9589638,103.058814 C50.8772546,102.549251 50.6268817,102.146284 50.302255,102.001862 C50.0473481,101.968368 49.9319932,102.39077 50.0410705,102.940343 C50.1217824,103.450599 50.3721228,103.854433 50.6970184,103.998478 C50.9526482,104.02854 51.0680031,103.60957 50.9589638,103.058814 Z" id="Path" fill="#3D2625"></path>
                        <path d="M39.9975786,86.6100837 C40.0212297,86.0691966 39.8705045,85.544932 39.594299,85.2073635 C39.3192025,84.869231 39.0527389,84.9542228 39.0026758,85.3923214 C38.9777726,85.9323728 39.1278722,86.4565497 39.4038743,86.7933844 C39.6799343,87.1294453 39.9458583,87.0465842 39.9975786,86.6100837 Z" id="Path" fill="#3D2625"></path>
                        <path d="M51.5951466,113.206159 C51.3203447,112.870551 51.0549737,112.953728 51.0023537,113.389906 C50.9790747,113.931171 51.1295677,114.455701 51.4052989,114.794336 C51.6804856,115.129411 51.9453178,115.046825 51.9977453,114.606566 C52.0204841,114.066708 51.8701636,113.54383 51.5951466,113.206159 L51.5951466,113.206159 Z" id="Path" fill="#3D2625"></path>
                        <path d="M28.6780403,82.9982919 C28.9602268,82.9264704 29.0633084,82.5087823 28.9618684,82 C28.6484347,82.2058284 28.3264533,82.4149844 28,82.6323209 C28.1647629,82.8808202 28.4171094,83.0170238 28.6780403,82.9982919 L28.6780403,82.9982919 Z" id="Path" fill="#3D2625"></path>
                        <path d="M49.2173978,98.0088603 C48.9901531,98.081185 48.9316296,98.5827191 49.0867663,99.1299226 C49.2419031,99.6800286 49.5536986,100.063569 49.7809053,99.9912439 C50.0098243,99.9189192 50.0689185,99.4174443 49.9126402,98.8690561 C49.7576938,98.320431 49.447953,97.9360025 49.2173978,98.0088603 Z" id="Path" fill="#3D2625"></path>
                        <path d="M44.0793276,91.1434512 C43.9287573,91.4261859 43.9991513,92.0401394 44.2344247,92.5159223 C44.4693145,92.9882124 44.7802759,93.1402948 44.9303092,92.8587441 C45.0636415,92.3949786 45.0023046,91.8528728 44.7750203,91.4862729 C44.5397469,91.0122068 44.2282484,90.8578749 44.0793276,91.1434512 Z" id="Path" fill="#3D2625"></path>
                        <path d="M49.25685,118.65675 C49.42095,118.55615 49.58205,118.44485 49.74315,118.34325 C49.5745716,118.355272 49.4185026,118.436583 49.31205,118.56785 C49.2954735,118.598577 49.2770393,118.628266 49.25685,118.65675 L49.25685,118.65675 Z" id="Path" fill="#3D2625"></path>
                        <path d="M32.9880493,82.2434135 C32.9295849,81.7102705 32.7061478,81.2564318 32.3909111,81.0305243 C32.121177,80.8957851 31.9523842,81.2196329 32.0119536,81.7552136 C32.0713247,82.2883666 32.2944678,82.7423558 32.6092438,82.9704127 C32.8780282,83.102842 33.0477328,82.778402 32.9880493,82.2434135 Z" id="Path" fill="#3D2625"></path>
                        <path d="M51.6098289,106.97019 C51.8792776,107.103073 52.0472175,106.779503 51.9881972,106.242468 C51.9286372,105.711019 51.7060207,105.258413 51.3919897,105.030309 C51.1214389,104.896242 50.9511428,105.219221 51.0125194,105.756551 C51.0701184,106.290207 51.2938306,106.744755 51.6098289,106.97019 L51.6098289,106.97019 Z" id="Path" fill="#3D2625"></path>
                        <polygon id="Path" fill="#C1663E" points="83.6706101 104.183433 67.194439 99.2739469 61.541251 96 53 100.561062 70.0820103 125 88 113.126805"></polygon>
                        <polygon id="Path" fill="#994629" points="84.7040652 104.174587 64.4149953 94 60 97.6263014 71.5796036 110.260978 71.2204705 125 89 113.121759"></polygon>
                        <polygon id="Path" fill="#C1663E" points="70 99.5776051 61 95 61 102.421472 70 107"></polygon>
                        <polygon id="Path" fill="#F79043" points="70 110.263755 53 100 53 115.736749 70 126"></polygon>
                        <path d="M108.993778,137.573925 C108.890348,141.533951 107.572607,144.508548 105.449818,146.264785 C102.630013,148.600623 93.8733971,154.945288 89.1882639,152.413714 C80.9809323,147.976316 71.7677983,130.590212 72.0044662,121.364604 C72.0983967,117.676191 80.5959046,113.917635 83.9526342,112.032046 C86.717282,110.479976 90.4704777,110.623924 94.5585369,112.836047 C102.766062,117.270602 109.228992,128.348124 108.993778,137.573925 Z" id="Path" fill="#49302E"></path>
                        <path d="M100,142.812767 C100,151.93818 93.5088459,155.613473 85.5005601,151.022887 C77.4913002,146.430897 71,135.311049 71,126.185105 C71,117.062546 77.4911541,113.385801 85.500414,117.97779 C93.5081641,122.569828 100,133.689676 100,142.812767 Z" id="Path" fill="#5B423F"></path>
                        <path d="M85.5006331,117.97779 C77.4913329,113.385801 71,117.062546 71,126.185105 C71,135.310953 77.4911868,146.430897 85.500487,151.022887 C93.5088132,155.613473 100,151.93818 100,142.812767 C100,133.689676 93.5082775,122.569828 85.5006331,117.97779 Z M85.5006331,150.071274 C77.9519487,145.745177 71.8333748,135.263317 71.8326442,126.663063 C71.8326442,118.064358 77.9521922,114.599099 85.5006331,118.926598 C93.0474182,123.252743 99.1655051,133.734556 99.1655051,142.334809 C99.1655051,150.933176 93.0474182,154.398773 85.5006331,150.071274 L85.5006331,150.071274 Z" id="Shape" fill="#3F2827"></path>
                        <path d="M95.0502489,113.840808 C90.8183046,111.622949 86.9330099,111.478627 84.0710563,113.034723 C83.7557653,113.206382 83.3937124,113.395527 83,113.596022 C89.4640182,115.376617 96.1132273,120.660878 101.233496,128.076251 C106.29787,135.410914 105.929195,143.504087 104.211802,149 C109.306582,146.163267 109.903648,142.017158 109.993559,138.642744 C110.237052,129.393162 103.54665,118.286912 95.0502489,113.840808 Z" id="Path" fill="#3D2625"></path>
                        <path d="M84,118.5485 C84.019161,119.095368 84.2052227,119.595029 84.500634,119.892932 C84.7766604,120.140732 85,119.944084 85,119.450797 C84.9816587,118.904031 84.7959673,118.404073 84.500634,118.106296 C84.2239517,117.860333 84,118.054941 84,118.5485 Z" id="Path" fill="#3D2625"></path>
                        <path d="M75.8537712,118.686552 C75.6579695,118.160323 75.3412005,117.877989 75.1468841,118.050723 C74.9510386,118.221484 74.9510386,118.788192 75.1468841,119.313673 C75.3412005,119.837522 75.6580131,120.122237 75.8537712,119.949503 C76.0487429,119.774796 76.0487429,119.210741 75.8537712,118.686552 Z" id="Path" fill="#3D2625"></path>
                        <path d="M80.959083,118.059043 C80.8774088,117.548863 80.6268185,117.145561 80.3020249,117.001569 C80.0498375,116.970979 79.9309043,117.391222 80.0413236,117.941576 C80.1223899,118.452845 80.3739063,118.856624 80.6996479,118.998437 C80.9519662,119.02896 81.0680178,118.608717 80.959083,118.059043 Z" id="Path" fill="#3D2625"></path>
                        <path d="M77.9133123,117.867796 C77.7573267,117.319755 77.4462731,116.935915 77.2180186,117.008901 C76.9897641,117.081887 76.9316955,117.58347 77.0869383,118.130219 C77.2422247,118.680166 77.5532783,119.064141 77.7830621,118.991087 C78.0093068,118.918033 78.0685988,118.416586 77.9133123,117.867796 Z" id="Path" fill="#3D2625"></path>
                        <path d="M81.9877467,119.243004 C81.9293186,118.710296 81.70615,118.256475 81.3910065,118.029512 C81.1231243,117.897436 80.9529078,118.220726 81.0115685,118.758409 C81.0702053,119.290996 81.2938936,119.744281 81.6094007,119.969863 C81.8780255,120.103706 82.048373,119.779328 81.9877467,119.243004 Z" id="Path" fill="#3D2625"></path>
                        <path d="M89.4991452,114.106442 C89.2240626,113.859129 89,114.057322 89,114.550291 C89.0196798,115.096539 89.2049974,115.595627 89.4991452,115.894561 C89.7759374,116.140216 90,115.942555 90,115.447812 C89.9794872,114.902051 89.7935347,114.40404 89.4991452,114.106442 L89.4991452,114.106442 Z" id="Path" fill="#3D2625"></path>
                        <path d="M79.6556895,114.756172 C79.8511382,114.62334 79.9780246,114.403442 80,114.159472 C79.6686913,114.365472 79.3341558,114.564772 79,114.770772 C79.2097954,114.868645 79.4500052,114.863296 79.6556895,114.756172 Z" id="Path" fill="#3D2625"></path>
                        <path d="M95.0242274,118.252202 C94.9471851,118.766601 95.0567875,119.30435 95.3116913,119.662603 C95.5740636,120.076467 95.8706447,120.115237 95.975843,119.747602 C96.0526448,119.232904 95.9434448,118.694997 95.6891583,118.335424 C95.4262406,117.922271 95.1279451,117.886402 95.0242274,118.252202 Z" id="Path" fill="#3D2625"></path>
                        <path d="M82.0390619,112.89804 C82.1207498,113.429351 82.3720611,113.849169 82.6976596,113.998233 C82.95249,114.031329 83.0683636,113.595591 82.9586227,113.021427 C82.8801123,112.589307 82.7011816,112.223209 82.4593988,112 C82.3132046,112.125236 82.1608777,112.255834 82.0033704,112.388282 C81.9934164,112.560365 82.0055682,112.73392 82.0390619,112.89804 L82.0390619,112.89804 Z" id="Path" fill="#3D2625"></path>
                        <path d="M92.9977769,116.609339 C93.0203755,116.068282 92.8696245,115.544341 92.5939357,115.205772 C92.3190045,114.870492 92.0531299,114.953187 92.0024908,115.393656 C91.9785059,115.933373 92.1288749,116.456686 92.4046363,116.793198 C92.6802996,117.12901 92.944864,117.047499 92.9977769,116.609339 Z" id="Path" fill="#3D2625"></path>
                        <path d="M80.6763913,113.998314 C80.9580891,113.927775 81.0645874,113.50628 80.961366,113 C80.6468994,113.203624 80.3254836,113.41531 80,113.633181 C80.1649062,113.881127 80.4163975,114.016888 80.6763913,113.998314 L80.6763913,113.998314 Z" id="Path" fill="#3D2625"></path>
                        <path d="M85.9876229,114.243385 C85.9298063,113.710771 85.7069407,113.256758 85.3919139,113.029829 C85.1211751,112.896922 84.9519776,113.220549 85.0121418,113.75395 C85.0698338,114.288166 85.2936342,114.743382 85.6099044,114.969814 C85.8797305,115.103845 86.0483575,114.779035 85.9876229,114.243385 Z" id="Path" fill="#3D2625"></path>
                        <polygon id="Path" fill="#EF7835" points="32 63.4537167 46.6563252 55 52 75.5438535 37.3441611 84"></polygon>
                        <polygon id="Path" fill="#FFE473" points="88 46.2299588 59.32532 30 9 58.0522467 35.1827079 73"></polygon>
                        <rect id="Rectangle" fill="#FFE473" x="20.781935" y="44" width="1" height="7"></rect>
                        <rect id="Rectangle" fill="#FFE473" x="22.7818135" y="43" width="1" height="7"></rect>
                        <rect id="Rectangle" fill="#FFE473" x="26.7815703" y="42" width="1" height="7"></rect>
                        <rect id="Rectangle" fill="#FFE473" x="27.7818135" y="42" width="1" height="7"></rect>
                        <rect id="Rectangle" fill="#FFE473" x="29.7819107" y="40" width="1" height="7"></rect>
                        <rect id="Rectangle" fill="#FFE473" x="32.7814245" y="39" width="1" height="7"></rect>
                        <rect id="Rectangle" fill="#FFE473" x="34.7817891" y="36" width="1" height="7"></rect>
                        <rect id="Rectangle" fill="#FFE473" x="37.7819107" y="35" width="1" height="7"></rect>
                        <rect id="Rectangle" fill="#FFE473" x="40.7824942" y="34" width="1" height="7"></rect>
                        <rect id="Rectangle" fill="#FFE473" x="42.781935" y="32" width="1" height="7"></rect>
                        <rect id="Rectangle" fill="#FFE473" x="43.7810841" y="31" width="1" height="7"></rect>
                        <polygon id="Path" fill="#FFE473" points="21 44.4952798 46 31 46 31.5051808 21 45"></polygon>
                        <polygon id="Path" fill="#F79043" points="86 45.1761245 60.1310302 30 11 58.1087053 34.4390935 72"></polygon>
                        <polygon id="Path" fill="#514135" points="81 47.9652 57.4073541 34 16 58.1371366 37.5448846 71"></polygon>
                        <polygon id="Path" fill="#68574C" points="82 47.9648973 58.4073541 34 17 58.1345363 38.5424873 71"></polygon>
                        <polygon id="Path" fill="#FFB655" points="34.3226457 72.2521262 14 61 14 71.3234387 37 84"></polygon>
                        <polygon id="Path" fill="#F79043" points="33.3713689 73.8497321 21 67 21 73.2854795 35 81"></polygon>
                        <polygon id="Path" fill="#EF7835" points="32.8359602 73.3797013 24 68 24 72.9380632 34 79"></polygon>
                        <polygon id="Path" fill="#514135" points="32.9502232 73.4016866 25 69 25.0027711 73.0403906 34 78"></polygon>
                        <polygon id="Path" fill="#FFB655" points="18 62.0283946 9 57 9 91.793645 15.4680163 95"></polygon>
                        <polygon id="Path" fill="#FFB655" points="15 91.3236093 0 83 0 86.6773355 15 95"></polygon>
                        <polygon id="Path" fill="#FFB655" points="9 58.1315491 6 56 6.00221976 65.8661828 9 68"></polygon>
                        <polygon id="Path" fill="#FFC257" points="38.3367065 53.9461195 27 47 27 59.0309563 40 67"></polygon>
                        <polygon id="Path" fill="#EF7835" points="39.3354444 53.9474352 28 47 28 59.0325203 41 67"></polygon>
                        <polygon id="Path" fill="#A4B8BC" points="40.3359043 51.9462891 29 45 29 57.03125 42 65"></polygon>
                        <polygon id="Path" fill="#A4B8BC" points="40.3359043 48.9485815 29 42 29 54.0323258 42 62"></polygon>
                        <polygon id="Path" fill="#773800" opacity="0.3" style="mix-blend-mode: multiply;" points="38.3367065 47.9485608 27 41 27 53.0319328 40 61"></polygon>
                        <polygon id="Path" fill="#FFB655" points="106 60.3970478 92.8454917 15 37 47.4998371 51.1322312 93"></polygon>
                        <polygon id="Path" fill="#FFE473" points="94 14.3355324 69.3157214 0 12 34.2237477 36.1346355 49"></polygon>
                        <polygon id="Path" fill="#FFE473" points="44.0426053 84.5741381 31.1988247 46.8155589 12 33.5468938 14.8168462 32 43.8202742 48.4887889 56.8829579 67.5467331 104.264447 94.3560235 122 113.968496 118.87953 116"></polygon>
                        <polygon id="Path" fill="#FFB655" points="41.5977329 86.7107559 28.8904267 49.141916 12 37.1113855 12.2199602 34 41.3772882 50.8062793 54.3001943 69.767259 101.177402 96.4431312 118 116 90.8828759 114.640778"></polygon>
                        <polygon id="Path" fill="#F79043" points="93.2760083 112.989044 44.8667978 85.6060846 32.1713366 48.1400437 31.1546321 47.4190355 20 41 31.2812955 49.0193571 43.9748155 86.4863574 92.3859672 113.869797 115 115 114.167224 114.034818"></polygon>
                        <polygon id="Path" fill="#FFE473" points="117 112.994108 120.284535 115 177 82.2757974 174.186579 80"></polygon>
                        <polygon id="Path" fill="#FFC757" points="66.4092466 13 34 31.5463741 50.5868032 41 83 22.4536259"></polygon>
                        <polygon id="Path" fill="#FFE473" points="36.0568789 32 23 39.3721026 52 41 52 38.4943605"></polygon>
                        <polygon id="Path" fill="#FFB655" points="88 19.5298682 67 13 83.5326172 22"></polygon>
                        <path d="M53,73.1741433 C52.963261,72.3551883 52.5928973,71.6065879 52.0042233,71.161422 C51.4519412,70.7881557 51.0044777,71.0840303 51,71.824193 C51.0380399,72.6435247 51.4083529,73.3922901 51.99654,73.8391765 C52.5481097,74.2124428 52.9985753,73.9135916 53,73.1741433 Z" id="Path" fill="#EF7835"></path>
                        <path d="M53,72.4481445 C52.9806363,71.9020707 52.7947162,71.4033384 52.4997728,71.1062811 C52.2244813,70.8587049 52.0007951,71.0585343 52,71.55127 C52.0185485,72.0971687 52.203672,72.5963318 52.4980691,72.8942533 C52.7744586,73.1406507 53,72.9420591 53,72.4481445 Z" id="Path" fill="#FFB655"></path>
                        <path d="M11,62.1757375 C10.962363,61.3563194 10.5914461,60.60756 10.0023668,60.1618438 C9.45061461,59.7867838 9.00223958,60.086296 9,60.8258191 C9.03720226,61.64428 9.40727659,62.3923996 9.99539358,62.8380458 C10.5479093,63.21257 10.9970478,62.9152605 11,62.1757375 Z" id="Path" fill="#EF7835"></path>
                        <path d="M11,62.447515 C10.9812975,61.9019849 10.7959538,61.4031515 10.5012139,61.1050839 C10.2237691,60.8599663 10,61.0579459 10,61.5504201 C10.0185115,62.0967175 10.204482,62.5961283 10.5001138,62.8934405 C10.7764585,63.1414453 11,62.9418158 11,62.447515 Z" id="Path" fill="#FFB655"></path>
                        <path d="M42,53.1752918 C41.9622919,52.3556652 41.5913569,51.6065267 41.0019874,51.1597099 C40.4510803,50.7881694 40.0022422,51.0870211 40,51.8264706 C40.0367854,52.6448491 40.4070534,53.3930627 40.9957705,53.8386592 C41.5488687,54.2123428 41.9984713,53.9146818 42,53.1752918 Z" id="Path" fill="#EF7835"></path>
                        <path d="M42,53.4486413 C41.9819183,52.9028533 41.7966939,52.403497 41.5017638,52.1054197 C41.2254296,51.8592214 41.000569,52.0588194 41,52.5524533 C41.0185377,53.0981971 41.2045377,53.596992 41.5000948,53.893554 C41.7769981,54.1413431 42,53.9416861 42,53.4486413 Z" id="Path" fill="#FFB655"></path>
                        <path d="M14,37.4476999 C13.9681814,36.9023523 13.6001701,36.4025656 13.011953,36.1058589 C12.460619,35.8590408 12.0083244,36.0582468 12,36.5534903 C12.0301601,37.0987144 12.3984993,37.5985271 12.9876912,37.8937239 C13.537958,38.1411517 13.9955176,37.9419457 14,37.4476999 Z" id="Path" fill="#EF7835"></path>
                        <path d="M14,36.7221097 C13.9849825,36.4496191 13.8000975,36.1998447 13.5043948,36.052561 C13.2300646,35.929248 13.0056656,36.0304469 13,36.2773196 C13.0168593,36.5493937 13.2012935,36.7985591 13.4956052,36.9468682 C13.7738007,37.0713322 13.9992587,36.9693523 14,36.7221097 Z" id="Path" fill="#FFB655"></path>
                        <path d="M101,100.173924 C100.963238,99.3550927 100.592582,98.6066367 100.003488,98.1616947 C99.4522239,97.787289 99.0014767,98.0855514 99,98.8244803 C99.0366475,99.644384 99.4076719,100.393898 99.9974794,100.839508 C100.548489,101.212247 100.998523,100.913449 101,100.173924 Z" id="Path" fill="#EF7835"></path>
                        <path d="M100,99.4478457 C99.9809838,98.9022248 99.7950515,98.4036138 99.4997344,98.1062932 C99.2227155,97.8588721 99,98.0579871 99,98.5521224 C99.0184668,99.0979606 99.2042786,99.5970191 99.4997344,99.894323 C99.7756148,100.14086 99.9994687,99.9414508 100,99.4478457 Z" id="Path" fill="#FFB655"></path>
                        <polygon id="Path" fill="#F79043" points="59.426568 93.7211507 59 74 62 95"></polygon>
                        <polygon id="Path" fill="#F79043" points="91.4280709 111.72106 91 92 94 113"></polygon>
                        <polygon id="Path" fill="#F79043" points="73.4275701 101.720155 73 82 76 103"></polygon>
                        <polygon id="Path" fill="#FFE473" points="4 55.8116789 16.8611343 49 21 51.1901831 8.13734328 58"></polygon>
                        <rect id="Rectangle" fill="#FFB655" x="33.7819107" y="66" width="1" height="7"></rect>
                        <rect id="Rectangle" fill="#FFB655" x="30.781546" y="65" width="1" height="7"></rect>
                        <rect id="Rectangle" fill="#FFB655" x="28.7818135" y="63" width="1" height="7"></rect>
                        <rect id="Rectangle" fill="#FFB655" x="26.7826401" y="61" width="1" height="7"></rect>
                        <rect id="Rectangle" fill="#FFB655" x="23.7824942" y="60" width="1" height="7"></rect>
                        <rect id="Rectangle" fill="#FFB655" x="21.7822754" y="60" width="1" height="7"></rect>
                        <rect id="Rectangle" fill="#FFB655" x="19.7814488" y="59" width="1" height="7"></rect>
                        <rect id="Rectangle" fill="#FFB655" x="16.7818135" y="56" width="1" height="7"></rect>
                        <rect id="Rectangle" fill="#FFB655" x="13.7819107" y="55" width="1" height="7"></rect>
                        <rect id="Rectangle" fill="#FFB655" x="11.7814245" y="54" width="1" height="7"></rect>
                        <rect id="Rectangle" fill="#FFB655" x="8.78191071" y="53" width="1" height="7"></rect>
                        <polygon id="Path" fill="#FFB655" points="34 65.4956905 9 52 9 52.5052306 34 66"></polygon>
                    </g>
                </g>
            </g>
        </g>
    </g>
</svg>