<?xml version="1.0" encoding="UTF-8"?>
<svg width="20px" height="20px" viewBox="0 0 20 20" version="1.1" xmlns="http://www.w3.org/2000/svg" xmlns:xlink="http://www.w3.org/1999/xlink">
    <!-- Generator: sketchtool 57.1 (101010) - https://sketch.com -->
    <title>A9978DFF-C427-416A-8381-B75D4FBD6F36</title>
    <desc>Created with sketchtool.</desc>
    <g id="👮-Admin" stroke="none" stroke-width="1" fill="none" fill-rule="evenodd">
        <g id="For-Admin---List-Suplier" transform="translate(-726.000000, -108.000000)" fill="#BF2F30">
            <g id="Stacked-Group" transform="translate(513.000000, 105.000000)">
                <g id="Group-11-Copy" transform="translate(211.000000, 0.000000)">
                    <g id="ic_approval_finance" transform="translate(0.000000, 1.000000)">
                        <g id="907830" transform="translate(2.000000, 2.000000)">
                            <path d="M10,0 C12.6710938,0 15.1823047,1.04019531 17.0710547,2.92890625 C18.9598047,4.81769531 20,7.32890625 20,10 C20,12.6710938 18.9598047,15.1823047 17.0710547,17.0710547 C15.1823047,18.9598047 12.6710938,20 10,20 C7.32886719,20 4.81765625,18.9598047 2.92890625,17.0710547 C1.04015625,15.1823047 0,12.6710938 0,10 C0,7.32890625 1.04015625,4.81765625 2.92890625,2.92890625 C4.81761719,1.04019531 7.32886719,0 10,0 Z M10,1.171875 C5.13214844,1.171875 1.171875,5.13214844 1.171875,10 C1.171875,14.8678516 5.13214844,18.828125 10,18.828125 C14.8678516,18.828125 18.828125,14.8678516 18.828125,10 C18.828125,5.13214844 14.8678516,1.171875 10,1.171875 Z M13.9489453,6.79140625 C14.1777344,6.56261719 14.54875,6.56261719 14.7775391,6.79136719 C15.0063672,7.02019531 15.0063672,7.39121094 14.7775391,7.62 L14.7775391,7.62 L9.18902344,13.2085156 C9.07464844,13.3228906 8.92464844,13.3801172 8.77472656,13.3801172 C8.62480469,13.3801172 8.47484375,13.3229297 8.36042969,13.2085156 L8.36042969,13.2085156 L5.22242187,10.0705078 C4.99359375,9.84167969 4.99359375,9.47066406 5.22242187,9.241875 C5.45125,9.01308594 5.82226562,9.01308594 6.05105469,9.241875 L6.05105469,9.241875 L8.77476562,11.9655859 Z" id="Combined-Shape"></path>
                        </g>
                    </g>
                </g>
            </g>
        </g>
    </g>
</svg>