<?xml version="1.0" encoding="UTF-8"?>
<svg width="16px" height="14px" viewBox="0 0 16 14" version="1.1" xmlns="http://www.w3.org/2000/svg" xmlns:xlink="http://www.w3.org/1999/xlink">
    <!-- Generator: sketchtool 56.3 (101010) - https://sketch.com -->
    <title>04A05BCA-2578-4449-804C-6420239EDA41</title>
    <desc>Created with sketchtool.</desc>
    <g id="👷-Suplier" stroke="none" stroke-width="1" fill="none" fill-rule="evenodd">
        <g id="Supplier---Tax-Setup-1" transform="translate(-890.000000, -800.000000)" fill="#7488BD">
            <g id="Group-5-Copy" transform="translate(878.000000, 783.000000)">
                <g id="Molecule-/-Field-/-Textfield-with-icon-Copy-3">
                    <g id="Group-Copy-2">
                        <g id="ic_attach" transform="translate(10.000000, 14.000000)">
                            <g id="130569" transform="translate(2.000000, 3.000000)">
                                <path d="M14.6216913,1.38689933 C12.7531275,-0.48166443 9.76338255,-0.388241611 7.98818792,1.38689933 L0.980993289,8.39409396 C-0.327033557,9.70212081 -0.327033557,11.7575302 0.980993289,13.065557 C1.63500671,13.7195705 2.47586577,13.9998389 3.31672483,13.9998389 C4.15758389,13.9998389 4.99844295,13.6261477 5.55903356,12.9721342 L11.9122148,6.61895302 C12.659651,5.87151678 12.659651,4.75038926 11.9122148,4.00295302 C11.1647785,3.25551678 10.043651,3.25551678 9.29621477,4.00295302 L4.90502013,8.39414765 C4.7181745,8.58099329 4.7181745,8.86131544 4.90502013,9.04816107 C5.09186577,9.23500671 5.37218792,9.23500671 5.55903356,9.04816107 L9.95022819,4.65696644 C10.3239195,4.28327517 10.8845101,4.28327517 11.258255,4.65696644 C11.6319463,5.03065772 11.6319463,5.59124832 11.258255,5.96499329 L4.90502013,12.3181745 C4.06416107,13.2524564 2.56928859,13.2524564 1.63500671,12.3181745 C0.700724832,11.4773154 0.700724832,9.98244295 1.63500671,9.04816107 L8.64220134,2.04091275 C10.1370738,0.546040268 12.4728054,0.546040268 13.9676779,2.04091275 C15.4625503,3.53578523 15.4625503,5.87151678 13.9676779,7.36638926 L8.92252349,12.4115436 C8.73567785,12.5983893 8.73567785,12.8787114 8.92252349,13.065557 C9.10936913,13.2524027 9.38969128,13.2524027 9.57653691,13.065557 L14.6216913,8.02040268 C16.3968322,6.15183893 16.3968322,3.16209396 14.6216913,1.38689933 Z" id="Path"></path>
                            </g>
                        </g>
                    </g>
                </g>
            </g>
        </g>
    </g>
</svg>