<?xml version="1.0" encoding="UTF-8"?>
<svg width="20px" height="20px" viewBox="0 0 20 20" version="1.1" xmlns="http://www.w3.org/2000/svg" xmlns:xlink="http://www.w3.org/1999/xlink">
    <!-- Generator: sketchtool 57.1 (101010) - https://sketch.com -->
    <title>0DFF5B79-4495-4950-BB23-8270993AC697</title>
    <desc>Created with sketchtool.</desc>
    <g id="👮-Admin" stroke="none" stroke-width="1" fill="none" fill-rule="evenodd">
        <g id="For-Admin---List-Suplier-1" transform="translate(-440.000000, -108.000000)" fill="#ACBADF">
            <g id="Stacked-Group" transform="translate(438.000000, 105.000000)">
                <g id="Group-11-Copy-2">
                    <g id="ic_invite_sales-copy-Atoms-/-Icon-/-Data-supplier" transform="translate(0.000000, 1.000000)">
                        <g id="417725" transform="translate(2.000000, 2.000000)">
                            <path d="M12.3419141,5.73558594 C12.5163672,5.73558594 12.6576953,5.87695312 12.6576953,6.05136719 C12.6576953,6.20086496 12.5538624,6.32608339 12.4143362,6.35880911 L12.3419141,6.36714844 L0.6315625,6.36714844 L0.6315625,10.2455078 L12.5137109,10.2455078 C12.5983672,9.33485156 13.116163,8.54836267 13.8585989,8.09403253 L14.0210547,8.00183594 L14.0210547,6.36714844 L13.3989062,6.36714844 C13.2244531,6.36714844 13.083125,6.22578125 13.083125,6.05136719 C13.083125,5.90186942 13.1869579,5.77665099 13.3264841,5.74392527 L13.3989062,5.73558594 L14.3367969,5.73558594 C14.4863281,5.73558594 14.6115226,5.83941885 14.6442408,5.97894508 L14.6525781,6.05136719 L14.6525781,7.761875 C14.7976562,7.72601562 14.9470052,7.70114583 15.0997917,7.68855035 L15.3314453,7.67902344 L15.5410156,7.67902344 C17.0439149,7.67902344 18.2769923,8.85647414 18.3662698,10.3373277 L18.3714453,10.5094922 L18.3714453,11.3480469 C18.648125,11.5515234 18.8280469,11.8791016 18.8280469,12.2480469 C18.8280469,12.8619141 18.3301562,13.3614844 17.7169922,13.3646875 C17.5749436,13.8661111 17.25629,14.2941088 16.8323073,14.5760057 L16.6685156,14.6747266 L16.6685156,15.0775781 L18.5030469,15.8132031 C18.99875,15.9839145 19.8987169,16.6272193 19.9920771,17.8962658 L19.9999609,18.1135937 L19.9999609,19.6810937 C19.9999609,19.8305915 19.896128,19.9580772 19.7566018,19.9914507 L19.6841797,19.9999609 L13.3523828,19.9999609 C13.1779297,19.9999609 13.0366016,19.8586328 13.0366016,19.6841797 C13.0366016,19.5347154 13.1404345,19.4094731 13.2799607,19.3767398 L13.3523828,19.3683984 L19.3683984,19.3683984 L19.3683984,18.1136328 C19.3683984,16.8003906 18.3348437,16.4235156 18.2908594,16.4081641 L18.2833057,16.4054248 L18.2757812,16.4025391 L16.5503516,15.710625 L15.6634766,16.6307031 C15.6197656,16.676084 15.5637939,16.7070068 15.5030927,16.7201758 L15.4410937,16.7273047 C15.3756738,16.727334 15.3148462,16.7092798 15.2636371,16.6760095 L15.2158203,16.6377734 L14.3090234,15.7546094 L14.2958496,15.7408105 L14.2836719,15.7264844 L12.555,16.4033984 C12.5502344,16.4053125 12.5453516,16.4070703 12.5404687,16.4087109 C12.5003906,16.4227012 11.5657094,16.7635656 11.4723414,17.9235246 L11.4648437,18.1135547 L11.4648437,19.3683203 L12.3419922,19.3683203 C12.5164453,19.3683203 12.6577734,19.5096875 12.6577734,19.6841016 C12.6577734,19.8336328 12.5539405,19.9588847 12.4144143,19.9916193 L12.3419922,19.9999609 L11.1490625,19.9999609 C10.9995647,19.9999609 10.8743463,19.8957549 10.8416206,19.7561467 L10.8332812,19.6837109 L10.8332812,18.1135156 C10.8332812,17.5450087 10.9909973,17.0911622 11.2134527,16.7396306 L11.2997266,16.6125781 L0.31578125,16.6125781 C0.166316964,16.6125781 0.0410746173,16.5087452 0.0083413812,16.369219 L-1.77635684e-14,16.2967969 L-1.77635684e-14,11.786875 C-1.77635684e-14,11.6373437 0.103861607,11.5121492 0.243371447,11.479431 L0.31578125,11.4710937 L12.3554687,11.4710937 L12.4254834,11.4048047 L12.5009766,11.3447266 L12.5009766,10.8770703 L0.31578125,10.8770703 C0.166316964,10.8770703 0.0410746173,10.7732374 0.0083413812,10.6337112 L-1.77635684e-14,10.5612891 L-1.77635684e-14,6.05136719 C-1.77635684e-14,5.90186942 0.103861607,5.77665099 0.243371447,5.74392527 L0.31578125,5.73558594 L12.3419141,5.73558594 Z M12.0496094,12.1027344 L0.6315625,12.1027344 L0.6315625,15.9810937 L11.9210547,15.9810937 C11.9391797,15.9810937 11.956875,15.9829687 11.9741797,15.9858984 C12.0605599,15.9327995 12.1439887,15.8895443 12.2210402,15.8559476 L12.3314062,15.8127734 L14.2135547,15.0756641 L14.2135547,14.6746875 C13.7642839,14.4304167 13.4114328,14.0309298 13.2263595,13.5489017 L13.1649609,13.3644141 C12.5408984,13.3648437 12.0398437,12.8638672 12.0398437,12.2480859 C12.0398437,12.1987891 12.0433594,12.1503516 12.0496094,12.1027344 Z M16.036875,14.8984375 C15.95125,14.9144271 15.8639236,14.9255729 15.7751273,14.9312269 L15.6408594,14.9355078 L15.2412109,14.9355078 C15.1509766,14.9355078 15.0621311,14.9296571 14.9748481,14.9186617 L14.8451172,14.8983984 L14.8451172,15.3951562 L15.4289844,15.9638672 L16.036875,15.333125 L16.036875,14.8984375 Z M3.22617187,12.6795703 C3.40054687,12.6795703 3.54195312,12.8208984 3.54195312,12.9953516 C3.54195312,13.1448158 3.43809152,13.2700582 3.29858168,13.3027914 L3.22617187,13.3111328 L1.94910156,13.3111328 L1.94910156,14.7725781 L3.51328125,14.7725781 L3.51328125,14.5237109 C3.51328125,14.3492578 3.65464844,14.2079297 3.8290625,14.2079297 C3.97852679,14.2079297 4.10376913,14.3117626 4.13650237,14.4512642 L4.14484375,14.5236719 L4.14484375,15.0883594 C4.14484375,15.2378906 4.04098214,15.3630851 3.9014723,15.3958033 L3.8290625,15.4041406 L1.63332031,15.4041406 C1.48385603,15.4041406 1.35861368,15.3003077 1.32588044,15.1607815 L1.31753906,15.0883594 L1.31753906,12.9953516 C1.31753906,12.8458203 1.42140067,12.7206258 1.56091051,12.6879076 L1.63332031,12.6795703 L3.22617187,12.6795703 Z M12.1666016,14.4228906 C12.3410547,14.4228906 12.4824219,14.5642969 12.4824219,14.7386719 C12.4824219,14.8881362 12.378589,15.0133785 12.2390627,15.0461117 L12.1666406,15.0544531 L5.32738281,15.0544531 C5.15300781,15.0544531 5.01160156,14.9130859 5.01160156,14.7386719 C5.01160156,14.5891406 5.11546317,14.4639461 5.25497301,14.4312279 L5.32738281,14.4228906 L12.1666016,14.4228906 Z M4.44628906,12.7655859 C4.55503906,12.8681083 4.57493702,13.029607 4.50308024,13.1535797 L4.45949219,13.2119922 L3.17773437,14.5720703 C3.13296875,14.6195605 3.07499756,14.651604 3.01212646,14.6646576 L2.94792969,14.67125 C2.88057617,14.6708105 2.81676025,14.6498706 2.76402954,14.6121545 L2.71527344,14.5689844 L2.16140625,13.9656641 C2.04351562,13.8372266 2.05203125,13.6374609 2.18050781,13.5194922 C2.2905971,13.4184766 2.45311942,13.4101873 2.57157241,13.4908609 L2.62667969,13.5385937 L2.9509375,13.8917969 L3.99988281,12.7788281 C4.11949219,12.651875 4.31933594,12.6459375 4.44628906,12.7655859 Z M16.2316016,10.5139844 C15.4681641,11.2208385 14.4175321,11.4329628 13.832686,11.4967238 L13.7147656,11.5082422 L13.7147656,12.7774219 C13.7147656,13.5723416 14.3255945,14.2273327 15.102546,14.297656 L15.2412891,14.3039062 L15.6409375,14.3039062 C16.4358203,14.3039062 17.0907048,13.6931122 17.1610493,12.9161975 L17.1673047,12.7774609 L17.1673047,11.4382031 C16.6899219,11.2427344 16.3989453,10.8444141 16.2316016,10.5139844 Z M8.81003906,13.0291797 C8.98441406,13.0291797 9.12582031,13.1705078 9.12582031,13.3449609 C9.12582031,13.4944922 9.02195871,13.6196867 8.88244887,13.6524049 L8.81003906,13.6607422 L5.32738281,13.6607422 C5.15296875,13.6607422 5.01160155,13.519375 5.01160155,13.3449609 C5.01160155,13.1954297 5.11546317,13.0702352 5.25497301,13.037517 L5.32738281,13.0291797 L8.81003906,13.0291797 Z M13.0831641,11.7689844 C12.8503906,11.8046484 12.6713672,12.0055469 12.6714062,12.248125 C12.6714062,12.4602783 12.8084711,12.6406104 12.9986511,12.7062706 L13.0831641,12.7271484 L13.0831641,11.7689844 Z M17.7988672,11.7712109 L17.7988672,12.7249219 C18.0246875,12.6834375 18.1964844,12.485625 18.1964844,12.2480859 C18.1964844,12.0105469 18.0246875,11.8126562 17.7988672,11.7712109 Z M15.5410547,8.310625 L15.3314844,8.310625 C14.1717018,8.310625 13.2187442,9.2131572 13.1380024,10.3527284 L13.1324609,10.5095312 L13.1324609,11.0393359 C13.1341016,11.0367187 13.1355469,11.0340234 13.1372656,11.0314844 C13.1400391,11.0273828 13.1431641,11.0235937 13.1461328,11.0196484 C13.1492187,11.0154297 13.1521875,11.0111719 13.1554687,11.0071875 C13.1584375,11.0036328 13.1616797,11.0003906 13.1647656,10.9969922 L13.1702441,10.9908252 L13.1758984,10.9848047 L13.1855859,10.9760156 C13.1898047,10.9721875 13.1939453,10.9682031 13.1983594,10.9645312 L13.2030957,10.9609326 L13.2152344,10.9517969 L13.2226953,10.9464062 L13.2322266,10.940625 L13.24875,10.9306641 C13.2522656,10.92875 13.2558984,10.9272266 13.2594922,10.9254687 C13.265,10.9227344 13.2705078,10.9198828 13.2762891,10.9174219 C13.2808203,10.9155469 13.2855859,10.9140625 13.2901562,10.9123828 C13.2951562,10.9105469 13.3000781,10.9084766 13.3051953,10.906875 C13.3106641,10.9051172 13.3164062,10.9039453 13.3220312,10.9025391 C13.3265234,10.9014453 13.3308984,10.9000781 13.3353906,10.8991406 C13.3424219,10.8976953 13.3496484,10.8967969 13.3568359,10.8958594 L13.3617578,10.8950732 L13.3666797,10.894375 L13.3989062,10.8927344 L13.4117055,10.8926072 C13.5701721,10.8899961 15.2874531,10.8353016 16.0850781,9.73253906 C16.1577734,9.63195312 16.2826953,9.58320312 16.4042187,9.60824219 C16.5258203,9.63308594 16.6215625,9.72683594 16.6489844,9.84789062 C16.6508594,9.85582031 16.8659766,10.7442578 17.5531641,10.9005859 C17.5561328,10.9013281 17.5589844,10.9022656 17.5619141,10.9030859 L17.571665,10.9056592 L17.5813281,10.9085547 L17.5932422,10.9128906 C17.5988672,10.915 17.6045703,10.9170312 17.6100781,10.9194922 L17.6168848,10.9226807 L17.6236328,10.9260156 L17.6371094,10.9329687 C17.6421094,10.9357812 17.6469531,10.9388281 17.6517578,10.9419141 C17.6554687,10.9442187 17.6591406,10.9464844 17.6627344,10.9489844 C17.6676953,10.9524219 17.6724609,10.9560937 17.6771875,10.9598047 C17.6804297,10.9623828 17.6837109,10.9648437 17.686875,10.9675 C17.6914062,10.9713672 17.6957031,10.9753516 17.7,10.9794141 C17.703125,10.9824219 17.7062891,10.9853516 17.7092969,10.9884375 C17.7131641,10.9924609 17.7167969,10.9965234 17.7204297,11.0007031 C17.7236328,11.0042578 17.7267187,11.0078516 17.7297266,11.0116016 C17.7328516,11.0155078 17.7357812,11.0195312 17.7386719,11.0235547 L17.7392676,11.0243945 L17.7399219,10.5095312 C17.7399219,9.29707031 16.7535156,8.310625 15.5410547,8.310625 Z M3.22613281,6.94402344 C3.40050781,6.94402344 3.54191406,7.08535156 3.54191406,7.25980469 C3.54191406,7.40933594 3.43805246,7.53453045 3.29854262,7.56724866 L3.22613281,7.57554687 L1.94910156,7.57554687 L1.94910156,9.03699219 L3.51328125,9.03699219 L3.51328125,8.788125 C3.51328125,8.61367187 3.65464844,8.47234375 3.8290625,8.47234375 C3.97852679,8.47234375 4.10376913,8.57617666 4.13650237,8.7157029 L4.14484375,8.788125 L4.14484375,9.3528125 C4.14484375,9.50234375 4.04098214,9.62753827 3.9014723,9.66025647 L3.8290625,9.66859375 L1.63332031,9.66859375 C1.48385603,9.66859375 1.35861368,9.56476084 1.32588044,9.4252346 L1.31753906,9.3528125 L1.31753906,7.25980469 C1.31753906,7.11027344 1.42140067,6.98507892 1.56091051,6.95236072 L1.63332031,6.94402344 L3.22613281,6.94402344 Z M12.2160156,8.68738281 C12.3904297,8.68738281 12.5317969,8.82871094 12.5317969,9.00316406 C12.5317969,9.15269531 12.427964,9.27788983 12.2884377,9.31060803 L12.2160156,9.31894531 L5.32738281,9.31894531 C5.15296875,9.31894531 5.01160155,9.17753906 5.01160155,9.00316406 C5.01160155,8.85366629 5.11546317,8.72844786 5.25497301,8.69572214 L5.32738281,8.68738281 L12.2160156,8.68738281 Z M4.44628906,7.02996094 C4.55503906,7.13251674 4.57493702,7.29402025 4.50308024,7.41799369 L4.45949219,7.47640625 L3.17773437,8.83648437 C3.13296875,8.88397461 3.07499756,8.91601807 3.01212646,8.92907166 L2.94792969,8.93566406 C2.88057617,8.93522461 2.81676025,8.91428467 2.76402954,8.8765686 L2.71527344,8.83339844 L2.16140625,8.23007812 C2.04351562,8.10164062 2.05203125,7.901875 2.18050781,7.78390625 C2.2905971,7.68285714 2.45311942,7.67459184 2.57157241,7.75527287 L2.62667969,7.80300781 L2.9509375,8.15621094 L3.99988281,7.04324219 C4.11949219,6.91628906 4.31933594,6.91035156 4.44628906,7.02996094 Z M8.81003906,7.29363281 C8.98441406,7.29363281 9.12582031,7.43496094 9.12582031,7.60941406 C9.12582031,7.75894531 9.02195871,7.88413983 8.88244887,7.91685803 L8.81003906,7.92519531 L5.32738281,7.92519531 C5.15296875,7.92519531 5.01160155,7.78382812 5.01160155,7.60941406 C5.01160155,7.45988281 5.11546317,7.3346883 5.25497301,7.30197009 L5.32738281,7.29363281 L8.81003906,7.29363281 Z M12.3419531,0 C12.5163672,0 12.6576953,0.141367187 12.6576953,0.31578125 C12.6576953,0.490195312 12.5163672,0.6315625 12.3419141,0.6315625 L12.3419141,0.6315625 L0.6315625,0.6315625 L0.6315625,4.50996094 L14.0210547,4.50996094 L14.0210547,0.6315625 L13.3989453,0.6315625 C13.2245313,0.6315625 13.0831641,0.490195312 13.0831641,0.31578125 C13.0831641,0.141367187 13.2244922,0 13.3989453,0 L13.3989453,0 L14.3368359,0 C14.5112891,0 14.6526172,0.141328125 14.6526172,0.31578125 L14.6526172,0.31578125 L14.6526172,4.82582031 C14.6526172,5.00027344 14.5112891,5.14160156 14.3368359,5.14160156 L14.3368359,5.14160156 L0.31578125,5.14160156 C0.14140625,5.14160156 1.33226763e-14,5.00019531 1.33226763e-14,4.82578125 L1.33226763e-14,4.82578125 L1.33226763e-14,0.31578125 C1.33226763e-14,0.14140625 0.14140625,0 0.31578125,0 L0.31578125,0 Z M3.22613281,1.20851562 C3.40050781,1.20851562 3.54191406,1.34984375 3.54191406,1.52429687 C3.54191406,1.67382812 3.43805246,1.79902264 3.29854262,1.83174084 L3.22613281,1.84007812 L1.94910156,1.84007812 L1.94910156,3.30144531 L3.51328125,3.30144531 L3.51328125,3.05257812 C3.51328125,2.87816406 3.65464844,2.73679687 3.8290625,2.73679687 C3.97852679,2.73679687 4.10376913,2.84062978 4.13650237,2.98015602 L4.14484375,3.05257812 L4.14484375,3.61730469 C4.14484375,3.76680246 4.04098214,3.89202089 3.9014723,3.92474661 L3.8290625,3.93308594 L1.63332031,3.93308594 C1.48385603,3.93308594 1.35861368,3.82925303 1.32588044,3.68972679 L1.31753906,3.61730469 L1.31753906,1.52429687 C1.31753906,1.37476562 1.42140067,1.24957111 1.56091051,1.21685291 L1.63332031,1.20851562 L3.22613281,1.20851562 Z M12.2926953,2.95183594 C12.4671094,2.95183594 12.6084766,3.09320312 12.6084766,3.26761719 C12.6084766,3.41711496 12.5046437,3.54233339 12.3651174,3.57505911 L12.2926953,3.58339844 L5.32738281,3.58339844 C5.15296875,3.58339844 5.01160156,3.44203125 5.01160156,3.26761719 C5.01160156,3.11811942 5.11546317,2.99290099 5.25497301,2.96017527 L5.32738281,2.95183594 L12.2926953,2.95183594 Z M4.44628906,1.29449219 C4.55503906,1.39698103 4.57493702,1.55850367 4.50305564,1.68248394 L4.45945312,1.74089844 L3.17769531,3.10097656 C3.13292969,3.1484668 3.0749585,3.18051025 3.0120874,3.19356384 L2.94789062,3.20015625 C2.88053711,3.1997168 2.81672119,3.17877686 2.76399048,3.14106079 L2.71523437,3.09789063 L2.16140625,2.49457031 C2.04351562,2.36613281 2.05203125,2.16636719 2.18050781,2.04839844 C2.2905971,1.94734933 2.45311942,1.93911272 2.57157241,2.01977736 L2.62667969,2.0675 L2.9509375,2.42070313 L3.99988281,1.30773438 C4.11949219,1.18082031 4.31933594,1.17488281 4.44628906,1.29449219 Z M8.81003906,1.55816406 C8.98441406,1.55816406 9.12582031,1.69949219 9.12582031,1.87394531 C9.12582031,2.02347656 9.02195871,2.14867108 8.88244887,2.18138928 L8.81003906,2.18972656 L5.32738281,2.18972656 C5.15296875,2.18972656 5.01160155,2.04839844 5.01160155,1.87394531 C5.01160155,1.72441406 5.11546317,1.59921955 5.25497301,1.56650134 L5.32738281,1.55816406 L8.81003906,1.55816406 Z" id="Combined-Shape"></path>
                        </g>
                    </g>
                </g>
            </g>
        </g>
    </g>
</svg>