<?xml version="1.0" encoding="UTF-8"?>
<svg xmlns="http://www.w3.org/2000/svg" xmlns:xlink="http://www.w3.org/1999/xlink" width="16pt" height="16pt" viewBox="0 0 16 16" version="1.1">
<g id="surface1">
<path style=" stroke:none;fill-rule:nonzero;fill:rgb(14.509804%,23.137255%,47.058824%);fill-opacity:1;" d="M 15.941406 7.8125 C 15.816406 7.628906 12.785156 3.332031 8 3.332031 C 3.890625 3.332031 0.234375 7.601562 0.078125 7.785156 C -0.0273438 7.910156 -0.0273438 8.089844 0.078125 8.214844 C 0.234375 8.398438 3.890625 12.667969 8 12.667969 C 12.105469 12.667969 15.765625 8.398438 15.921875 8.214844 C 16.019531 8.101562 16.027344 7.933594 15.941406 7.8125 Z M 8 12 C 4.707031 12 1.578125 8.859375 0.78125 8 C 1.574219 7.140625 4.703125 4 8 4 C 11.851562 4 14.570312 7.136719 15.234375 7.980469 C 14.46875 8.816406 11.320312 12 8 12 Z M 8 12 "/>
<path style=" stroke:none;fill-rule:nonzero;fill:rgb(14.509804%,23.137255%,47.058824%);fill-opacity:1;" d="M 8 5.332031 C 6.527344 5.332031 5.332031 6.527344 5.332031 8 C 5.332031 9.46875 6.527344 10.667969 8 10.667969 C 9.46875 10.667969 10.667969 9.46875 10.667969 8 C 10.667969 6.527344 9.46875 5.332031 8 5.332031 Z M 8 10 C 6.898438 10 6 9.101562 6 8 C 6 6.898438 6.898438 6 8 6 C 9.101562 6 10 6.898438 10 8 C 10 9.101562 9.101562 10 8 10 Z M 8 10 "/>
</g>
</svg>
