<?xml version="1.0" encoding="UTF-8"?>
<svg xmlns="http://www.w3.org/2000/svg" xmlns:xlink="http://www.w3.org/1999/xlink" width="16pt" height="16pt" viewBox="0 0 16 16" version="1.1">
<g id="surface1">
<path style=" stroke:none;fill-rule:nonzero;fill:rgb(67.45098%,72.941176%,87.45098%);fill-opacity:1;" d="M 9.886719 6.113281 C 9.753906 5.984375 9.542969 5.984375 9.414062 6.113281 C 9.285156 6.246094 9.285156 6.457031 9.414062 6.585938 C 9.792969 6.964844 10 7.464844 10 8 C 10 9.101562 9.101562 10 8 10 C 7.464844 10 6.964844 9.792969 6.585938 9.414062 C 6.457031 9.285156 6.246094 9.285156 6.113281 9.414062 C 5.984375 9.542969 5.984375 9.753906 6.113281 9.886719 C 6.617188 10.390625 7.289062 10.667969 8 10.667969 C 9.46875 10.667969 10.667969 9.46875 10.667969 8 C 10.667969 7.285156 10.390625 6.617188 9.886719 6.113281 Z M 9.886719 6.113281 "/>
<path style=" stroke:none;fill-rule:nonzero;fill:rgb(67.45098%,72.941176%,87.45098%);fill-opacity:1;" d="M 8.464844 5.378906 C 8.3125 5.351562 8.160156 5.332031 8 5.332031 C 6.53125 5.332031 5.332031 6.527344 5.332031 8 C 5.332031 8.160156 5.351562 8.3125 5.378906 8.464844 C 5.410156 8.625 5.550781 8.738281 5.707031 8.738281 C 5.726562 8.738281 5.746094 8.738281 5.765625 8.734375 C 5.945312 8.703125 6.066406 8.527344 6.035156 8.347656 C 6.015625 8.234375 6 8.121094 6 8 C 6 6.898438 6.898438 6 8 6 C 8.121094 6 8.234375 6.015625 8.347656 6.035156 C 8.527344 6.070312 8.703125 5.945312 8.734375 5.765625 C 8.765625 5.585938 8.644531 5.410156 8.464844 5.378906 Z M 8.464844 5.378906 "/>
<path style=" stroke:none;fill-rule:nonzero;fill:rgb(67.45098%,72.941176%,87.45098%);fill-opacity:1;" d="M 15.921875 7.785156 C 15.84375 7.695312 14.042969 5.589844 11.554688 4.300781 C 11.394531 4.21875 11.191406 4.28125 11.105469 4.445312 C 11.019531 4.609375 11.085938 4.808594 11.25 4.894531 C 13.164062 5.886719 14.695312 7.433594 15.21875 8 C 14.425781 8.859375 11.296875 12 8 12 C 6.882812 12 5.753906 11.730469 4.648438 11.195312 C 4.484375 11.117188 4.285156 11.1875 4.203125 11.351562 C 4.121094 11.515625 4.191406 11.714844 4.359375 11.796875 C 5.554688 12.375 6.78125 12.667969 8 12.667969 C 12.105469 12.667969 15.765625 8.398438 15.921875 8.214844 C 16.027344 8.089844 16.027344 7.910156 15.921875 7.785156 Z M 15.921875 7.785156 "/>
<path style=" stroke:none;fill-rule:nonzero;fill:rgb(67.45098%,72.941176%,87.45098%);fill-opacity:1;" d="M 10.1875 3.71875 C 9.429688 3.460938 8.691406 3.332031 8 3.332031 C 3.894531 3.332031 0.234375 7.601562 0.078125 7.785156 C -0.0195312 7.898438 -0.0273438 8.066406 0.0585938 8.191406 C 0.105469 8.257812 1.207031 9.820312 3.117188 11.089844 C 3.175781 11.128906 3.238281 11.144531 3.300781 11.144531 C 3.410156 11.144531 3.515625 11.09375 3.578125 10.996094 C 3.679688 10.84375 3.640625 10.636719 3.484375 10.535156 C 2.082031 9.601562 1.125 8.476562 0.765625 8.019531 C 1.53125 7.183594 4.679688 4 8 4 C 8.621094 4 9.285156 4.117188 9.976562 4.347656 C 10.148438 4.410156 10.339844 4.3125 10.398438 4.140625 C 10.457031 3.964844 10.363281 3.777344 10.1875 3.71875 Z M 10.1875 3.71875 "/>
<path style=" stroke:none;fill-rule:nonzero;fill:rgb(67.45098%,72.941176%,87.45098%);fill-opacity:1;" d="M 13.902344 2.097656 C 13.773438 1.96875 13.5625 1.96875 13.429688 2.097656 L 2.097656 13.429688 C 1.96875 13.5625 1.96875 13.773438 2.097656 13.902344 C 2.164062 13.96875 2.246094 14 2.332031 14 C 2.417969 14 2.503906 13.96875 2.570312 13.902344 L 13.902344 2.570312 C 14.03125 2.4375 14.03125 2.226562 13.902344 2.097656 Z M 13.902344 2.097656 "/>
</g>
</svg>
