<?xml version="1.0" encoding="UTF-8"?>
<svg width="18px" height="18px" viewBox="0 0 18 18" version="1.1" xmlns="http://www.w3.org/2000/svg" xmlns:xlink="http://www.w3.org/1999/xlink">
    <!-- Generator: sketchtool 57.1 (101010) - https://sketch.com -->
    <title>3B0DD2F3-97C0-404C-91DE-AAA17443B762</title>
    <desc>Created with sketchtool.</desc>
    <g id="👷-Suplier" stroke="none" stroke-width="1" fill="none" fill-rule="evenodd">
        <g id="For-Suplier---Home---Dashboard" transform="translate(-974.000000, -483.000000)" fill="#ACBADF">
            <g id="Group-16" transform="translate(958.000000, 460.000000)">
                <g id="ic_invoice_list" transform="translate(15.000000, 22.000000)">
                    <g id="856039" transform="translate(1.250000, 1.250000)">
                        <path d="M15.6770944,-2.22044605e-15 C16.6330318,0.00113647457 17.4167804,0.737145004 17.4937911,1.67347658 L17.4999996,1.8229052 L17.4999996,6.92706029 L16.7708443,6.92706029 L16.7708443,1.8229052 C16.7708443,1.25911812 16.3442679,0.794955851 15.7962698,0.735573269 L15.6770944,0.729155246 L8.75,0.729 L8.75,2.55209464 C8.75,3.11588174 8.32342351,3.580044 7.77542541,3.63942659 L7.65624996,3.64584461 L6.92709466,3.64584461 L6.92709466,2.91668936 L7.65624996,2.91668936 C7.83243344,2.91668936 7.97943868,2.79170706 8.01343712,2.62557102 L8.0208447,2.55209464 L8.02,1.245 L7.07,2.194 L5.83334462,3.43218739 L5.833,4.375 L8.02084455,4.375 C8.82625467,4.375 9.47915504,5.02786623 9.47915504,5.83331058 C9.47915504,6.59137586 8.90077704,7.2143157 8.16125691,7.28497967 L8.02081037,7.29165534 L5.833,7.291 L5.83334457,15.6770605 C5.83334457,16.2408476 6.25992104,16.7050099 6.80791911,16.7643925 L6.92709455,16.7708105 L15.6770944,16.7708105 C16.2408815,16.7708105 16.7050437,16.344234 16.7644263,15.796236 L16.7708443,15.6770605 L16.7708443,10.5729051 L17.4999996,10.5729051 L17.4999996,15.6770605 C17.4988631,16.632998 16.7628854,17.4167467 15.8265276,17.4937573 L15.6770944,17.4999658 L6.92709455,17.4999658 C5.97115707,17.4988294 5.18740848,16.7628516 5.1103978,15.8264938 L5.10418932,15.6770605 L5.104,12.395 L4.01040514,12.3958108 C2.99299391,12.3946761 2.11489748,11.7989097 1.70492876,10.9373242 L0.364594739,10.9374998 C0.188411261,10.9374998 0.0414060225,10.8125174 0.00740757967,10.6464043 L-2.74225087e-14,10.5729392 L-2.74225087e-14,10.2083445 L1.48463081,10.2086748 C1.4752617,10.1436985 1.46833734,10.0779315 1.46395397,10.01147 L1.45834476,9.84375 L2.18750001,9.84375 C2.18863649,10.7997199 2.92464502,11.5834393 3.86100591,11.6604763 L4.01040514,11.6666555 L5.104,11.666 L5.104,7.291 L4.01040523,7.29165534 L4.01040523,6.56250005 L8.02081037,6.56250005 C8.42351543,6.56250005 8.74996561,6.23604985 8.74996561,5.83334476 C8.74996561,5.46419843 8.47565678,5.15912739 8.1197532,5.11084573 L8.02081037,5.10418947 L4.01040523,5.10418947 C3.05446776,5.10532594 2.27071918,5.84130367 2.19370849,6.77766152 L2.18750001,6.92709479 L1.45831058,6.92709479 C1.45845179,6.80325791 1.46740185,6.68148519 1.48456788,6.56236949 L1.38777878e-14,6.56250015 L1.38777878e-14,6.19790541 C1.38777878e-14,6.02172194 0.124982304,5.87474287 0.291118356,5.84075097 L0.36459474,5.83334486 L1.70486936,5.83357412 C2.09212273,5.01967918 2.89711249,4.44297306 3.84268521,4.38060921 L4.01040523,4.375 L5.104,4.375 L5.10418932,3.28124989 C5.10418932,3.20875478 5.12579942,3.13847066 5.16545801,3.07902044 L5.21100084,3.02350088 L8.12765623,0.1068457 C8.14584847,0.0886191058 8.16576446,0.0725448613 8.18702073,0.0587498449 C8.19560062,0.0531492202 8.20415347,0.048091312 8.21285633,0.0434124727 C8.22752789,0.0355614544 8.2428385,0.0286395316 8.2585617,0.0227990941 C8.26753988,0.019442091 8.2772249,0.0162962003 8.28700155,0.0135655643 L8.3139519,0.00707626316 L8.32925579,0.00442463115 C8.34094247,0.00261248488 8.35270035,0.00136962106 8.36448469,0.000696031066 L15.6770944,-2.22044605e-15 Z M17.18353,7.97271934 C17.6052732,8.39415489 17.6055124,9.07764609 17.1840427,9.49942344 L17.1834958,9.49997031 L12.124902,14.558564 C12.0972327,14.5862333 12.0655764,14.6090028 12.0312817,14.6263059 L12.0312504,14.6270947 L10.0067191,15.640625 C9.95589393,15.6650976 9.90014685,15.6775732 9.84375037,15.677108 L7.29165554,15.6770608 L7.29165554,14.9479055 L9.618,14.947 L10.5295316,13.125 L10.5454028,13.097222 L10.5976852,13.0313131 L15.656279,7.97271934 C16.083696,7.56488731 16.756113,7.56488731 17.18353,7.97271934 Z M15.3125,14.9479055 L15.3125,15.6770608 L12.03125,15.6770608 L12.03125,14.9479055 L15.3125,14.9479055 Z M10.955,13.904 L10.6589701,14.4965625 L11.251,14.2 L10.955,13.904 Z M9.47915554,13.125 L9.47915554,13.8541553 L7.29165554,13.8541553 L7.29165554,13.125 L9.47915554,13.125 Z M15.3125003,13.125 L15.3125003,13.8541553 L13.8541555,13.8541553 L13.8541555,13.125 L15.3125003,13.125 Z M14.649,10.011 L11.3710006,13.2890622 L11.8671871,13.7852487 L15.145,10.507 L14.649,10.011 Z M10.5729055,11.3020945 L10.5729055,12.0312498 L7.29165554,12.0312498 L7.29165554,11.3020945 L10.5729055,11.3020945 Z M12.3958107,9.47915554 L12.3958107,10.2083108 L7.29165554,10.2083108 L7.29165554,9.47915554 L12.3958107,9.47915554 Z M16.2357516,8.4394883 L16.1718452,8.48821737 L15.164,9.495 L15.661,9.992 L16.6680317,8.98443809 C16.7854829,8.86707481 16.8023119,8.68715851 16.7185186,8.55185836 L16.6682368,8.48842245 L16.6041254,8.4394883 C16.491025,8.37180903 16.348852,8.37180903 16.2357516,8.4394883 Z M13.1249998,1.82290534 C14.7358202,1.82290534 16.0416551,3.12874033 16.0416551,4.73959486 C16.0398436,6.34966326 14.7350682,7.65443868 13.1249998,7.6562502 C11.5141795,7.6562502 10.2083445,6.35038103 10.2083445,4.73956068 C10.2083445,3.12874033 11.5141795,1.82290534 13.1249998,1.82290534 Z M13.1249998,2.55209481 C11.9168845,2.55209481 10.9374998,3.53147957 10.9374998,4.73959481 C10.9374998,5.94771004 11.9168845,6.92709481 13.1249998,6.92709481 C14.333115,6.92709481 15.3124998,5.94771004 15.3124998,4.73959481 C15.3113035,3.53195809 14.3326365,2.5532911 13.1249998,2.55209481 Z M13.9610013,3.75265638 L14.4764994,4.26815443 L13.0181546,5.72649916 C12.9497952,5.79485854 12.8570999,5.8332765 12.7604056,5.83331068 C12.6879104,5.83331068 12.6176263,5.81170058 12.5581761,5.77204199 L12.5026565,5.72649916 L11.7735012,4.99734388 L12.2890335,4.48181166 L12.7604397,4.95321791 L13.9610013,3.75265638 Z" id="Combined-Shape"></path>
                    </g>
                </g>
            </g>
        </g>
    </g>
</svg>