<?xml version="1.0" encoding="UTF-8"?>
<svg width="14px" height="14px" viewBox="0 0 14 14" version="1.1" xmlns="http://www.w3.org/2000/svg" xmlns:xlink="http://www.w3.org/1999/xlink">
    <!-- Generator: sketchtool 56.3 (101010) - https://sketch.com -->
    <title>F5BBC0BC-021F-4551-954F-91BF696141CF</title>
    <desc>Created with sketchtool.</desc>
    <g id="👷-Suplier" stroke="none" stroke-width="1" fill="none" fill-rule="evenodd">
        <g id="For-Sales---Invite-Email-FA" transform="translate(-948.000000, -368.000000)">
            <g id="ic_information" transform="translate(948.000000, 368.000000)">
                <circle id="Oval" fill="#253B78" cx="7" cy="7" r="7"></circle>
                <path d="M7.119594,3.5 C7.75562119,3.5 8.26346181,3.67360686 8.64313111,4.02082578 C9.0228004,4.36804471 9.2126322,4.84992543 9.2126322,5.4664824 C9.2126322,6.15443018 9.00008548,6.66876078 8.57498568,7.00948963 C8.14988587,7.35021848 7.56741052,7.52707033 6.82754216,7.54005048 L6.82754216,8.68878772 L5.99032688,8.68878772 L5.99032688,6.93647667 L6.37972933,6.93647667 C6.97681608,6.93647667 7.45220683,6.83263705 7.80591583,6.62495471 C8.15962482,6.41727236 8.33647667,6.03111878 8.33647667,5.4664824 C8.33647667,5.08356807 8.22452458,4.78178419 8.00061705,4.56112169 C7.77670952,4.3404592 7.47330314,4.2301296 7.09038881,4.2301296 C6.68800426,4.2301296 6.36512796,4.34370418 6.1217502,4.57085675 C5.87837245,4.79800932 5.7566854,5.09654822 5.7566854,5.4664824 L4.9,5.4664824 C4.9,5.077078 4.99085966,4.73310927 5.17258172,4.43456589 C5.35430377,4.13602252 5.61390281,3.90562837 5.95138663,3.74337653 C6.28887045,3.5811247 6.67826901,3.5 7.119594,3.5 Z M6.95409795,9.59414843 L6.95409795,10.6358 L5.8832412,10.6358 L5.8832412,9.59414843 L6.95409795,9.59414843 Z" id="?" fill="#FFFFFF" fill-rule="nonzero"></path>
            </g>
        </g>
    </g>
</svg>