<?xml version="1.0" encoding="UTF-8"?>
<svg width="20px" height="20px" viewBox="0 0 20 20" version="1.1" xmlns="http://www.w3.org/2000/svg" xmlns:xlink="http://www.w3.org/1999/xlink">
    <!-- Generator: sketchtool 57.1 (101010) - https://sketch.com -->
    <title>65F7DE5D-65FE-42DE-A482-6273A1CECB95</title>
    <desc>Created with sketchtool.</desc>
    <g id="👮-Admin" stroke="none" stroke-width="1" fill="none" fill-rule="evenodd">
        <g id="For-Admin---List-Suplier" transform="translate(-515.000000, -108.000000)" fill="#ACBADF">
            <g id="Stacked-Group" transform="translate(513.000000, 105.000000)">
                <g id="Group-11">
                    <g id="ic_invite_sales" transform="translate(0.000000, 1.000000)">
                        <g id="637084" transform="translate(2.000000, 2.000000)">
                            <path d="M17.109375,-6.30606678e-14 C17.3138194,-6.30606678e-14 17.4840664,0.1475 17.519375,0.341814129 L17.5260937,0.416679687 L17.5260547,5.501 L18.7435547,6.51417969 C18.9371925,6.6761929 19.0746231,6.88871188 19.1431292,7.12451632 C19.1421204,7.12680261 19.1423856,7.12782374 19.1426467,7.12884554 C19.1647102,7.20079686 19.1796169,7.27701769 19.1871032,7.35535514 L19.1927344,7.47417969 L19.1927344,18.75 C19.1927344,19.0461319 19.0891894,19.3185646 18.9164081,19.5329894 L18.8960937,19.5633203 C18.8742247,19.5923222 18.8492501,19.617681 18.8220016,19.6392685 C18.6278005,19.8299731 18.3719135,19.9587827 18.0872889,19.9916936 L17.9427344,20 L1.27605469,20 C0.932916767,20 0.62159884,19.8609739 0.395478087,19.636299 C0.368319272,19.6162989 0.344085804,19.5915752 0.322734375,19.5633203 L0.308694367,19.5407611 C0.161553305,19.3610982 0.0633697912,19.1398736 0.0347292049,18.8976729 L0.0260546875,18.75 L0.0260546875,7.47417969 C0.0260546875,7.3559984 0.0426433194,7.23993186 0.0744726363,7.12889345 C0.0763837089,7.12692068 0.07718395,7.12387143 0.0780199526,7.12082864 C0.132400074,6.93306754 0.230736941,6.76044394 0.366058316,6.61652489 L0.474375,6.51417969 L1.69205469,5.499 L1.69269531,0.416679687 C1.69269531,0.212235243 1.84019531,0.0420191937 2.03450944,0.00671741041 L2.109375,-6.30606678e-14 L17.109375,-6.30606678e-14 Z M9.03881973,13.489559 L8.92355469,13.5666406 L1.53605469,19.166 L17.6810547,19.166 L10.2952344,13.5674609 C9.92098011,13.28337 9.43308949,13.2582538 9.03881973,13.489559 Z M0.859054688,8.04 L0.859054688,18.634 L7.85305469,13.333 L0.859054688,8.04 Z M18.3590547,8.041 L11.3650547,13.334 L18.3590547,18.634 L18.3590547,8.041 Z M16.6927344,0.833320312 L2.52605469,0.833320312 L2.52505469,8.258 L8.54705469,12.814 L8.56538795,12.8022563 C9.20741778,12.3954831 10.010602,12.3961056 10.653248,12.8030557 L10.7970547,12.903 L10.6710547,12.815 L16.6920547,8.259 L16.6927344,0.833320312 Z M9.609375,3.33332031 C9.81381944,3.33332031 9.98403549,3.48082031 10.0193373,3.67513444 L10.0260547,3.75 L10.0250547,5.833 L12.109375,5.83332031 C12.3138194,5.83332031 12.4840355,5.98082031 12.5193373,6.17513444 L12.5260547,6.25 C12.5260547,6.48 12.339375,6.66667969 12.109375,6.66667969 L12.109375,6.66667969 L10.0250547,6.666 L10.0260547,8.75 C10.0260547,8.98 9.839375,9.16667969 9.609375,9.16667969 C9.40493056,9.16667969 9.23471451,9.01917969 9.19941272,8.82486556 L9.19269531,8.75 L9.19205469,6.666 L7.109375,6.66667969 C6.90493056,6.66667969 6.73471451,6.51917969 6.69941272,6.32486556 L6.69269531,6.25 C6.69269531,6.02 6.879375,5.83332031 7.109375,5.83332031 L7.109375,5.83332031 L9.19205469,5.833 L9.19269531,3.75 C9.19269531,3.52 9.379375,3.33332031 9.609375,3.33332031 Z M1.69205469,6.584 L1.03605469,7.131 L1.69205469,7.627 L1.69205469,6.584 Z M17.5260547,6.585 L17.5260547,7.627 L18.1820547,7.131 L17.5260547,6.585 Z" id="Combined-Shape"></path>
                        </g>
                    </g>
                </g>
            </g>
        </g>
    </g>
</svg>