<?xml version="1.0" encoding="UTF-8"?>
<svg width="12px" height="16px" viewBox="0 0 12 16" version="1.1" xmlns="http://www.w3.org/2000/svg" xmlns:xlink="http://www.w3.org/1999/xlink">
    <!-- Generator: sketchtool 56.3 (101010) - https://sketch.com -->
    <title>48C49156-C9C3-4124-B255-3F9EE4D6706B</title>
    <desc>Created with sketchtool.</desc>
    <g id="👷-Suplier" stroke="none" stroke-width="1" fill="none" fill-rule="evenodd">
        <g id="For-FA---Reset-Password---tooltip" transform="translate(-550.000000, -513.000000)" fill="#ACBADF">
            <g id="Group-2" transform="translate(338.000000, 132.000000)">
                <g id="Molecule-/-Field-/-Textfield-with-icon-Copy-2" transform="translate(198.000000, 370.000000)">
                    <g id="Group-Copy-2">
                        <g id="ic_lock" transform="translate(10.000000, 9.000000)">
                            <g id="126479" transform="translate(4.000000, 2.000000)">
                                <path d="M11.1287785,6.96977226 C11.6057971,6.96977226 11.9933747,7.3573499 11.9933747,7.83436853 L11.9933747,13.4028986 C11.9933747,14.8306418 10.8306418,15.9933747 9.40289855,15.9933747 L2.61532091,15.9933747 C1.18757764,15.9933747 0.0248447205,14.8306418 0.0248447205,13.4028986 L0.0248447205,7.83436853 C0.0248447205,7.3573499 0.41242236,6.96977226 0.889440994,6.96977226 L9.99917184,6.96977226 L9.99917184,4.88612836 C9.99917184,2.68322981 8.20703934,0.894409938 6.00745342,0.894409938 C3.80455487,0.894409938 2.01573499,2.68654244 2.01573499,4.88612836 C2.01573499,5.13457557 1.81697723,5.33333333 1.56853002,5.33333333 C1.32008282,5.33333333 1.12132505,5.13457557 1.12132505,4.88612836 C1.12132505,2.18964803 3.31428571,1.15463195e-14 6.00745342,1.15463195e-14 C8.70393375,1.15463195e-14 10.8935818,2.19296066 10.8935818,4.88612836 L10.8935818,6.96977226 L11.1287785,6.96977226 Z M11.0989648,13.4028986 L11.0989648,7.86418219 L0.922567288,7.86418219 L0.922567288,13.4028986 C0.922567288,14.3403727 1.68447205,15.0989648 2.61863354,15.0989648 L9.40289855,15.0989648 C10.3403727,15.0989648 11.0989648,14.33706 11.0989648,13.4028986 Z M6.01076605,13.2207039 C5.08654244,13.2207039 4.3378882,12.4687371 4.3378882,11.5478261 C4.3378882,10.6269151 5.08654244,9.87494824 6.01076605,9.87494824 C6.93167702,9.87494824 7.68364389,10.6236025 7.68364389,11.5478261 C7.68364389,12.4687371 6.93498965,13.2207039 6.01076605,13.2207039 Z M6.01076605,10.7660455 C5.58012422,10.7660455 5.23229814,11.1204969 5.23229814,11.5478261 C5.23229814,11.9751553 5.58012422,12.326294 6.01076605,12.326294 C6.44140787,12.326294 6.78923395,11.9718427 6.78923395,11.5445135 C6.78923395,11.1171843 6.44140787,10.7660455 6.01076605,10.7660455 Z" id="Combined-Shape"></path>
                            </g>
                        </g>
                    </g>
                </g>
            </g>
        </g>
    </g>
</svg>