<?xml version="1.0" encoding="UTF-8"?>
<svg width="16px" height="13px" viewBox="0 0 16 13" version="1.1" xmlns="http://www.w3.org/2000/svg" xmlns:xlink="http://www.w3.org/1999/xlink">
    <!-- Generator: sketchtool 56.3 (101010) - https://sketch.com -->
    <title>C91E6C64-9C3F-4CBA-9FDF-C2C1F8911E93</title>
    <desc>Created with sketchtool.</desc>
    <g id="👷-Suplier" stroke="none" stroke-width="1" fill="none" fill-rule="evenodd">
        <g id="For-Sales---Invite-Email-FA" transform="translate(-518.000000, -369.000000)" fill="#ACBADF">
            <g id="Group-2" transform="translate(338.000000, 132.000000)">
                <g id="Molecule-/-Field-/-Textfield-with-icon" transform="translate(168.000000, 224.000000)">
                    <g id="Group-Copy-2">
                        <g id="ic_mail" transform="translate(10.000000, 9.000000)">
                            <g id="126516" transform="translate(2.000000, 4.000000)">
                                <path d="M14.0264463,3.55271368e-15 C15.1041322,3.55271368e-15 15.9801653,0.879338843 15.9768688,1.95702479 L15.9768688,10.2049587 C15.9768688,11.2826446 15.1008264,12.1586777 14.0231405,12.1586777 L1.95371901,12.1586777 C0.876033058,12.1586777 -6.21724894e-15,11.2826446 -6.21724894e-15,10.2049587 L-6.21724894e-15,1.95371901 C-6.21724894e-15,0.876033058 0.876033058,3.55271368e-15 1.95371901,3.55271368e-15 L14.0264463,3.55271368e-15 Z M15.0876033,10.2049587 L15.0842975,10.2049587 L15.0842975,1.95702479 C15.0842975,1.37190083 14.6082645,0.895867769 14.0231405,0.895867769 L1.95371901,0.895867769 C1.36859504,0.895867769 0.892561983,1.37190083 0.892561983,1.95702479 L0.892561983,10.2049587 C0.892561983,10.7900826 1.36859504,11.2661157 1.95371901,11.2661157 L14.0264463,11.2661157 C14.6115702,11.2661157 15.0876033,10.7900826 15.0876033,10.2049587 Z M10.0760331,5.9768595 L14,9.70247934 C14.1785124,9.87107438 14.185124,10.1553719 14.0165289,10.3338843 C13.9272727,10.4264463 13.8115702,10.4727273 13.692562,10.4727273 C13.5834711,10.4727273 13.4710744,10.4330579 13.385124,10.3504132 L9.41157025,6.57520661 L8.29752066,7.57355372 C8.21487603,7.64958678 8.10578512,7.6892562 8,7.6892562 C7.89421488,7.6892562 7.78842975,7.65289256 7.70247934,7.5768595 L6.61818182,6.60826446 L2.6214876,10.3471074 C2.53553719,10.4264463 2.42644628,10.4661157 2.31735537,10.4661157 C2.19834711,10.4661157 2.07933884,10.4165289 1.99008264,10.3239669 C1.8214876,10.1421488 1.83140496,9.86115702 2.00991736,9.69256198 L5.94710744,6.00661157 L1.99338843,2.47272727 C1.80826446,2.30743802 1.79173554,2.02644628 1.95702479,1.84132231 C2.12231405,1.65619835 2.40330579,1.63966942 2.58842975,1.80495868 L6.8661157,5.63305785 C6.89256198,5.65289256 6.91570248,5.67272727 6.93884298,5.69586777 C6.93884298,5.69917355 6.94214876,5.70247934 6.94545455,5.70578512 L7.99669421,6.6446281 L13.385124,1.80826446 C13.5702479,1.64297521 13.8512397,1.65950413 14.0165289,1.84132231 C14.1818182,2.02644628 14.1652893,2.30743802 13.9834711,2.47272727 L10.0760331,5.9768595 Z" id="Combined-Shape"></path>
                            </g>
                        </g>
                    </g>
                </g>
            </g>
        </g>
    </g>
</svg>