<?xml version="1.0" encoding="UTF-8"?>
<svg width="45px" height="59px" viewBox="0 0 45 59" version="1.1" xmlns="http://www.w3.org/2000/svg" xmlns:xlink="http://www.w3.org/1999/xlink">
    <!-- Generator: sketchtool 57.1 (101010) - https://sketch.com -->
    <title>31490192-2EC0-446A-9A96-709BCC5EDF9D</title>
    <desc>Created with sketchtool.</desc>
    <g id="👷-Suplier" stroke="none" stroke-width="1" fill="none" fill-rule="evenodd">
        <g id="Supplier---Tax-Setup---Confirmation" transform="translate(-690.000000, -240.000000)" fill="#ACBADF" fill-rule="nonzero">
            <g id="Group-15" transform="translate(437.000000, 180.000000)">
                <g id="ic_taxseyup_confirmartion" transform="translate(253.000000, 60.000000)">
                    <path d="M29.3847656,-3.55271368e-15 C30.2892512,-3.55271368e-15 31.0313294,0.694473673 31.1069374,1.57935823 L31.1132812,1.72851562 L31.1132812,3.57226562 L43.2128906,3.57226562 C44.1173762,3.57226562 44.8594544,4.2667393 44.9350624,5.15162386 L44.9414062,5.30078125 L44.9414062,57.2714844 C44.9414062,58.1759699 44.2469326,58.9180481 43.362048,58.9936561 L43.2128906,59 L1.72851563,59 C0.82403005,59 0.0819518734,58.3055263 0.00634388127,57.4206418 L1.0658141e-14,57.2714844 L1.0658141e-14,5.30078125 C1.0658141e-14,4.39629568 0.694473673,3.6542175 1.57935823,3.57860951 L1.72851563,3.57226562 L13.828125,3.57226562 L13.828125,1.72851562 C13.828125,0.82403005 14.5225987,0.0819518734 15.4074832,0.00634388127 L15.5566406,-3.55271368e-15 L29.3847656,-3.55271368e-15 Z M13.828125,7.02929688 L3.45703125,7.02929688 L3.45703125,55.5429688 L41.484375,55.5429688 L41.484375,7.02929688 L31.1132812,7.02929688 L31.1132812,8.7578125 C31.1132812,9.66229807 30.4188076,10.4043763 29.533923,10.4799842 L29.3847656,10.4863281 L15.5566406,10.4863281 C14.6521551,10.4863281 13.9100769,9.79185445 13.8344689,8.90696989 L13.828125,8.7578125 L13.828125,7.02929688 Z M22.4707031,48.5136719 L36.2988281,48.5136719 C37.2535629,48.5136719 38.0273437,49.2874527 38.0273437,50.2421875 C38.0273437,51.1466731 37.3328701,51.8887513 36.4479855,51.9643592 L36.2988281,51.9707031 L22.4707031,51.9707031 C21.5159684,51.9707031 20.7421875,51.1969223 20.7421875,50.2421875 C20.7421875,49.3377019 21.4366612,48.5956237 22.3215457,48.5200158 L22.4707031,48.5136719 L36.2988281,48.5136719 Z M12.0996094,27.840805 C13.0543441,27.840805 13.828125,28.6145858 13.828125,29.5693206 L13.828125,29.5693206 L13.828125,31.5287552 C14.974617,31.9356766 15.9649124,32.7387162 16.590599,33.8199386 C17.0681916,34.6463852 16.7859574,35.7037507 15.9595108,36.1817932 C15.1330643,36.6598358 14.0756989,36.3771515 13.5981064,35.5511551 C13.2888641,35.0172958 12.714943,34.6855469 12.0996094,34.6855469 C11.1466751,34.6855469 10.3710938,35.4611283 10.3710938,36.4140625 C10.3710938,37.3669967 11.1466751,38.1425781 12.0996094,38.1425781 C14.9588623,38.1425781 17.2851562,40.4688721 17.2851562,43.328125 C17.2851562,45.5814972 15.8402253,47.5026702 13.828125,48.2165833 L13.828125,48.2165833 L13.828125,50.1039962 C13.828125,51.0587311 13.0543441,51.8325119 12.0996094,51.8325119 C11.1448746,51.8325119 10.3710938,51.0587311 10.3710938,50.1039962 L10.3710938,50.1039962 L10.3710938,48.2134323 C9.22460172,47.8065109 8.23430631,47.0034713 7.60861972,45.9222489 C7.13102716,45.0958023 7.41326138,44.0384368 8.23970792,43.5603943 C9.06615445,43.0823517 10.1235198,43.365036 10.6011124,44.1910324 C10.9103547,44.7248917 11.4842758,45.0566406 12.0996094,45.0566406 C13.0525436,45.0566406 13.828125,44.2810592 13.828125,43.328125 C13.828125,42.3751908 13.0525436,41.5996094 12.0996094,41.5996094 C9.24035645,41.5996094 6.9140625,39.2733154 6.9140625,36.4140625 C6.9140625,34.1606903 8.35899347,32.2395173 10.3710938,31.5256042 L10.3710938,31.5256042 L10.3710938,29.5693206 C10.3710938,28.6145858 11.1448746,27.840805 12.0996094,27.840805 Z M36.2988281,41.5996094 C37.2535629,41.5996094 38.0273437,42.3733902 38.0273437,43.328125 C38.0273437,44.2326106 37.3328701,44.9746888 36.4479855,45.0502967 L36.2988281,45.0566406 L22.4707031,45.0566406 C21.5159684,45.0566406 20.7421875,44.2828598 20.7421875,43.328125 C20.7421875,42.4236394 21.4366612,41.6815612 22.3215457,41.6059533 L22.4707031,41.5996094 L36.2988281,41.5996094 Z M36.2988281,34.6855469 C37.2535629,34.6855469 38.0273437,35.4593277 38.0273437,36.4140625 C38.0273437,37.3185481 37.3328701,38.0606263 36.4479855,38.1362342 L36.2988281,38.1425781 L22.4707031,38.1425781 C21.5159684,38.1425781 20.7421875,37.3687973 20.7421875,36.4140625 C20.7421875,35.5095769 21.4366612,34.7674987 22.3215457,34.6918908 L22.4707031,34.6855469 L36.2988281,34.6855469 Z M36.2988281,27.7714844 C37.2535629,27.7714844 38.0273437,28.5452652 38.0273437,29.5 C38.0273437,30.4044856 37.3328701,31.1465638 36.4479855,31.2221717 L36.2988281,31.2285156 L22.4707031,31.2285156 C21.5159684,31.2285156 20.7421875,30.4547348 20.7421875,29.5 C20.7421875,28.5955144 21.4366612,27.8534362 22.3215457,27.7778283 L22.4707031,27.7714844 L36.2988281,27.7714844 Z M36.2988281,20.8574219 C37.2535629,20.8574219 38.0273437,21.6312027 38.0273437,22.5859375 C38.0273437,23.4904231 37.3328701,24.2325013 36.4479855,24.3081092 L36.2988281,24.3144531 L8.64257813,24.3144531 C7.68784335,24.3144531 6.9140625,23.5406723 6.9140625,22.5859375 C6.9140625,21.6814519 7.60853617,20.9393737 8.49342073,20.8637658 L8.64257813,20.8574219 L36.2988281,20.8574219 Z M36.2988281,13.9433594 C37.2535629,13.9433594 38.0273437,14.7171402 38.0273437,15.671875 C38.0273437,16.5763606 37.3328701,17.3184388 36.4479855,17.3940467 L36.2988281,17.4003906 L8.64257813,17.4003906 C7.68784335,17.4003906 6.9140625,16.6266098 6.9140625,15.671875 C6.9140625,14.7673894 7.60853617,14.0253112 8.49342073,13.9497033 L8.64257813,13.9433594 L36.2988281,13.9433594 Z M27.65625,3.45703125 L17.2851562,3.45703125 L17.2851562,7.02929687 L27.65625,7.02929687 L27.65625,3.45703125 Z" id="Combined-Shape"></path>
                </g>
            </g>
        </g>
    </g>
</svg>