<?xml version="1.0" encoding="UTF-8"?>
<svg width="17px" height="20px" viewBox="0 0 17 20" version="1.1" xmlns="http://www.w3.org/2000/svg" xmlns:xlink="http://www.w3.org/1999/xlink">
    <!-- Generator: sketchtool 57.1 (101010) - https://sketch.com -->
    <title>9D7FAC42-C136-4451-A2DF-AC1E69A5182F</title>
    <desc>Created with sketchtool.</desc>
    <g id="👮-Admin" stroke="none" stroke-width="1" fill="none" fill-rule="evenodd">
        <g id="For-Admin---Dashboard" transform="translate(-998.000000, -860.000000)" fill="#F8C301">
            <g id="Group-17-Copy-2" transform="translate(963.000000, 826.000000)">
                <g id="ic_user-Atoms-/-Icon-/-User" transform="translate(32.000000, 32.000000)">
                    <g id="126486" transform="translate(3.600000, 2.400000)">
                        <path d="M5.14782606,10.4029818 C5.39031053,10.2320502 5.72422357,10.2916775 5.89515525,10.534162 C6.06608692,10.7766464 6.00645959,11.1105595 5.76397512,11.2814912 C5.69639748,11.3252179 4.11428569,12.4303111 2.13465837,12.9391309 C1.2084472,13.2690688 1.10509316,14.2588825 1.07726707,15.1652179 C1.07726707,15.2009943 1.07329192,15.2327956 1.07329192,15.2645968 C1.06534161,15.6223608 1.0931677,16.1749074 1.15677018,16.4929198 C1.80472049,16.8586341 4.3448447,18.1267087 8.16894405,18.1267087 C12.008944,18.1267087 14.5331676,16.8626093 15.1771428,16.496895 C15.2407453,16.1788826 15.2645962,15.626336 15.260621,15.268572 C15.2566459,15.2367707 15.2566459,15.2049695 15.2566459,15.1691931 C15.2288198,14.2628577 15.1254658,13.273044 14.1992546,12.9431061 C12.2196273,12.4342862 10.6375155,11.3331682 10.5699378,11.2854663 C10.3274534,11.1145346 10.267826,10.7806216 10.4387577,10.5381371 C10.6096894,10.2956526 10.9436024,10.2360253 11.1860869,10.406957 C11.2019875,10.4188825 12.6926707,11.4524228 14.4854658,11.9095657 L14.4854658,11.9095657 L14.5252173,11.9214912 C16.2504347,12.5098142 16.3021117,14.3503111 16.3259626,15.1373919 C16.3259626,15.1731683 16.3299378,15.2049695 16.3299378,15.2367707 L16.3299378,15.2367707 L16.3307629,15.3109381 C16.3333249,15.6155395 16.322599,16.5574397 16.1391303,17.0454664 C16.0993788,17.1488205 16.0238508,17.2362739 15.9324223,17.2959012 C15.8131676,17.3714292 12.955031,19.1960255 8.17291921,19.1960255 C3.39080743,19.1960255 0.532670804,17.3754043 0.413416147,17.2959012 C0.318012421,17.2362739 0.246459626,17.1488205 0.206708073,17.0454664 C-0.00397515529,16.5127956 -3.25671877e-11,15.4514291 0.00397515522,15.244721 L0.00397515522,15.244721 L0.00397515522,15.2327956 C0.00795031048,15.2009943 0.00795031048,15.1691931 0.00795031048,15.1334167 C0.031801242,14.3503111 0.0834782604,12.5098142 1.80869564,11.917516 C1.82062111,11.9135409 1.83254657,11.9095657 1.84844719,11.9055906 C3.64919253,11.4484477 5.13192544,10.4149073 5.14782606,10.4029818 Z M8.2086956,0 C9.01167698,0.0159006217 9.7311801,0.206708082 10.3473292,0.560496915 C11.1741615,1.03354041 12.1759006,2.04720504 12.2752795,4.16596289 C12.3031056,4.44819892 12.5575155,7.40571456 11.0270807,9.13093201 C10.3314286,9.91403763 9.38931674,10.3234786 8.22459622,10.3433544 L8.22459622,10.3433544 L8.09739125,10.3433544 C6.93267074,10.3234786 5.99055893,9.91403763 5.2988819,9.13093201 C3.7684471,7.40571456 4.02285704,4.44819892 4.05068313,4.16596289 C4.15006201,2.03130442 5.16770177,1.01763979 6.00248439,0.544596293 C6.83329186,0.0715527977 7.69987572,0 8.14111796,0 L8.14111796,0 Z M8.18484466,1.07726705 L8.13714279,1.07726705 C7.27055892,1.07726705 5.24720484,1.38335401 5.11602472,4.23354033 C5.11602472,4.24149064 5.11204956,4.2534161 5.11204956,4.26534157 C5.10807441,4.2891925 4.83776384,7.00422354 6.09788809,8.41937882 C6.59478251,8.98385086 7.26658377,9.26211173 8.14111795,9.27006204 L8.14111795,9.27006204 L8.1808695,9.27006204 C9.05937884,9.26211173 9.72720494,8.98385086 10.2280745,8.41937882 C11.4921739,6.99627323 11.213913,4.29316766 11.2099379,4.26534157 C11.2059627,4.25739126 11.2059627,4.24546579 11.2059627,4.23354033 C11.0827329,1.53838506 9.2581366,1.10111798 8.18484466,1.07726705 L8.18484466,1.07726705 Z" id="Combined-Shape"></path>
                    </g>
                </g>
            </g>
        </g>
    </g>
</svg>