<?xml version="1.0" encoding="UTF-8"?>
<svg width="14px" height="16px" viewBox="0 0 14 16" version="1.1" xmlns="http://www.w3.org/2000/svg" xmlns:xlink="http://www.w3.org/1999/xlink">
    <!-- Generator: sketchtool 56.3 (101010) - https://sketch.com -->
    <title>5DE1691A-93F0-4B7B-B67F-3056451D6F91</title>
    <desc>Created with sketchtool.</desc>
    <g id="👷-Suplier" stroke="none" stroke-width="1" fill="none" fill-rule="evenodd">
        <g id="Login-v.2" transform="translate(-934.000000, -372.000000)" fill="#ACBADF">
            <g id="Group-3" transform="translate(853.000000, 180.000000)">
                <g id="Group-6" transform="translate(68.000000, 76.000000)">
                    <g id="Group-7">
                        <g id="Group" transform="translate(0.000000, 105.000000)">
                            <g id="ic_user" transform="translate(10.000000, 9.000000)">
                                <g id="126486" transform="translate(3.000000, 2.000000)">
                                    <path d="M6.74782609,8.6194617 C5.77722567,8.60289855 4.99213251,8.26169772 4.41573499,7.60910973 C3.14037267,6.17142857 3.35238095,3.7068323 3.37556936,3.47163561 C3.45838509,1.69275362 4.30641822,0.848033126 5.00207039,0.453830228 C5.69440994,0.0596273292 6.41656315,0 6.78426501,0 L6.80414079,0 C6.80745342,0 6.81407867,0 6.8173913,0 L6.84057971,0 C7.50973085,0.0132505176 8.10931677,0.172256729 8.62277433,0.467080745 C9.31180124,0.861283644 10.1465839,1.70600414 10.2293996,3.47163561 C10.252588,3.7068323 10.4645963,6.17142857 9.18923395,7.60910973 C8.60952381,8.26169772 7.82443064,8.60289855 6.85383023,8.6194617 C6.84389234,8.6194617 6.83064182,8.6194617 6.82070393,8.6194617 C6.81407867,8.6194617 6.80745342,8.6194617 6.80082816,8.6194617 C6.78095238,8.6194617 6.76438923,8.6194617 6.74782609,8.6194617 Z M4.26004141,3.55445135 C4.25672878,3.57432712 4.03146998,5.836853 5.0815735,7.01614907 C5.49565217,7.48654244 6.05548654,7.7184265 6.78426501,7.72505176 C6.79089027,7.72505176 6.7942029,7.72505176 6.80082816,7.72505176 C6.80745342,7.72505176 6.81076605,7.72505176 6.8173913,7.72505176 C7.5494824,7.7184265 8.10600414,7.48654244 8.52339545,7.01614907 C9.57681159,5.83022774 9.34492754,3.57763975 9.34161491,3.55445135 C9.33830228,3.54782609 9.33830228,3.5378882 9.33830228,3.52795031 C9.23561077,1.28198758 7.71511387,0.917598344 6.82070393,0.897722567 C6.81076605,0.897722567 6.80082816,0.897722567 6.7942029,0.897722567 L6.78095238,0.897722567 C6.05879917,0.897722567 4.37267081,1.15279503 4.26335404,3.52795031 C4.26335404,3.53457557 4.26004141,3.54451346 4.26004141,3.55445135 Z M13.6082816,12.7072464 C13.6115942,12.8795031 13.6149068,13.7639752 13.4492754,14.2045549 C13.4161491,14.2906832 13.3532091,14.3635611 13.2770186,14.4132505 C13.1776398,14.4761905 10.7958592,15.9966874 6.81076605,15.9966874 C2.82567288,15.9966874 0.44389234,14.4795031 0.344513458,14.4132505 C0.265010352,14.3635611 0.205383023,14.2906832 0.172256729,14.2045549 C-0.0033126294,13.7606625 -4.61865789e-14,12.8761905 0.0033126294,12.7039337 C0.0033126294,12.7006211 0.0033126294,12.6973085 0.0033126294,12.6939959 C0.0066252588,12.6674948 0.0066252588,12.6409938 0.0066252588,12.6111801 C0.0265010352,11.9585921 0.0695652174,10.4248447 1.50724638,9.93126294 C1.51718427,9.92795031 1.52712215,9.92463768 1.54037267,9.92132505 C3.04099379,9.54037267 4.27660455,8.67908903 4.28985507,8.66915114 C4.49192547,8.52670807 4.77018634,8.57639752 4.9126294,8.77846791 C5.05507246,8.9805383 5.00538302,9.25879917 4.80331263,9.40124224 C4.74699793,9.43768116 3.42857143,10.3585921 1.77888199,10.7826087 C1.00703934,11.0575569 0.920910973,11.8824017 0.897722567,12.6376812 C0.897722567,12.6674948 0.894409938,12.6939959 0.894409938,12.7204969 C0.887784679,13.0186335 0.910973085,13.479089 0.963975155,13.7440994 C1.50393375,14.0488613 3.62070393,15.1055901 6.80745342,15.1055901 C10.0074534,15.1055901 12.1109731,14.0521739 12.647619,13.747412 C12.7006211,13.4824017 12.7204969,13.0219462 12.7171843,12.7238095 C12.7138716,12.6973085 12.7138716,12.6708075 12.7138716,12.6409938 C12.6906832,11.8857143 12.6045549,11.0608696 11.8327122,10.7859213 C10.1830228,10.3619048 8.86459627,9.44430642 8.80828157,9.40455487 C8.60621118,9.2621118 8.55652174,8.98385093 8.6989648,8.78178054 C8.84140787,8.57971014 9.11966874,8.5300207 9.32173913,8.67246377 C9.33498965,8.68240166 10.5772257,9.5436853 12.0712215,9.92463768 C12.0811594,9.92795031 12.0944099,9.93126294 12.1043478,9.93457557 C13.542029,10.4248447 13.5850932,11.9585921 13.6049689,12.6144928 C13.6049689,12.6443064 13.6082816,12.6708075 13.6082816,12.6973085 C13.6082816,12.7006211 13.6082816,12.7039337 13.6082816,12.7072464 Z" id="Combined-Shape"></path>
                                </g>
                            </g>
                        </g>
                    </g>
                </g>
            </g>
        </g>
    </g>
</svg>