<?xml version="1.0" encoding="UTF-8"?>
<svg width="90px" height="73px" viewBox="0 0 90 73" version="1.1" xmlns="http://www.w3.org/2000/svg" xmlns:xlink="http://www.w3.org/1999/xlink">
    <!-- Generator: sketchtool 57.1 (101010) - https://sketch.com -->
    <title>89C21FF0-0268-46E9-AA7B-CF46F26431FB</title>
    <desc>Created with sketchtool.</desc>
    <g id="👷-Suplier" stroke="none" stroke-width="1" fill="none" fill-rule="evenodd">
        <g id="For-Suplier---Home---Dashboard---Warning-" transform="translate(-676.000000, -227.000000)">
            <g id="Group-15" transform="translate(437.000000, 180.000000)">
                <g id="Ic_-Warning" transform="translate(239.000000, 50.000000)">
                    <g id="ic_warning" transform="translate(0.000000, 5.000000)">
                        <g id="272340" transform="translate(0.000064, 0.876137)"></g>
                        <path d="M36.9999192,1 C39.3157434,1 41.4971536,2.23198438 42.6930052,4.21509766 L42.6930052,4.21509766 L73.0465911,54.5541758 C74.2826224,56.6036289 74.3191888,59.1716602 73.1422708,61.2559453 C71.9650638,63.3402305 69.7469427,64.6349414 67.3535052,64.6349414 L67.3535052,64.6349414 L6.64633329,64.6349414 C4.25289579,64.6349414 2.03491923,63.3402305 0.857712199,61.2560898 C-0.31920577,59.1719492 -0.282639364,56.603918 0.953247355,54.5541758 L0.953247355,54.5541758 L31.3066888,4.21524219 C32.5026849,2.23198438 34.684095,1 36.9999192,1 Z M37.0000638,5.81794922 C36.3625364,5.81794922 35.7620091,6.15716406 35.4327669,6.70305859 L35.4327669,6.70305859 L5.07903642,57.0421367 C4.73895439,57.6062422 4.7288372,58.3132891 5.05287626,58.8870781 C5.37677079,59.4607227 5.98741532,59.8171367 6.64633329,59.8171367 L6.64633329,59.8171367 L67.3535052,59.8171367 C68.0124231,59.8171367 68.6230677,59.4605781 68.9471067,58.8869336 C69.2711458,58.3132891 69.2610286,57.6063867 68.9206575,57.0421367 L68.9206575,57.0421367 L38.5672161,6.70305859 C38.2379739,6.15716406 37.6374466,5.81794922 37.0000638,5.81794922 Z M37.4418671,45.0591281 C39.2743787,45.0591281 40.839074,46.6235343 40.839074,48.5009952 C40.839074,50.3336513 39.2745233,51.9428622 37.4418671,51.9428622 C35.4750859,51.9428622 34,50.3336513 34,48.5009952 C34,46.6235343 35.4752304,45.0591281 37.4418671,45.0591281 Z M37.3969179,19 C39.1402537,19 40.6151951,19.9835351 40.6151951,21.7267265 C40.6151951,27.0459099 39.9895193,34.6893003 39.9895193,40.0083392 C39.9895193,41.3939602 38.4697733,41.9749758 37.3970624,41.9749758 C35.9667812,41.9749758 34.7598008,41.3939602 34.7596562,40.0083392 C34.7596562,34.6891557 34.1339805,27.0457654 34.1339805,21.7267265 C34.1339805,19.9833906 35.5642617,19 37.3969179,19 Z" id="Combined-Shape" fill="#ACBADF"></path>
                    </g>
                    <g id="Atoms-/-Icon-/-Warning" transform="translate(37.000000, 0.000000)" fill="#F8C301" stroke="#FFFFFF" stroke-width="3">
                        <g id="Combined-Shape-2">
                            <path d="M25,-1.5 C39.6355459,-1.5 51.5,10.3644541 51.5,25 C51.5,39.6355459 39.6355459,51.5 25,51.5 C10.3644541,51.5 -1.5,39.6355459 -1.5,25 C-1.5,10.3644541 10.3644541,-1.5 25,-1.5 Z M24.938602,34.7487982 C24.1202182,34.7487982 23.5,35.3802646 23.5,36.1874002 C23.5,36.9726406 24.1360124,37.6260022 24.938602,37.6260022 C25.661896,37.6260022 26.339074,36.9366338 26.339074,36.1874002 C26.339074,35.4160081 25.6777776,34.7487982 24.938602,34.7487982 Z M24.9002252,12.5 C24.0172986,12.5 23.61439,12.8185102 23.61439,13.3280283 C23.61439,15.1867282 23.6806903,16.9360642 23.8797409,21.0599142 C23.8797471,21.0600432 23.8797471,21.0600432 23.8797533,21.0601723 C24.0813309,25.2363761 24.1485803,27.0108076 24.1485803,28.9363722 C24.1485908,29.0364871 24.2679812,29.1156064 24.9003486,29.1156064 C25.3417658,29.1156064 25.6137401,28.947109 25.6137401,28.9365287 C25.6137401,27.0108202 25.6809846,25.23657 25.8825795,21.0600068 C25.8825858,21.0598777 25.8825858,21.0598777 25.882592,21.0597487 C26.0816254,16.9362542 26.1479304,15.1867425 26.1479304,13.3280283 C26.1479304,12.833647 25.7258905,12.5 24.9002252,12.5 Z" id="Combined-Shape"></path>
                        </g>
                    </g>
                </g>
            </g>
        </g>
    </g>
</svg>