<?xml version="1.0" encoding="UTF-8"?>
<svg width="37px" height="49px" viewBox="0 0 37 49" version="1.1" xmlns="http://www.w3.org/2000/svg" xmlns:xlink="http://www.w3.org/1999/xlink">
    <!-- Generator: sketchtool 57.1 (101010) - https://sketch.com -->
    <title>A66528D3-CCE4-4B9F-B66B-F494C1ABCD05</title>
    <desc>Created with sketchtool.</desc>
    <g id="👮-Admin" stroke="none" stroke-width="1" fill="none" fill-rule="evenodd">
        <g id="For-Admin---Group-Detail---List-FA-Suplier-Confirmation-Invite" transform="translate(-702.000000, -327.000000)" fill="#ACBADF">
            <g id="Popup-Konfirmasi">
                <g id="Group-15" transform="translate(437.000000, 259.000000)">
                    <g id="ic_mail-Atoms-/-Icon-/-Lock" transform="translate(254.000000, 63.000000)">
                        <g id="126479" transform="translate(11.800000, 5.900000)">
                            <path d="M17.7219871,3.55271368e-14 C25.6766039,3.55271368e-14 32.1360654,6.46923399 32.1360654,14.4140788 L32.1360654,14.4140788 L32.1360654,20.5608283 L32.8298956,20.5608283 C34.2371005,20.5608283 35.3804545,21.7041823 35.3804545,23.1113873 L35.3804545,23.1113873 L35.3804545,39.5385509 C35.3804545,43.7503936 31.9503925,47.1804557 27.73855,47.1804557 L27.73855,47.1804557 L7.71519648,47.1804557 C3.50335395,47.1804557 0.0732919268,43.7503936 0.0732919268,39.5385509 L0.0732919268,39.5385509 L0.0732919268,23.1113873 C0.0732919268,21.7041823 1.21664593,20.5608283 2.62385086,20.5608283 L2.62385086,20.5608283 L29.4975562,20.5608283 L29.4975562,14.4140788 C29.4975562,7.91552799 24.2107654,2.63850933 17.7219871,2.63850933 C11.2234366,2.63850933 5.94641806,7.92530025 5.94641806,14.4140788 C5.94641806,15.146998 5.36008268,15.7333334 4.62716344,15.7333334 C3.89424421,15.7333334 3.30790882,15.146998 3.30790882,14.4140788 C3.30790882,6.45946173 9.7771426,3.55271368e-14 17.7219871,3.55271368e-14 Z M32.7419455,23.1993369 L2.72157343,23.1993369 L2.72157343,39.5385503 C2.72157343,42.304099 4.96919243,44.5419458 7.72496878,44.5419458 L7.72496878,44.5419458 L27.7385502,44.5419458 C30.5040988,44.5419458 32.7419455,42.2943268 32.7419455,39.5385503 L32.7419455,39.5385503 L32.7419455,23.1993369 Z M17.73176,29.1310981 C20.4484473,29.1310981 22.6667495,31.339628 22.6667495,34.0660876 C22.6667495,36.7827748 20.4582195,39.001077 17.73176,39.001077 C15.0053005,39.001077 12.7967705,36.7827748 12.7967705,34.0660876 C12.7967705,31.3494003 15.0053005,29.1310981 17.73176,29.1310981 Z M17.7317602,31.7598351 C16.4613668,31.7598351 15.4352799,32.8054666 15.4352799,34.0660878 C15.4352799,35.3267089 16.4613668,36.3625682 17.7317602,36.3625682 C19.0021535,36.3625682 20.0282405,35.3169367 20.0282405,34.0563155 C20.0282405,32.7956944 19.0021535,31.7598351 17.7317602,31.7598351 Z" id="Combined-Shape"></path>
                        </g>
                    </g>
                </g>
            </g>
        </g>
    </g>
</svg>