<?xml version="1.0" encoding="UTF-8"?>
<svg width="49px" height="37px" viewBox="0 0 49 37" version="1.1" xmlns="http://www.w3.org/2000/svg" xmlns:xlink="http://www.w3.org/1999/xlink">
    <!-- Generator: sketchtool 57.1 (101010) - https://sketch.com -->
    <title>CD177D34-8EC8-4129-BF40-DAA27DFA84AE</title>
    <desc>Created with sketchtool.</desc>
    <g id="👮-Admin" stroke="none" stroke-width="1" fill="none" fill-rule="evenodd">
        <g id="For-Admin---Confirmation-To-Sent" transform="translate(-696.000000, -254.000000)" fill="#ACBADF">
            <g id="Group-15" transform="translate(437.000000, 180.000000)">
                <g id="ic_mail-Atoms-/-Icon-/-Mail" transform="translate(254.000000, 63.000000)">
                    <g id="126516" transform="translate(5.900000, 11.800000)">
                        <path d="M41.378016,1.0658141e-14 C44.5571895,1.0658141e-14 47.141487,2.59404967 47.1317625,5.77322332 L47.1317625,5.77322332 L47.1317625,30.104629 C47.1317625,33.2838027 44.5474375,35.8681003 41.3682639,35.8681003 L41.3682639,35.8681003 L5.763471,35.8681003 C2.58429749,35.8681003 -1.77635684e-14,33.2838027 -1.77635684e-14,30.104629 L-1.77635684e-14,30.104629 L-1.77635684e-14,5.76347125 C-1.77635684e-14,2.5842976 2.58429749,1.0658141e-14 5.763471,1.0658141e-14 L5.763471,1.0658141e-14 Z M41.3682653,2.64280991 L5.76347111,2.64280991 C4.03735537,2.64280991 2.63305782,4.04710741 2.63305782,5.7732231 L2.63305782,5.7732231 L2.63305782,30.1046278 C2.63305782,31.8307435 4.03735537,33.235041 5.76347111,33.235041 L5.76347111,33.235041 L41.3780174,33.235041 C43.1041332,33.235041 44.5084307,31.8307435 44.5084307,30.1046278 L44.5084307,30.1046278 L44.4986786,30.1046278 L44.4986786,5.7732231 C44.4986786,4.04710741 43.0943811,2.64280991 41.3682653,2.64280991 L41.3682653,2.64280991 Z M5.77322331,5.43190099 C6.26082663,4.8857853 7.08975227,4.83702497 7.63586798,5.32462826 L7.63586798,5.32462826 L20.2550418,16.6175205 C20.3330584,16.6760329 20.4013228,16.7345453 20.4695873,16.8028097 C20.4695873,16.8125618 20.4793394,16.8223139 20.4890914,16.8320659 L20.4890914,16.8320659 L23.5902485,19.6016526 L39.4861167,5.33438033 C40.0322324,4.84677704 40.8611581,4.89553737 41.3487614,5.43190099 C41.8363647,5.97801667 41.7876044,6.80694227 41.2512407,7.29454556 L41.2512407,7.29454556 L29.7242983,17.6317353 L41.300001,28.6223135 C41.8266126,29.1196688 41.8461168,29.9583465 41.3487614,30.4849581 C41.0854556,30.7580159 40.7441333,30.8945448 40.3930589,30.8945448 C40.0712407,30.8945448 39.7396704,30.77752 39.4861167,30.5337184 L39.4861167,30.5337184 L27.7641329,19.3968592 L24.4776866,22.3419831 C24.2338849,22.5662806 23.9120667,22.6833054 23.6000006,22.6833054 C23.2879345,22.6833054 22.9758684,22.5760327 22.7223146,22.3517352 L22.7223146,22.3517352 L19.5236369,19.4943799 L7.73338865,30.5239663 C7.47983492,30.7580159 7.15801673,30.8750407 6.83619854,30.8750407 C6.48512415,30.8750407 6.13404977,30.7287597 5.87074397,30.4557019 C5.37338859,29.9193382 5.40264479,29.0904127 5.92925637,28.5930573 L5.92925637,28.5930573 L17.5439674,17.7195039 L5.88049604,7.29454556 C5.33438032,6.80694227 5.28561999,5.97801667 5.77322331,5.43190099 Z" id="Combined-Shape"></path>
                    </g>
                </g>
            </g>
        </g>
    </g>
</svg>